<?xml version="1.0" encoding="UTF-8" standalone="no"?>
<!DOCTYPE svg PUBLIC "-//W3C//DTD SVG 1.1//EN"
 "http://www.w3.org/Graphics/SVG/1.1/DTD/svg11.dtd">
<!-- Generated by graphviz version 2.43.0 (0)
 -->
<!-- Title: ellalgo/oracles/chebyshev_oracle.hpp Pages: 1 -->
<svg width="479pt" height="148pt"
 viewBox="0.00 0.00 478.50 148.00" xmlns="http://www.w3.org/2000/svg" xmlns:xlink="http://www.w3.org/1999/xlink">
<g id="graph0" class="graph" transform="scale(1 1) rotate(0) translate(4 144)">
<title>ellalgo/oracles/chebyshev_oracle.hpp</title>
<!-- Node1 -->
<g id="Node000001" class="node">
<title>Node1</title>
<g id="a_Node000001"><a xlink:title="Oracle for the Chebyshev center problem (largest inscribed ball)">
<polygon fill="#999999" stroke="#666666" points="257,-140 114,-140 114,-110 257,-110 257,-140"/>
<text text-anchor="start" x="122" y="-128" font-family="Helvetica,sans-Serif" font-size="10.00">ellalgo/oracles/chebyshev</text>
<text text-anchor="middle" x="185.5" y="-117" font-family="Helvetica,sans-Serif" font-size="10.00">_oracle.hpp</text>
</a>
</g>
</g>
<!-- Node2 -->
<g id="Node000002" class="node">
<title>Node2</title>
<g id="a_Node000002"><a xlink:title=" ">
<polygon fill="#e0e0e0" stroke="#999999" points="47,-74 0,-74 0,-55 47,-55 47,-74"/>
<text text-anchor="middle" x="23.5" y="-62" font-family="Helvetica,sans-Serif" font-size="10.00">cmath</text>
</a>
</g>
</g>
<!-- Node1&#45;&gt;Node2 -->
<g id="edge1_Node000001_Node000002" class="edge">
<title>Node1&#45;&gt;Node2</title>
<g id="a_edge1_Node000001_Node000002"><a xlink:title=" ">
<path fill="none" stroke="#63b8ff" d="M146.7,-109.99C119.31,-100.1 82.98,-86.98 56.89,-77.56"/>
<polygon fill="#63b8ff" stroke="#63b8ff" points="58.02,-74.24 47.42,-74.14 55.64,-80.83 58.02,-74.24"/>
</a>
</g>
</g>
<!-- Node3 -->
<g id="Node000003" class="node">
<title>Node3</title>
<g id="a_Node000003"><a xlink:title=" ">
<polygon fill="#e0e0e0" stroke="#999999" points="273,-19 220,-19 220,0 273,0 273,-19"/>
<text text-anchor="middle" x="246.5" y="-7" font-family="Helvetica,sans-Serif" font-size="10.00">cstddef</text>
</a>
</g>
</g>
<!-- Node1&#45;&gt;Node3 -->
<g id="edge2_Node000001_Node000003" class="edge">
<title>Node1&#45;&gt;Node3</title>
<g id="a_edge2_Node000001_Node000003"><a xlink:title=" ">
<path fill="none" stroke="#63b8ff" d="M140.87,-109.94C109.85,-97.75 76.97,-78.4 94.5,-55 108.34,-36.53 169.4,-23.15 209.79,-16.12"/>
<polygon fill="#63b8ff" stroke="#63b8ff" points="210.55,-19.54 219.83,-14.43 209.38,-12.64 210.55,-19.54"/>
</a>
</g>
</g>
<!-- Node4 -->
<g id="Node000004" class="node">
<title>Node4</title>
<g id="a_Node000004"><a xlink:title=" ">
<polygon fill="#e0e0e0" stroke="#999999" points="145,-74 104,-74 104,-55 145,-55 145,-74"/>
<text text-anchor="middle" x="124.5" y="-62" font-family="Helvetica,sans-Serif" font-size="10.00">tuple</text>
</a>
</g>
</g>
<!-- Node1&#45;&gt;Node4 -->
<g id="edge3_Node000001_Node000004" class="edge">
<title>Node1&#45;&gt;Node4</title>
<g id="a_edge3_Node000001_Node000004"><a xlink:title=" ">
<path fill="none" stroke="#63b8ff" d="M170.73,-109.84C161.79,-101.26 150.36,-90.3 141.1,-81.42"/>
<polygon fill="#63b8ff" stroke="#63b8ff" points="143.28,-78.66 133.64,-74.27 138.44,-83.71 143.28,-78.66"/>
</a>
</g>
</g>
<!-- Node5 -->
<g id="Node000005" class="node">
<title>Node5</title>
<g id="a_Node000005"><a xlink:title=" ">
<polygon fill="#e0e0e0" stroke="#999999" points="208,-74 163,-74 163,-55 208,-55 208,-74"/>
<text text-anchor="middle" x="185.5" y="-62" font-family="Helvetica,sans-Serif" font-size="10.00">utility</text>
</a>
</g>
</g>
<!-- Node1&#45;&gt;Node5 -->
<g id="edge4_Node000001_Node000005" class="edge">
<title>Node1&#45;&gt;Node5</title>
<g id="a_edge4_Node000001_Node000005"><a xlink:title=" ">
<path fill="none" stroke="#63b8ff" d="M185.5,-109.84C185.5,-102.21 185.5,-92.7 185.5,-84.45"/>
<polygon fill="#63b8ff" stroke="#63b8ff" points="189,-84.27 185.5,-74.27 182,-84.27 189,-84.27"/>
</a>
</g>
</g>
<!-- Node6 -->
<g id="Node000006" class="node">
<title>Node6</title>
<g id="a_Node000006"><a xlink:title=" ">
<polygon fill="#e0e0e0" stroke="#999999" points="283,-74 226,-74 226,-55 283,-55 283,-74"/>
<text text-anchor="middle" x="254.5" y="-62" font-family="Helvetica,sans-Serif" font-size="10.00">valarray</text>
</a>
</g>
</g>
<!-- Node1&#45;&gt;Node6 -->
<g id="edge5_Node000001_Node000006" class="edge">
<title>Node1&#45;&gt;Node6</title>
<g id="a_edge5_Node000001_Node000006"><a xlink:title=" ">
<path fill="none" stroke="#63b8ff" d="M202.2,-109.84C212.53,-101.09 225.78,-89.85 236.36,-80.88"/>
<polygon fill="#63b8ff" stroke="#63b8ff" points="238.8,-83.4 244.16,-74.27 234.27,-78.06 238.8,-83.4"/>
</a>
</g>
</g>
<!-- Node7 -->
<g id="Node000007" class="node">
<title>Node7</title>
<g id="a_Node000007"><a xlink:title=" ">
<polygon fill="#e0e0e0" stroke="#999999" points="348,-74 301,-74 301,-55 348,-55 348,-74"/>
<text text-anchor="middle" x="324.5" y="-62" font-family="Helvetica,sans-Serif" font-size="10.00">vector</text>
</a>
</g>
</g>
<!-- Node1&#45;&gt;Node7 -->
<g id="edge6_Node000001_Node000007" class="edge">
<title>Node1&#45;&gt;Node7</title>
<g id="a_edge6_Node000001_Node000007"><a xlink:title=" ">
<path fill="none" stroke="#63b8ff" d="M218.79,-109.99C241.88,-100.27 272.37,-87.44 294.66,-78.06"/>
<polygon fill="#63b8ff" stroke="#63b8ff" points="296.11,-81.24 303.97,-74.14 293.4,-74.79 296.11,-81.24"/>
</a>
</g>
</g>
<!-- Node8 -->
<g id="Node000008" class="node">
<title>Node8</title>
<g id="a_Node000008"><a xlink:href="round__robin_8hpp.html" target="_top" xlink:title="Round&#45;robin index helper for cyclic constraint scanning.">
<polygon fill="white" stroke="#666666" points="470.5,-74 366.5,-74 366.5,-55 470.5,-55 470.5,-74"/>
<text text-anchor="middle" x="418.5" y="-62" font-family="Helvetica,sans-Serif" font-size="10.00">../round_robin.hpp</text>
</a>
</g>
</g>
<!-- Node1&#45;&gt;Node8 -->
<g id="edge7_Node000001_Node000008" class="edge">
<title>Node1&#45;&gt;Node8</title>
<g id="a_edge7_Node000001_Node000008"><a xlink:title=" ">
<path fill="none" stroke="#63b8ff" d="M241.31,-109.99C282.04,-99.76 336.51,-86.09 374.25,-76.61"/>
<polygon fill="#63b8ff" stroke="#63b8ff" points="375.59,-79.88 384.43,-74.05 373.88,-73.09 375.59,-79.88"/>
</a>
</g>
</g>
<!-- Node8&#45;&gt;Node3 -->
<g id="edge8_Node000008_Node000003" class="edge">
<title>Node8&#45;&gt;Node3</title>
<g id="a_edge8_Node000008_Node000003"><a xlink:title=" ">
<path fill="none" stroke="#63b8ff" d="M390.87,-54.98C361.65,-45.98 315.41,-31.73 283.16,-21.8"/>
<polygon fill="#63b8ff" stroke="#63b8ff" points="283.8,-18.33 273.22,-18.73 281.74,-25.02 283.8,-18.33"/>
</a>
</g>
</g>
</g>
</svg>
