<?xml version="1.0" encoding="UTF-8" standalone="no"?>
<!DOCTYPE svg PUBLIC "-//W3C//DTD SVG 1.1//EN"
 "http://www.w3.org/Graphics/SVG/1.1/DTD/svg11.dtd">
<!-- Generated by graphviz version 2.43.0 (0)
 -->
<!-- Title: ellalgo/conjugate_gradient.hpp Pages: 1 -->
<svg width="440pt" height="137pt"
 viewBox="0.00 0.00 440.00 137.00" xmlns="http://www.w3.org/2000/svg" xmlns:xlink="http://www.w3.org/1999/xlink">
<g id="graph0" class="graph" transform="scale(1 1) rotate(0) translate(4 133)">
<title>ellalgo/conjugate_gradient.hpp</title>
<!-- Node1 -->
<g id="Node000001" class="node">
<title>Node1</title>
<g id="a_Node000001"><a xlink:title="Conjugate gradient method for solving linear systems.">
<polygon fill="#999999" stroke="#666666" points="232,-129 65,-129 65,-110 232,-110 232,-129"/>
<text text-anchor="middle" x="148.5" y="-117" font-family="Helvetica,sans-Serif" font-size="10.00">ellalgo/conjugate_gradient.hpp</text>
</a>
</g>
</g>
<!-- Node2 -->
<g id="Node000002" class="node">
<title>Node2</title>
<g id="a_Node000002"><a xlink:title=" ">
<polygon fill="#e0e0e0" stroke="#999999" points="47,-74 0,-74 0,-55 47,-55 47,-74"/>
<text text-anchor="middle" x="23.5" y="-62" font-family="Helvetica,sans-Serif" font-size="10.00">cmath</text>
</a>
</g>
</g>
<!-- Node1&#45;&gt;Node2 -->
<g id="edge1_Node000001_Node000002" class="edge">
<title>Node1&#45;&gt;Node2</title>
<g id="a_edge1_Node000001_Node000002"><a xlink:title=" ">
<path fill="none" stroke="#63b8ff" d="M128.42,-109.98C108.13,-101.38 76.54,-87.99 53.33,-78.15"/>
<polygon fill="#63b8ff" stroke="#63b8ff" points="54.52,-74.85 43.95,-74.17 51.79,-81.3 54.52,-74.85"/>
</a>
</g>
</g>
<!-- Node3 -->
<g id="Node000003" class="node">
<title>Node3</title>
<g id="a_Node000003"><a xlink:title=" ">
<polygon fill="#e0e0e0" stroke="#999999" points="77,-19 12,-19 12,0 77,0 77,-19"/>
<text text-anchor="middle" x="44.5" y="-7" font-family="Helvetica,sans-Serif" font-size="10.00">stdexcept</text>
</a>
</g>
</g>
<!-- Node1&#45;&gt;Node3 -->
<g id="edge2_Node000001_Node000003" class="edge">
<title>Node1&#45;&gt;Node3</title>
<g id="a_edge2_Node000001_Node000003"><a xlink:title=" ">
<path fill="none" stroke="#63b8ff" d="M139.99,-109.66C122.46,-91.46 82.1,-49.55 59.88,-26.47"/>
<polygon fill="#63b8ff" stroke="#63b8ff" points="62.3,-23.93 52.84,-19.16 57.25,-28.79 62.3,-23.93"/>
</a>
</g>
</g>
<!-- Node4 -->
<g id="Node000004" class="node">
<title>Node4</title>
<g id="a_Node000004"><a xlink:title=" ">
<polygon fill="#e0e0e0" stroke="#999999" points="287.5,-74 243.5,-74 243.5,-55 287.5,-55 287.5,-74"/>
<text text-anchor="middle" x="265.5" y="-62" font-family="Helvetica,sans-Serif" font-size="10.00">string</text>
</a>
</g>
</g>
<!-- Node1&#45;&gt;Node4 -->
<g id="edge3_Node000001_Node000004" class="edge">
<title>Node1&#45;&gt;Node4</title>
<g id="a_edge3_Node000001_Node000004"><a xlink:title=" ">
<path fill="none" stroke="#63b8ff" d="M167.3,-109.98C186.12,-101.46 215.32,-88.23 237,-78.41"/>
<polygon fill="#63b8ff" stroke="#63b8ff" points="238.7,-81.48 246.36,-74.17 235.81,-75.11 238.7,-81.48"/>
</a>
</g>
</g>
<!-- Node5 -->
<g id="Node000005" class="node">
<title>Node5</title>
<g id="a_Node000005"><a xlink:title=" ">
<polygon fill="#e0e0e0" stroke="#999999" points="140,-19 95,-19 95,0 140,0 140,-19"/>
<text text-anchor="middle" x="117.5" y="-7" font-family="Helvetica,sans-Serif" font-size="10.00">utility</text>
</a>
</g>
</g>
<!-- Node1&#45;&gt;Node5 -->
<g id="edge4_Node000001_Node000005" class="edge">
<title>Node1&#45;&gt;Node5</title>
<g id="a_edge4_Node000001_Node000005"><a xlink:title=" ">
<path fill="none" stroke="#63b8ff" d="M145.01,-109.73C141.55,-100.83 136.24,-86.59 132.5,-74 128.06,-59.05 124.06,-41.81 121.31,-29.08"/>
<polygon fill="#63b8ff" stroke="#63b8ff" points="124.72,-28.27 119.23,-19.21 117.87,-29.72 124.72,-28.27"/>
</a>
</g>
</g>
<!-- Node6 -->
<g id="Node000006" class="node">
<title>Node6</title>
<g id="a_Node000006"><a xlink:title=" ">
<polygon fill="#e0e0e0" stroke="#999999" points="353,-74 306,-74 306,-55 353,-55 353,-74"/>
<text text-anchor="middle" x="329.5" y="-62" font-family="Helvetica,sans-Serif" font-size="10.00">vector</text>
</a>
</g>
</g>
<!-- Node1&#45;&gt;Node6 -->
<g id="edge5_Node000001_Node000006" class="edge">
<title>Node1&#45;&gt;Node6</title>
<g id="a_edge5_Node000001_Node000006"><a xlink:title=" ">
<path fill="none" stroke="#63b8ff" d="M177.58,-109.98C209.91,-100.52 262.04,-85.25 296.04,-75.3"/>
<polygon fill="#63b8ff" stroke="#63b8ff" points="297.36,-78.56 305.97,-72.39 295.39,-71.84 297.36,-78.56"/>
</a>
</g>
</g>
<!-- Node7 -->
<g id="Node000007" class="node">
<title>Node7</title>
<g id="a_Node000007"><a xlink:href="ell__config_8hpp.html" target="_top" xlink:title="Configuration types and constants for the ellipsoid algorithm.">
<polygon fill="white" stroke="#666666" points="225.5,-74 141.5,-74 141.5,-55 225.5,-55 225.5,-74"/>
<text text-anchor="middle" x="183.5" y="-62" font-family="Helvetica,sans-Serif" font-size="10.00">ell_config.hpp</text>
</a>
</g>
</g>
<!-- Node1&#45;&gt;Node7 -->
<g id="edge6_Node000001_Node000007" class="edge">
<title>Node1&#45;&gt;Node7</title>
<g id="a_edge6_Node000001_Node000007"><a xlink:title=" ">
<path fill="none" stroke="#63b8ff" d="M154.28,-109.75C159.12,-102.42 166.18,-91.73 172.14,-82.7"/>
<polygon fill="#63b8ff" stroke="#63b8ff" points="175.24,-84.36 177.83,-74.09 169.4,-80.5 175.24,-84.36"/>
</a>
</g>
</g>
<!-- Node7&#45;&gt;Node3 -->
<g id="edge9_Node000007_Node000003" class="edge">
<title>Node7&#45;&gt;Node3</title>
<g id="a_edge9_Node000007_Node000003"><a xlink:title=" ">
<path fill="none" stroke="#63b8ff" d="M161.17,-54.98C138.3,-46.27 102.54,-32.63 76.64,-22.75"/>
<polygon fill="#63b8ff" stroke="#63b8ff" points="77.83,-19.46 67.24,-19.17 75.34,-26 77.83,-19.46"/>
</a>
</g>
</g>
<!-- Node7&#45;&gt;Node5 -->
<g id="edge12_Node000007_Node000005" class="edge">
<title>Node7&#45;&gt;Node5</title>
<g id="a_edge12_Node000007_Node000005"><a xlink:title=" ">
<path fill="none" stroke="#63b8ff" d="M172.9,-54.98C163.04,-47.07 148.15,-35.11 136.28,-25.58"/>
<polygon fill="#63b8ff" stroke="#63b8ff" points="138.29,-22.7 128.3,-19.17 133.9,-28.16 138.29,-22.7"/>
</a>
</g>
</g>
<!-- Node8 -->
<g id="Node000008" class="node">
<title>Node8</title>
<g id="a_Node000008"><a xlink:title=" ">
<polygon fill="#e0e0e0" stroke="#999999" points="357,-19 304,-19 304,0 357,0 357,-19"/>
<text text-anchor="middle" x="330.5" y="-7" font-family="Helvetica,sans-Serif" font-size="10.00">cstddef</text>
</a>
</g>
</g>
<!-- Node7&#45;&gt;Node8 -->
<g id="edge7_Node000007_Node000008" class="edge">
<title>Node7&#45;&gt;Node8</title>
<g id="a_edge7_Node000007_Node000008"><a xlink:title=" ">
<path fill="none" stroke="#63b8ff" d="M207.12,-54.98C231.4,-46.23 269.45,-32.51 296.87,-22.62"/>
<polygon fill="#63b8ff" stroke="#63b8ff" points="298.23,-25.85 306.45,-19.17 295.86,-19.27 298.23,-25.85"/>
</a>
</g>
</g>
<!-- Node9 -->
<g id="Node000009" class="node">
<title>Node9</title>
<g id="a_Node000009"><a xlink:title=" ">
<polygon fill="#e0e0e0" stroke="#999999" points="432,-19 375,-19 375,0 432,0 432,-19"/>
<text text-anchor="middle" x="403.5" y="-7" font-family="Helvetica,sans-Serif" font-size="10.00">ostream</text>
</a>
</g>
</g>
<!-- Node7&#45;&gt;Node9 -->
<g id="edge8_Node000007_Node000009" class="edge">
<title>Node7&#45;&gt;Node9</title>
<g id="a_edge8_Node000007_Node000009"><a xlink:title=" ">
<path fill="none" stroke="#63b8ff" d="M218.85,-54.98C258.82,-45.35 323.7,-29.72 364.95,-19.79"/>
<polygon fill="#63b8ff" stroke="#63b8ff" points="366,-23.13 374.9,-17.39 364.36,-16.33 366,-23.13"/>
</a>
</g>
</g>
<!-- Node10 -->
<g id="Node000010" class="node">
<title>Node10</title>
<g id="a_Node000010"><a xlink:title=" ">
<polygon fill="#e0e0e0" stroke="#999999" points="199,-19 158,-19 158,0 199,0 199,-19"/>
<text text-anchor="middle" x="178.5" y="-7" font-family="Helvetica,sans-Serif" font-size="10.00">tuple</text>
</a>
</g>
</g>
<!-- Node7&#45;&gt;Node10 -->
<g id="edge10_Node000007_Node000010" class="edge">
<title>Node7&#45;&gt;Node10</title>
<g id="a_edge10_Node000007_Node000010"><a xlink:title=" ">
<path fill="none" stroke="#63b8ff" d="M182.67,-54.75C182.02,-47.8 181.08,-37.85 180.26,-29.13"/>
<polygon fill="#63b8ff" stroke="#63b8ff" points="183.73,-28.72 179.31,-19.09 176.77,-29.37 183.73,-28.72"/>
</a>
</g>
</g>
<!-- Node11 -->
<g id="Node000011" class="node">
<title>Node11</title>
<g id="a_Node000011"><a xlink:title=" ">
<polygon fill="#e0e0e0" stroke="#999999" points="286,-19 217,-19 217,0 286,0 286,-19"/>
<text text-anchor="middle" x="251.5" y="-7" font-family="Helvetica,sans-Serif" font-size="10.00">type_traits</text>
</a>
</g>
</g>
<!-- Node7&#45;&gt;Node11 -->
<g id="edge11_Node000007_Node000011" class="edge">
<title>Node7&#45;&gt;Node11</title>
<g id="a_edge11_Node000007_Node000011"><a xlink:title=" ">
<path fill="none" stroke="#63b8ff" d="M194.43,-54.98C204.58,-47.07 219.92,-35.11 232.15,-25.58"/>
<polygon fill="#63b8ff" stroke="#63b8ff" points="234.64,-28.08 240.38,-19.17 230.34,-22.56 234.64,-28.08"/>
</a>
</g>
</g>
</g>
</svg>
