<?xml version="1.0" encoding="UTF-8" standalone="no"?>
<!DOCTYPE svg PUBLIC "-//W3C//DTD SVG 1.1//EN"
 "http://www.w3.org/Graphics/SVG/1.1/DTD/svg11.dtd">
<!-- Generated by graphviz version 2.43.0 (0)
 -->
<!-- Title: ellalgo/cutting_plane.hpp Pages: 1 -->
<svg width="511pt" height="137pt"
 viewBox="0.00 0.00 510.50 137.00" xmlns="http://www.w3.org/2000/svg" xmlns:xlink="http://www.w3.org/1999/xlink">
<g id="graph0" class="graph" transform="scale(1 1) rotate(0) translate(4 133)">
<title>ellalgo/cutting_plane.hpp</title>
<!-- Node1 -->
<g id="Node000001" class="node">
<title>Node1</title>
<g id="a_Node000001"><a xlink:title="Cutting&#45;plane methods for convex feasibility and optimization.">
<polygon fill="#999999" stroke="#666666" points="250,-129 110,-129 110,-110 250,-110 250,-129"/>
<text text-anchor="middle" x="180" y="-117" font-family="Helvetica,sans-Serif" font-size="10.00">ellalgo/cutting_plane.hpp</text>
</a>
</g>
</g>
<!-- Node2 -->
<g id="Node000002" class="node">
<title>Node2</title>
<g id="a_Node000002"><a xlink:title=" ">
<polygon fill="#e0e0e0" stroke="#999999" points="52,-74 0,-74 0,-55 52,-55 52,-74"/>
<text text-anchor="middle" x="26" y="-62" font-family="Helvetica,sans-Serif" font-size="10.00">cassert</text>
</a>
</g>
</g>
<!-- Node1&#45;&gt;Node2 -->
<g id="edge1_Node000001_Node000002" class="edge">
<title>Node1&#45;&gt;Node2</title>
<g id="a_edge1_Node000001_Node000002"><a xlink:title=" ">
<path fill="none" stroke="#63b8ff" d="M155.26,-109.98C129.63,-101.16 89.37,-87.31 60.59,-77.41"/>
<polygon fill="#63b8ff" stroke="#63b8ff" points="61.53,-74.03 50.94,-74.08 59.25,-80.65 61.53,-74.03"/>
</a>
</g>
</g>
<!-- Node3 -->
<g id="Node000003" class="node">
<title>Node3</title>
<g id="a_Node000003"><a xlink:title=" ">
<polygon fill="#e0e0e0" stroke="#999999" points="117.5,-74 70.5,-74 70.5,-55 117.5,-55 117.5,-74"/>
<text text-anchor="middle" x="94" y="-62" font-family="Helvetica,sans-Serif" font-size="10.00">cmath</text>
</a>
</g>
</g>
<!-- Node1&#45;&gt;Node3 -->
<g id="edge2_Node000001_Node000003" class="edge">
<title>Node1&#45;&gt;Node3</title>
<g id="a_edge2_Node000001_Node000003"><a xlink:title=" ">
<path fill="none" stroke="#63b8ff" d="M166.18,-109.98C152.85,-101.77 132.42,-89.18 116.69,-79.49"/>
<polygon fill="#63b8ff" stroke="#63b8ff" points="118.42,-76.44 108.07,-74.17 114.75,-82.4 118.42,-76.44"/>
</a>
</g>
</g>
<!-- Node4 -->
<g id="Node000004" class="node">
<title>Node4</title>
<g id="a_Node000004"><a xlink:title=" ">
<polygon fill="#e0e0e0" stroke="#999999" points="176.5,-74 135.5,-74 135.5,-55 176.5,-55 176.5,-74"/>
<text text-anchor="middle" x="156" y="-62" font-family="Helvetica,sans-Serif" font-size="10.00">tuple</text>
</a>
</g>
</g>
<!-- Node1&#45;&gt;Node4 -->
<g id="edge3_Node000001_Node000004" class="edge">
<title>Node1&#45;&gt;Node4</title>
<g id="a_edge3_Node000001_Node000004"><a xlink:title=" ">
<path fill="none" stroke="#63b8ff" d="M176.04,-109.75C172.79,-102.57 168.08,-92.18 164.05,-83.27"/>
<polygon fill="#63b8ff" stroke="#63b8ff" points="167.2,-81.75 159.89,-74.09 160.83,-84.64 167.2,-81.75"/>
</a>
</g>
</g>
<!-- Node5 -->
<g id="Node000005" class="node">
<title>Node5</title>
<g id="a_Node000005"><a xlink:title=" ">
<polygon fill="#e0e0e0" stroke="#999999" points="259.5,-19 190.5,-19 190.5,0 259.5,0 259.5,-19"/>
<text text-anchor="middle" x="225" y="-7" font-family="Helvetica,sans-Serif" font-size="10.00">type_traits</text>
</a>
</g>
</g>
<!-- Node1&#45;&gt;Node5 -->
<g id="edge4_Node000001_Node000005" class="edge">
<title>Node1&#45;&gt;Node5</title>
<g id="a_edge4_Node000001_Node000005"><a xlink:title=" ">
<path fill="none" stroke="#63b8ff" d="M183.68,-109.66C191.04,-92.01 207.67,-52.09 217.44,-28.64"/>
<polygon fill="#63b8ff" stroke="#63b8ff" points="220.78,-29.74 221.39,-19.16 214.32,-27.04 220.78,-29.74"/>
</a>
</g>
</g>
<!-- Node6 -->
<g id="Node000006" class="node">
<title>Node6</title>
<g id="a_Node000006"><a xlink:href="ell__config_8hpp.html" target="_top" xlink:title="Configuration types and constants for the ellipsoid algorithm.">
<polygon fill="white" stroke="#666666" points="457,-74 373,-74 373,-55 457,-55 457,-74"/>
<text text-anchor="middle" x="415" y="-62" font-family="Helvetica,sans-Serif" font-size="10.00">ell_config.hpp</text>
</a>
</g>
</g>
<!-- Node1&#45;&gt;Node6 -->
<g id="edge5_Node000001_Node000006" class="edge">
<title>Node1&#45;&gt;Node6</title>
<g id="a_edge5_Node000001_Node000006"><a xlink:title=" ">
<path fill="none" stroke="#63b8ff" d="M217.76,-109.98C258.32,-100.84 322.89,-86.27 367.03,-76.32"/>
<polygon fill="#63b8ff" stroke="#63b8ff" points="367.96,-79.7 376.95,-74.08 366.42,-72.87 367.96,-79.7"/>
</a>
</g>
</g>
<!-- Node10 -->
<g id="Node000010" class="node">
<title>Node10</title>
<g id="a_Node000010"><a xlink:href="half__nonnegative_8hpp.html" target="_top" xlink:title="Utility functions for computing half of non&#45;negative numbers.">
<polygon fill="white" stroke="#666666" points="355,-74 233,-74 233,-55 355,-55 355,-74"/>
<text text-anchor="middle" x="294" y="-62" font-family="Helvetica,sans-Serif" font-size="10.00">half_nonnegative.hpp</text>
</a>
</g>
</g>
<!-- Node1&#45;&gt;Node10 -->
<g id="edge9_Node000001_Node000010" class="edge">
<title>Node1&#45;&gt;Node10</title>
<g id="a_edge9_Node000001_Node000010"><a xlink:title=" ">
<path fill="none" stroke="#63b8ff" d="M198.32,-109.98C216.66,-101.46 245.11,-88.23 266.23,-78.41"/>
<polygon fill="#63b8ff" stroke="#63b8ff" points="267.76,-81.56 275.35,-74.17 264.81,-75.21 267.76,-81.56"/>
</a>
</g>
</g>
<!-- Node7 -->
<g id="Node000007" class="node">
<title>Node7</title>
<g id="a_Node000007"><a xlink:title=" ">
<polygon fill="#e0e0e0" stroke="#999999" points="427.5,-19 374.5,-19 374.5,0 427.5,0 427.5,-19"/>
<text text-anchor="middle" x="401" y="-7" font-family="Helvetica,sans-Serif" font-size="10.00">cstddef</text>
</a>
</g>
</g>
<!-- Node6&#45;&gt;Node7 -->
<g id="edge6_Node000006_Node000007" class="edge">
<title>Node6&#45;&gt;Node7</title>
<g id="a_edge6_Node000006_Node000007"><a xlink:title=" ">
<path fill="none" stroke="#63b8ff" d="M412.69,-54.75C410.83,-47.72 408.16,-37.62 405.85,-28.84"/>
<polygon fill="#63b8ff" stroke="#63b8ff" points="409.21,-27.86 403.27,-19.09 402.44,-29.65 409.21,-27.86"/>
</a>
</g>
</g>
<!-- Node8 -->
<g id="Node000008" class="node">
<title>Node8</title>
<g id="a_Node000008"><a xlink:title=" ">
<polygon fill="#e0e0e0" stroke="#999999" points="502.5,-19 445.5,-19 445.5,0 502.5,0 502.5,-19"/>
<text text-anchor="middle" x="474" y="-7" font-family="Helvetica,sans-Serif" font-size="10.00">ostream</text>
</a>
</g>
</g>
<!-- Node6&#45;&gt;Node8 -->
<g id="edge7_Node000006_Node000008" class="edge">
<title>Node6&#45;&gt;Node8</title>
<g id="a_edge7_Node000006_Node000008"><a xlink:title=" ">
<path fill="none" stroke="#63b8ff" d="M424.48,-54.98C433.2,-47.15 446.34,-35.34 456.9,-25.86"/>
<polygon fill="#63b8ff" stroke="#63b8ff" points="459.25,-28.46 464.35,-19.17 454.57,-23.25 459.25,-28.46"/>
</a>
</g>
</g>
<!-- Node9 -->
<g id="Node000009" class="node">
<title>Node9</title>
<g id="a_Node000009"><a xlink:title=" ">
<polygon fill="#e0e0e0" stroke="#999999" points="329.5,-19 284.5,-19 284.5,0 329.5,0 329.5,-19"/>
<text text-anchor="middle" x="307" y="-7" font-family="Helvetica,sans-Serif" font-size="10.00">utility</text>
</a>
</g>
</g>
<!-- Node6&#45;&gt;Node9 -->
<g id="edge8_Node000006_Node000009" class="edge">
<title>Node6&#45;&gt;Node9</title>
<g id="a_edge8_Node000006_Node000009"><a xlink:title=" ">
<path fill="none" stroke="#63b8ff" d="M397.65,-54.98C380.43,-46.54 353.8,-33.47 333.85,-23.68"/>
<polygon fill="#63b8ff" stroke="#63b8ff" points="335.19,-20.43 324.67,-19.17 332.1,-26.72 335.19,-20.43"/>
</a>
</g>
</g>
<!-- Node10&#45;&gt;Node5 -->
<g id="edge10_Node000010_Node000005" class="edge">
<title>Node10&#45;&gt;Node5</title>
<g id="a_edge10_Node000010_Node000005"><a xlink:title=" ">
<path fill="none" stroke="#63b8ff" d="M282.91,-54.98C272.51,-47 256.74,-34.88 244.28,-25.31"/>
<polygon fill="#63b8ff" stroke="#63b8ff" points="246.35,-22.49 236.29,-19.17 242.09,-28.04 246.35,-22.49"/>
</a>
</g>
</g>
<!-- Node10&#45;&gt;Node9 -->
<g id="edge11_Node000010_Node000009" class="edge">
<title>Node10&#45;&gt;Node9</title>
<g id="a_edge11_Node000010_Node000009"><a xlink:title=" ">
<path fill="none" stroke="#63b8ff" d="M296.15,-54.75C297.87,-47.72 300.35,-37.62 302.5,-28.84"/>
<polygon fill="#63b8ff" stroke="#63b8ff" points="305.91,-29.63 304.89,-19.09 299.11,-27.97 305.91,-29.63"/>
</a>
</g>
</g>
</g>
</svg>
