<?xml version="1.0" encoding="UTF-8" standalone="no"?>
<!DOCTYPE svg PUBLIC "-//W3C//DTD SVG 1.1//EN"
 "http://www.w3.org/Graphics/SVG/1.1/DTD/svg11.dtd">
<!-- Generated by graphviz version 2.43.0 (0)
 -->
<!-- Title: ellipsoid_core Pages: 1 -->
<svg width="1040pt" height="97pt"
 viewBox="0.00 0.00 1040.00 96.50" xmlns="http://www.w3.org/2000/svg" xmlns:xlink="http://www.w3.org/1999/xlink">
<g id="graph0" class="graph" transform="scale(1 1) rotate(0) translate(4 92.5)">
<title>ellipsoid_core</title>
<!-- ell -->
<g id="node1" class="node">
<title>ell</title>
<polygon fill="#a9cce3" stroke="black" points="79,-38 0,-38 0,0 79,0 79,-38"/>
<text text-anchor="middle" x="39.5" y="-22.8" font-family="Times,serif" font-size="14.00">Ellipsoid</text>
<text text-anchor="middle" x="39.5" y="-7.8" font-family="Times,serif" font-size="14.00">Q, kappa</text>
</g>
<!-- oracle -->
<g id="node2" class="node">
<title>oracle</title>
<polygon fill="#fadbd8" stroke="black" points="249,-77 116,-77 116,-39 249,-39 249,-77"/>
<text text-anchor="middle" x="182.5" y="-61.8" font-family="Times,serif" font-size="14.00">Oracle</text>
<text text-anchor="middle" x="182.5" y="-46.8" font-family="Times,serif" font-size="14.00">cut = assess(xc)</text>
</g>
<!-- ell&#45;&gt;oracle -->
<g id="edge1" class="edge">
<title>ell&#45;&gt;oracle</title>
<path fill="none" stroke="black" d="M79.03,-29.66C87.5,-32 96.76,-34.56 106.12,-37.15"/>
<polygon fill="black" stroke="black" points="105.33,-40.56 115.9,-39.86 107.2,-33.82 105.33,-40.56"/>
</g>
<!-- calc -->
<g id="node3" class="node">
<title>calc</title>
<polygon fill="#d4e6f1" stroke="black" points="448,-88.5 335,-88.5 335,-35.5 448,-35.5 448,-88.5"/>
<text text-anchor="middle" x="391.5" y="-73.3" font-family="Times,serif" font-size="14.00">Compute</text>
<text text-anchor="middle" x="391.5" y="-58.3" font-family="Times,serif" font-size="14.00">g_tilde = Q*g</text>
<text text-anchor="middle" x="391.5" y="-43.3" font-family="Times,serif" font-size="14.00">omega, tsq</text>
</g>
<!-- oracle&#45;&gt;calc -->
<g id="edge2" class="edge">
<title>oracle&#45;&gt;calc</title>
<path fill="none" stroke="black" d="M249.28,-59.27C273.42,-59.74 300.72,-60.27 324.85,-60.73"/>
<polygon fill="black" stroke="black" points="324.91,-64.23 334.97,-60.93 325.04,-57.23 324.91,-64.23"/>
<text text-anchor="middle" x="292" y="-63.8" font-family="Times,serif" font-size="14.00">g, beta</text>
</g>
<!-- cut -->
<g id="node4" class="node">
<title>cut</title>
<polygon fill="#f9e79f" stroke="black" points="646,-81 546,-81 546,-43 646,-43 646,-81"/>
<text text-anchor="middle" x="596" y="-65.8" font-family="Times,serif" font-size="14.00">Cut params</text>
<text text-anchor="middle" x="596" y="-50.8" font-family="Times,serif" font-size="14.00">(beta, tsq)</text>
</g>
<!-- calc&#45;&gt;cut -->
<g id="edge3" class="edge">
<title>calc&#45;&gt;cut</title>
<path fill="none" stroke="black" d="M448.1,-62C475.2,-62 507.81,-62 535.42,-62"/>
<polygon fill="black" stroke="black" points="535.74,-65.5 545.74,-62 535.74,-58.5 535.74,-65.5"/>
</g>
<!-- rank1 -->
<g id="node5" class="node">
<title>rank1</title>
<polygon fill="#d5f5e3" stroke="black" points="850,-88.5 683,-88.5 683,-35.5 850,-35.5 850,-88.5"/>
<text text-anchor="middle" x="766.5" y="-73.3" font-family="Times,serif" font-size="14.00">Update</text>
<text text-anchor="middle" x="766.5" y="-58.3" font-family="Times,serif" font-size="14.00">Q &#45;= (s/w) Q g g^T Q</text>
<text text-anchor="middle" x="766.5" y="-43.3" font-family="Times,serif" font-size="14.00">kappa *= delta</text>
</g>
<!-- cut&#45;&gt;rank1 -->
<g id="edge4" class="edge">
<title>cut&#45;&gt;rank1</title>
<path fill="none" stroke="black" d="M646.19,-62C654.68,-62 663.75,-62 672.95,-62"/>
<polygon fill="black" stroke="black" points="672.96,-65.5 682.96,-62 672.96,-58.5 672.96,-65.5"/>
</g>
<!-- move -->
<g id="node6" class="node">
<title>move</title>
<polygon fill="#d5f5e3" stroke="black" points="1032,-38 887,-38 887,0 1032,0 1032,-38"/>
<text text-anchor="middle" x="959.5" y="-22.8" font-family="Times,serif" font-size="14.00">Move</text>
<text text-anchor="middle" x="959.5" y="-7.8" font-family="Times,serif" font-size="14.00">xc &#45;= r/w * g_tilde</text>
</g>
<!-- rank1&#45;&gt;move -->
<g id="edge5" class="edge">
<title>rank1&#45;&gt;move</title>
<path fill="none" stroke="black" d="M850.16,-43.39C859.03,-41.39 868.04,-39.36 876.89,-37.37"/>
<polygon fill="black" stroke="black" points="877.81,-40.75 886.8,-35.14 876.28,-33.92 877.81,-40.75"/>
</g>
<!-- move&#45;&gt;ell -->
<g id="edge6" class="edge">
<title>move&#45;&gt;ell</title>
<path fill="none" stroke="#000000" stroke-dasharray="5,2" d="M886.91,-12.37C851.09,-9.59 807.04,-7 767.5,-7 181.5,-7 181.5,-7 181.5,-7 150.67,-7 116.2,-9.88 89.05,-12.82"/>
<polygon fill="#000000" stroke="#000000" points="88.57,-9.35 79.03,-13.95 89.35,-16.31 88.57,-9.35"/>
<text text-anchor="middle" x="497" y="-10.8" font-family="Times,serif" font-size="14.00">next iter</text>
</g>
</g>
</svg>
