<?xml version="1.0" encoding="UTF-8" standalone="no"?>
<!DOCTYPE svg PUBLIC "-//W3C//DTD SVG 1.1//EN"
 "http://www.w3.org/Graphics/SVG/1.1/DTD/svg11.dtd">
<!-- Generated by graphviz version 2.43.0 (0)
 -->
<!-- Title: stable_q_update Pages: 1 -->
<svg width="184pt" height="442pt"
 viewBox="0.00 0.00 183.50 442.00" xmlns="http://www.w3.org/2000/svg" xmlns:xlink="http://www.w3.org/1999/xlink">
<g id="graph0" class="graph" transform="scale(1 1) rotate(0) translate(4 438)">
<title>stable_q_update</title>
<!-- cut -->
<g id="node1" class="node">
<title>cut</title>
<polygon fill="#a9cce3" stroke="black" points="137.5,-434 36.5,-434 36.5,-398 137.5,-398 137.5,-434"/>
<text text-anchor="middle" x="87" y="-412.3" font-family="Times,serif" font-size="14.00">Cut: g, beta</text>
</g>
<!-- ldlt -->
<g id="node2" class="node">
<title>ldlt</title>
<polygon fill="#d4e6f1" stroke="black" points="164.5,-361 9.5,-361 9.5,-308 164.5,-308 164.5,-361"/>
<text text-anchor="middle" x="87" y="-345.8" font-family="Times,serif" font-size="14.00">LDL^T update</text>
<text text-anchor="middle" x="87" y="-330.8" font-family="Times,serif" font-size="14.00">Q += sigma/omega</text>
<text text-anchor="middle" x="87" y="-315.8" font-family="Times,serif" font-size="14.00">* Q*g*g^T*Q</text>
</g>
<!-- cut&#45;&gt;ldlt -->
<g id="edge1" class="edge">
<title>cut&#45;&gt;ldlt</title>
<path fill="none" stroke="black" d="M87,-397.75C87,-389.99 87,-380.51 87,-371.32"/>
<polygon fill="black" stroke="black" points="90.5,-371.18 87,-361.18 83.5,-371.18 90.5,-371.18"/>
</g>
<!-- kappa -->
<g id="node3" class="node">
<title>kappa</title>
<polygon fill="#d4e6f1" stroke="black" points="148.5,-271 25.5,-271 25.5,-235 148.5,-235 148.5,-271"/>
<text text-anchor="middle" x="87" y="-249.3" font-family="Times,serif" font-size="14.00">kappa *= delta</text>
</g>
<!-- ldlt&#45;&gt;kappa -->
<g id="edge2" class="edge">
<title>ldlt&#45;&gt;kappa</title>
<path fill="none" stroke="black" d="M87,-307.91C87,-299.48 87,-290.08 87,-281.52"/>
<polygon fill="black" stroke="black" points="90.5,-281.26 87,-271.26 83.5,-281.26 90.5,-281.26"/>
</g>
<!-- xc -->
<g id="node4" class="node">
<title>xc</title>
<polygon fill="#d4e6f1" stroke="black" points="124,-198 50,-198 50,-162 124,-162 124,-198"/>
<text text-anchor="middle" x="87" y="-176.3" font-family="Times,serif" font-size="14.00">x_c &#45;= g</text>
</g>
<!-- kappa&#45;&gt;xc -->
<g id="edge3" class="edge">
<title>kappa&#45;&gt;xc</title>
<path fill="none" stroke="black" d="M87,-234.81C87,-226.79 87,-217.05 87,-208.07"/>
<polygon fill="black" stroke="black" points="90.5,-208.03 87,-198.03 83.5,-208.03 90.5,-208.03"/>
</g>
<!-- check -->
<g id="node5" class="node">
<title>check</title>
<polygon fill="#f9e79f" stroke="black" points="87,-125 12.6,-107 87,-89 161.4,-107 87,-125"/>
<text text-anchor="middle" x="87" y="-103.3" font-family="Times,serif" font-size="14.00">Success?</text>
</g>
<!-- xc&#45;&gt;check -->
<g id="edge4" class="edge">
<title>xc&#45;&gt;check</title>
<path fill="none" stroke="black" d="M87,-161.81C87,-153.79 87,-144.05 87,-135.07"/>
<polygon fill="black" stroke="black" points="90.5,-135.03 87,-125.03 83.5,-135.03 90.5,-135.03"/>
</g>
<!-- done -->
<g id="node6" class="node">
<title>done</title>
<polygon fill="#7fb3d8" stroke="black" points="78,-38 0,-38 0,0 78,0 78,-38"/>
<text text-anchor="middle" x="39" y="-22.8" font-family="Times,serif" font-size="14.00">Updated</text>
<text text-anchor="middle" x="39" y="-7.8" font-family="Times,serif" font-size="14.00">ellipsoid</text>
</g>
<!-- check&#45;&gt;done -->
<g id="edge5" class="edge">
<title>check&#45;&gt;done</title>
<path fill="none" stroke="#27ae60" d="M78.64,-91.02C71.9,-78.94 62.24,-61.63 54.14,-47.13"/>
<polygon fill="#27ae60" stroke="#27ae60" points="57.03,-45.11 49.1,-38.09 50.91,-48.53 57.03,-45.11"/>
<text text-anchor="middle" x="80.5" y="-59.8" font-family="Times,serif" font-size="14.00">Yes</text>
</g>
<!-- fail -->
<g id="node7" class="node">
<title>fail</title>
<polygon fill="#fadbd8" stroke="black" points="175.5,-37 96.5,-37 96.5,-1 175.5,-1 175.5,-37"/>
<text text-anchor="middle" x="136" y="-15.3" font-family="Times,serif" font-size="14.00">NoEffect</text>
</g>
<!-- check&#45;&gt;fail -->
<g id="edge6" class="edge">
<title>check&#45;&gt;fail</title>
<path fill="none" stroke="#e74c3c" d="M95.54,-91.02C102.62,-78.59 112.86,-60.62 121.26,-45.86"/>
<polygon fill="#e74c3c" stroke="#e74c3c" points="124.31,-47.59 126.22,-37.17 118.22,-44.13 124.31,-47.59"/>
<text text-anchor="middle" x="124.5" y="-59.8" font-family="Times,serif" font-size="14.00">No</text>
</g>
</g>
</svg>
