<?xml version="1.0" encoding="UTF-8" standalone="no"?>
<!DOCTYPE svg PUBLIC "-//W3C//DTD SVG 1.1//EN"
 "http://www.w3.org/Graphics/SVG/1.1/DTD/svg11.dtd">
<!-- Generated by graphviz version 2.43.0 (0)
 -->
<!-- Title: cg_iteration Pages: 1 -->
<svg width="421pt" height="388pt"
 viewBox="0.00 0.00 420.94 388.00" xmlns="http://www.w3.org/2000/svg" xmlns:xlink="http://www.w3.org/1999/xlink">
<g id="graph0" class="graph" transform="scale(1 1) rotate(0) translate(4 384)">
<title>cg_iteration</title>
<!-- start -->
<g id="node1" class="node">
<title>start</title>
<polygon fill="#a9cce3" stroke="black" points="287.44,-380 155.44,-380 155.44,-327 287.44,-327 287.44,-380"/>
<text text-anchor="middle" x="221.44" y="-364.8" font-family="Times,serif" font-size="14.00">x_0 initial guess</text>
<text text-anchor="middle" x="221.44" y="-349.8" font-family="Times,serif" font-size="14.00">r_0 = b &#45; A*x_0</text>
<text text-anchor="middle" x="221.44" y="-334.8" font-family="Times,serif" font-size="14.00">d_0 = r_0</text>
</g>
<!-- alpha -->
<g id="node2" class="node">
<title>alpha</title>
<polygon fill="#d4e6f1" stroke="black" points="291.44,-290 151.44,-290 151.44,-252 291.44,-252 291.44,-290"/>
<text text-anchor="middle" x="221.44" y="-274.8" font-family="Times,serif" font-size="14.00">alpha_k = r_k·r_k</text>
<text text-anchor="middle" x="221.44" y="-259.8" font-family="Times,serif" font-size="14.00">/ d_k·A·d_k</text>
</g>
<!-- start&#45;&gt;alpha -->
<g id="edge1" class="edge">
<title>start&#45;&gt;alpha</title>
<path fill="none" stroke="black" d="M221.44,-326.59C221.44,-318.31 221.44,-309.11 221.44,-300.65"/>
<polygon fill="black" stroke="black" points="224.94,-300.47 221.44,-290.47 217.94,-300.47 224.94,-300.47"/>
</g>
<!-- update -->
<g id="node3" class="node">
<title>update</title>
<polygon fill="#d4e6f1" stroke="black" points="257.44,-215 37.44,-215 37.44,-177 257.44,-177 257.44,-215"/>
<text text-anchor="middle" x="147.44" y="-199.8" font-family="Times,serif" font-size="14.00">x_{k+1} = x_k + alpha*d_k</text>
<text text-anchor="middle" x="147.44" y="-184.8" font-family="Times,serif" font-size="14.00">r_{k+1} = r_k &#45; alpha*A*d_k</text>
</g>
<!-- alpha&#45;&gt;update -->
<g id="edge2" class="edge">
<title>alpha&#45;&gt;update</title>
<path fill="none" stroke="black" d="M203.15,-251.96C194.08,-243.01 182.97,-232.05 173.06,-222.28"/>
<polygon fill="black" stroke="black" points="175.35,-219.62 165.78,-215.09 170.44,-224.6 175.35,-219.62"/>
</g>
<!-- check -->
<g id="node4" class="node">
<title>check</title>
<polygon fill="#f9e79f" stroke="black" points="131.44,-140 0.06,-122 131.44,-104 262.82,-122 131.44,-140"/>
<text text-anchor="middle" x="131.44" y="-118.3" font-family="Times,serif" font-size="14.00">||r_{k+1}|| &lt; tol?</text>
</g>
<!-- update&#45;&gt;check -->
<g id="edge3" class="edge">
<title>update&#45;&gt;check</title>
<path fill="none" stroke="black" d="M143.4,-176.83C141.59,-168.69 139.42,-158.91 137.43,-149.94"/>
<polygon fill="black" stroke="black" points="140.79,-148.93 135.2,-139.93 133.95,-150.45 140.79,-148.93"/>
</g>
<!-- beta -->
<g id="node5" class="node">
<title>beta</title>
<polygon fill="#d4e6f1" stroke="black" points="412.94,-53 167.94,-53 167.94,0 412.94,0 412.94,-53"/>
<text text-anchor="middle" x="290.44" y="-37.8" font-family="Times,serif" font-size="14.00">beta_k = r_{k+1}·r_{k+1}</text>
<text text-anchor="middle" x="290.44" y="-22.8" font-family="Times,serif" font-size="14.00">/ r_k·r_k</text>
<text text-anchor="middle" x="290.44" y="-7.8" font-family="Times,serif" font-size="14.00">d_{k+1} = r_{k+1} + beta*d_k</text>
</g>
<!-- check&#45;&gt;beta -->
<g id="edge5" class="edge">
<title>check&#45;&gt;beta</title>
<path fill="none" stroke="#e74c3c" d="M154.9,-107.2C176.73,-94.37 210.02,-74.79 238.14,-58.25"/>
<polygon fill="#e74c3c" stroke="#e74c3c" points="240.22,-61.09 247.07,-53 236.68,-55.05 240.22,-61.09"/>
<text text-anchor="middle" x="225.94" y="-74.8" font-family="Times,serif" font-size="14.00">No</text>
</g>
<!-- done -->
<g id="node6" class="node">
<title>done</title>
<polygon fill="#7fb3d8" stroke="black" points="100.52,-8.55 103.88,-8.65 107.2,-8.8 110.48,-8.99 113.7,-9.24 116.84,-9.53 119.89,-9.86 122.85,-10.25 125.7,-10.68 128.42,-11.15 131.02,-11.66 133.47,-12.21 135.78,-12.81 137.93,-13.44 139.93,-14.11 141.75,-14.81 143.4,-15.54 144.88,-16.3 146.18,-17.09 147.31,-17.91 148.25,-18.75 149.01,-19.61 149.6,-20.49 150,-21.39 150.24,-22.3 150.3,-23.22 150.2,-24.15 149.93,-25.09 149.51,-26.03 148.94,-26.97 148.22,-27.91 147.37,-28.85 146.38,-29.78 145.27,-30.7 144.05,-31.61 142.71,-32.51 141.28,-33.39 139.75,-34.25 138.14,-35.09 136.44,-35.91 134.67,-36.7 132.84,-37.46 130.95,-38.19 129.01,-38.89 127.01,-39.56 124.98,-40.19 122.91,-40.79 120.81,-41.34 118.68,-41.85 116.53,-42.32 114.35,-42.75 112.16,-43.14 109.96,-43.47 107.74,-43.76 105.52,-44.01 103.28,-44.2 101.05,-44.35 98.81,-44.45 96.56,-44.5 94.32,-44.5 92.07,-44.45 89.83,-44.35 87.59,-44.2 85.36,-44.01 83.14,-43.76 80.92,-43.47 78.72,-43.14 76.53,-42.75 74.35,-42.32 72.2,-41.85 70.07,-41.34 67.97,-40.79 65.9,-40.19 63.87,-39.56 61.87,-38.89 59.93,-38.19 58.04,-37.46 56.2,-36.7 54.44,-35.91 52.74,-35.09 51.13,-34.25 49.6,-33.39 48.17,-32.51 46.83,-31.61 45.61,-30.7 44.5,-29.78 43.51,-28.85 42.66,-27.91 41.94,-26.97 41.37,-26.03 40.95,-25.09 40.68,-24.15 40.58,-23.22 40.64,-22.3 40.88,-21.39 41.28,-20.49 41.87,-19.61 42.63,-18.75 43.57,-17.91 44.69,-17.09 46,-16.3 47.47,-15.54 49.13,-14.81 50.95,-14.11 52.94,-13.44 55.1,-12.81 57.41,-12.21 59.86,-11.66 62.46,-11.15 65.18,-10.68 68.03,-10.25 70.98,-9.86 74.04,-9.53 77.18,-9.24 80.4,-8.99 83.68,-8.8 87,-8.65 90.36,-8.55 93.74,-8.5 97.13,-8.5 100.52,-8.55"/>
<text text-anchor="middle" x="95.44" y="-22.8" font-family="Times,serif" font-size="14.00">Return x</text>
</g>
<!-- check&#45;&gt;done -->
<g id="edge4" class="edge">
<title>check&#45;&gt;done</title>
<path fill="none" stroke="#27ae60" d="M125.17,-104.71C119.8,-90.76 111.96,-70.4 105.68,-54.09"/>
<polygon fill="#27ae60" stroke="#27ae60" points="108.86,-52.62 102,-44.55 102.33,-55.14 108.86,-52.62"/>
<text text-anchor="middle" x="135.94" y="-74.8" font-family="Times,serif" font-size="14.00">Yes✓</text>
</g>
<!-- beta&#45;&gt;alpha -->
<g id="edge6" class="edge">
<title>beta&#45;&gt;alpha</title>
<path fill="none" stroke="black" d="M291.53,-53.23C292.16,-90.48 289.73,-160.89 266.44,-215 261.88,-225.58 254.66,-235.77 247.32,-244.43"/>
<polygon fill="black" stroke="black" points="244.68,-242.14 240.63,-251.93 249.9,-246.8 244.68,-242.14"/>
</g>
</g>
</svg>
