<?xml version="1.0" encoding="UTF-8" standalone="no"?>
<!DOCTYPE svg PUBLIC "-//W3C//DTD SVG 1.1//EN"
 "http://www.w3.org/Graphics/SVG/1.1/DTD/svg11.dtd">
<!-- Generated by graphviz version 2.43.0 (0)
 -->
<!-- Title: cutting_plane_feas Pages: 1 -->
<svg width="388pt" height="457pt"
 viewBox="0.00 0.00 387.73 457.00" xmlns="http://www.w3.org/2000/svg" xmlns:xlink="http://www.w3.org/1999/xlink">
<g id="graph0" class="graph" transform="scale(1 1) rotate(0) translate(4 453)">
<title>cutting_plane_feas</title>
<!-- xc -->
<g id="node1" class="node">
<title>xc</title>
<polygon fill="#d4e6f1" stroke="black" points="349.18,-449 206.18,-449 206.18,-413 349.18,-413 349.18,-449"/>
<text text-anchor="middle" x="277.68" y="-427.3" font-family="Times,serif" font-size="14.00">Current center xc</text>
</g>
<!-- oracle -->
<g id="node2" class="node">
<title>oracle</title>
<polygon fill="#a9cce3" stroke="black" points="284.18,-376 159.18,-376 159.18,-338 284.18,-338 284.18,-376"/>
<text text-anchor="middle" x="221.68" y="-360.8" font-family="Times,serif" font-size="14.00">Oracle</text>
<text text-anchor="middle" x="221.68" y="-345.8" font-family="Times,serif" font-size="14.00">assess_feas(xc)</text>
</g>
<!-- xc&#45;&gt;oracle -->
<g id="edge1" class="edge">
<title>xc&#45;&gt;oracle</title>
<path fill="none" stroke="black" d="M264.41,-412.94C257.75,-404.38 249.55,-393.83 242.11,-384.27"/>
<polygon fill="black" stroke="black" points="244.73,-381.94 235.83,-376.2 239.21,-386.24 244.73,-381.94"/>
</g>
<!-- feasible -->
<g id="node3" class="node">
<title>feasible</title>
<polygon fill="#d5f5e3" stroke="black" points="69.59,-250.05 73.5,-250.15 77.37,-250.3 81.19,-250.49 84.93,-250.74 88.59,-251.03 92.14,-251.36 95.58,-251.75 98.9,-252.18 102.07,-252.65 105.09,-253.16 107.95,-253.71 110.63,-254.31 113.14,-254.94 115.46,-255.61 117.58,-256.31 119.51,-257.04 121.23,-257.8 122.74,-258.59 124.05,-259.41 125.15,-260.25 126.03,-261.11 126.71,-261.99 127.19,-262.89 127.46,-263.8 127.53,-264.72 127.41,-265.65 127.1,-266.59 126.61,-267.53 125.95,-268.47 125.11,-269.41 124.12,-270.35 122.97,-271.28 121.68,-272.2 120.26,-273.11 118.7,-274.01 117.03,-274.89 115.25,-275.75 113.37,-276.59 111.4,-277.41 109.35,-278.2 107.21,-278.96 105.01,-279.69 102.75,-280.39 100.43,-281.06 98.06,-281.69 95.65,-282.29 93.21,-282.84 90.73,-283.35 88.22,-283.82 85.69,-284.25 83.14,-284.64 80.58,-284.97 78,-285.26 75.41,-285.51 72.81,-285.7 70.2,-285.85 67.6,-285.95 64.98,-286 62.37,-286 59.76,-285.95 57.15,-285.85 54.55,-285.7 51.95,-285.51 49.36,-285.26 46.78,-284.97 44.21,-284.64 41.66,-284.25 39.13,-283.82 36.63,-283.35 34.15,-282.84 31.7,-282.29 29.29,-281.69 26.93,-281.06 24.61,-280.39 22.34,-279.69 20.14,-278.96 18.01,-278.2 15.95,-277.41 13.98,-276.59 12.1,-275.75 10.32,-274.89 8.65,-274.01 7.1,-273.11 5.67,-272.2 4.38,-271.28 3.24,-270.35 2.24,-269.41 1.41,-268.47 0.74,-267.53 0.25,-266.59 -0.06,-265.65 -0.18,-264.72 -0.1,-263.8 0.17,-262.89 0.64,-261.99 1.32,-261.11 2.21,-260.25 3.31,-259.41 4.61,-258.59 6.13,-257.8 7.85,-257.04 9.77,-256.31 11.9,-255.61 14.21,-254.94 16.72,-254.31 19.41,-253.71 22.27,-253.16 25.29,-252.65 28.46,-252.18 31.77,-251.75 35.21,-251.36 38.77,-251.03 42.43,-250.74 46.17,-250.49 49.98,-250.3 53.86,-250.15 57.77,-250.05 61.71,-250 65.65,-250 69.59,-250.05"/>
<text text-anchor="middle" x="63.68" y="-264.3" font-family="Times,serif" font-size="14.00">Feasible ✓</text>
</g>
<!-- oracle&#45;&gt;feasible -->
<g id="edge2" class="edge">
<title>oracle&#45;&gt;feasible</title>
<path fill="none" stroke="#27ae60" d="M188.94,-337.97C162.74,-323.55 126.07,-303.35 99.17,-288.54"/>
<polygon fill="#27ae60" stroke="#27ae60" points="100.54,-285.3 90.1,-283.55 97.17,-291.44 100.54,-285.3"/>
<text text-anchor="middle" x="175.18" y="-308.8" font-family="Times,serif" font-size="14.00">no cut</text>
</g>
<!-- cut -->
<g id="node4" class="node">
<title>cut</title>
<polygon fill="#fadbd8" stroke="black" points="298.18,-287 145.18,-287 145.18,-249 298.18,-249 298.18,-287"/>
<text text-anchor="middle" x="221.68" y="-271.8" font-family="Times,serif" font-size="14.00">Cut</text>
<text text-anchor="middle" x="221.68" y="-256.8" font-family="Times,serif" font-size="14.00">g&#39;(x&#45;xc)+beta &lt;= 0</text>
</g>
<!-- oracle&#45;&gt;cut -->
<g id="edge3" class="edge">
<title>oracle&#45;&gt;cut</title>
<path fill="none" stroke="black" d="M221.68,-337.97C221.68,-326.19 221.68,-310.56 221.68,-297.16"/>
<polygon fill="black" stroke="black" points="225.18,-297 221.68,-287 218.18,-297 225.18,-297"/>
<text text-anchor="middle" x="247.68" y="-308.8" font-family="Times,serif" font-size="14.00">has cut</text>
</g>
<!-- result -->
<g id="node8" class="node">
<title>result</title>
<polygon fill="#7fb3d8" stroke="black" points="68.91,-161.05 72.37,-161.15 75.8,-161.3 79.17,-161.49 82.49,-161.74 85.72,-162.03 88.87,-162.36 91.91,-162.75 94.85,-163.18 97.65,-163.65 100.33,-164.16 102.86,-164.71 105.23,-165.31 107.45,-165.94 109.5,-166.61 111.38,-167.31 113.09,-168.04 114.61,-168.8 115.95,-169.59 117.11,-170.41 118.08,-171.25 118.86,-172.11 119.47,-172.99 119.89,-173.89 120.13,-174.8 120.19,-175.72 120.08,-176.65 119.81,-177.59 119.38,-178.53 118.79,-179.47 118.05,-180.41 117.17,-181.35 116.15,-182.28 115.01,-183.2 113.75,-184.11 112.38,-185.01 110.9,-185.89 109.32,-186.75 107.66,-187.59 105.91,-188.41 104.09,-189.2 102.21,-189.96 100.26,-190.69 98.26,-191.39 96.2,-192.06 94.11,-192.69 91.98,-193.29 89.81,-193.84 87.62,-194.35 85.4,-194.82 83.16,-195.25 80.9,-195.64 78.63,-195.97 76.35,-196.26 74.06,-196.51 71.76,-196.7 69.45,-196.85 67.14,-196.95 64.83,-197 62.52,-197 60.21,-196.95 57.9,-196.85 55.6,-196.7 53.3,-196.51 51,-196.26 48.72,-195.97 46.45,-195.64 44.19,-195.25 41.96,-194.82 39.74,-194.35 37.54,-193.84 35.38,-193.29 33.25,-192.69 31.15,-192.06 29.1,-191.39 27.1,-190.69 25.15,-189.96 23.26,-189.2 21.44,-188.41 19.69,-187.59 18.03,-186.75 16.46,-185.89 14.98,-185.01 13.6,-184.11 12.34,-183.2 11.2,-182.28 10.19,-181.35 9.31,-180.41 8.57,-179.47 7.98,-178.53 7.54,-177.59 7.27,-176.65 7.16,-175.72 7.23,-174.8 7.47,-173.89 7.89,-172.99 8.49,-172.11 9.28,-171.25 10.25,-170.41 11.4,-169.59 12.74,-168.8 14.27,-168.04 15.97,-167.31 17.85,-166.61 19.9,-165.94 22.12,-165.31 24.5,-164.71 27.03,-164.16 29.7,-163.65 32.51,-163.18 35.44,-162.75 38.49,-162.36 41.63,-162.03 44.87,-161.74 48.18,-161.49 51.56,-161.3 54.99,-161.15 58.45,-161.05 61.93,-161 65.42,-161 68.91,-161.05"/>
<text text-anchor="middle" x="63.68" y="-175.3" font-family="Times,serif" font-size="14.00">Solution!</text>
</g>
<!-- feasible&#45;&gt;result -->
<g id="edge8" class="edge">
<title>feasible&#45;&gt;result</title>
<path fill="none" stroke="#27ae60" d="M63.68,-249.81C63.68,-237.66 63.68,-221.11 63.68,-207.18"/>
<polygon fill="#27ae60" stroke="#27ae60" points="67.18,-207.15 63.68,-197.15 60.18,-207.15 67.18,-207.15"/>
<text text-anchor="middle" x="97.18" y="-219.8" font-family="Times,serif" font-size="14.00">return xc</text>
</g>
<!-- update -->
<g id="node5" class="node">
<title>update</title>
<polygon fill="#d4e6f1" stroke="black" points="283.18,-198 206.18,-198 206.18,-160 283.18,-160 283.18,-198"/>
<text text-anchor="middle" x="244.68" y="-182.8" font-family="Times,serif" font-size="14.00">Update</text>
<text text-anchor="middle" x="244.68" y="-167.8" font-family="Times,serif" font-size="14.00">ellipsoid</text>
</g>
<!-- cut&#45;&gt;update -->
<g id="edge4" class="edge">
<title>cut&#45;&gt;update</title>
<path fill="none" stroke="black" d="M226.44,-248.97C229.59,-237.08 233.77,-221.25 237.34,-207.76"/>
<polygon fill="black" stroke="black" points="240.75,-208.57 239.92,-198 233.98,-206.78 240.75,-208.57"/>
</g>
<!-- check -->
<g id="node6" class="node">
<title>check</title>
<polygon fill="#f9e79f" stroke="black" points="300.68,-123 221.58,-105 300.68,-87 379.77,-105 300.68,-123"/>
<text text-anchor="middle" x="300.68" y="-101.3" font-family="Times,serif" font-size="14.00">tsq &lt; tol?</text>
</g>
<!-- update&#45;&gt;check -->
<g id="edge5" class="edge">
<title>update&#45;&gt;check</title>
<path fill="none" stroke="black" d="M258.81,-159.83C266.2,-150.33 275.32,-138.61 283.15,-128.53"/>
<polygon fill="black" stroke="black" points="285.99,-130.58 289.37,-120.54 280.47,-126.28 285.99,-130.58"/>
</g>
<!-- check&#45;&gt;xc -->
<g id="edge6" class="edge">
<title>check&#45;&gt;xc</title>
<path fill="none" stroke="#e74c3c" stroke-dasharray="5,2" d="M312.19,-120.5C322.05,-134.42 334.68,-156.44 334.68,-178 334.68,-358 334.68,-358 334.68,-358 334.68,-376.66 322.77,-393.3 309.83,-405.88"/>
<polygon fill="#e74c3c" stroke="#e74c3c" points="307.25,-403.49 302.18,-412.8 311.95,-408.69 307.25,-403.49"/>
<text text-anchor="middle" x="345.18" y="-264.3" font-family="Times,serif" font-size="14.00">No</text>
</g>
<!-- fail -->
<g id="node7" class="node">
<title>fail</title>
<polygon fill="#fadbd8" stroke="black" points="303.41,-0.05 305.22,-0.15 307.01,-0.3 308.77,-0.49 310.5,-0.74 312.2,-1.03 313.84,-1.36 315.43,-1.75 316.96,-2.18 318.43,-2.65 319.83,-3.16 321.15,-3.71 322.39,-4.31 323.55,-4.94 324.62,-5.61 325.6,-6.31 326.49,-7.04 327.29,-7.8 327.99,-8.59 328.59,-9.41 329.1,-10.25 329.51,-11.11 329.83,-11.99 330.04,-12.89 330.17,-13.8 330.2,-14.72 330.15,-15.65 330.01,-16.59 329.78,-17.53 329.47,-18.47 329.08,-19.41 328.63,-20.35 328.09,-21.28 327.5,-22.2 326.84,-23.11 326.12,-24.01 325.35,-24.89 324.53,-25.75 323.66,-26.59 322.75,-27.41 321.79,-28.2 320.81,-28.96 319.79,-29.69 318.74,-30.39 317.67,-31.06 316.58,-31.69 315.46,-32.29 314.33,-32.84 313.19,-33.35 312.03,-33.82 310.86,-34.25 309.68,-34.64 308.49,-34.97 307.3,-35.26 306.1,-35.51 304.9,-35.7 303.7,-35.85 302.49,-35.95 301.28,-36 300.07,-36 298.87,-35.95 297.66,-35.85 296.46,-35.7 295.25,-35.51 294.06,-35.26 292.86,-34.97 291.68,-34.64 290.5,-34.25 289.33,-33.82 288.17,-33.35 287.02,-32.84 285.89,-32.29 284.78,-31.69 283.68,-31.06 282.61,-30.39 281.57,-29.69 280.55,-28.96 279.56,-28.2 278.61,-27.41 277.7,-26.59 276.83,-25.75 276.01,-24.89 275.23,-24.01 274.52,-23.11 273.86,-22.2 273.26,-21.28 272.73,-20.35 272.27,-19.41 271.88,-18.47 271.58,-17.53 271.35,-16.59 271.21,-15.65 271.15,-14.72 271.18,-13.8 271.31,-12.89 271.53,-11.99 271.84,-11.11 272.25,-10.25 272.76,-9.41 273.37,-8.59 274.07,-7.8 274.86,-7.04 275.75,-6.31 276.73,-5.61 277.81,-4.94 278.97,-4.31 280.21,-3.71 281.53,-3.16 282.93,-2.65 284.39,-2.18 285.92,-1.75 287.52,-1.36 289.16,-1.03 290.85,-0.74 292.58,-0.49 294.35,-0.3 296.14,-0.15 297.95,-0.05 299.77,0 301.59,0 303.41,-0.05"/>
<text text-anchor="middle" x="300.68" y="-14.3" font-family="Times,serif" font-size="14.00">Fail</text>
</g>
<!-- check&#45;&gt;fail -->
<g id="edge7" class="edge">
<title>check&#45;&gt;fail</title>
<path fill="none" stroke="#e74c3c" d="M300.68,-86.8C300.68,-75.16 300.68,-59.55 300.68,-46.24"/>
<polygon fill="#e74c3c" stroke="#e74c3c" points="304.18,-46.18 300.68,-36.18 297.18,-46.18 304.18,-46.18"/>
<text text-anchor="middle" x="313.18" y="-57.8" font-family="Times,serif" font-size="14.00">Yes</text>
</g>
</g>
</svg>
