<?xml version="1.0" encoding="UTF-8" standalone="no"?>
<!DOCTYPE svg PUBLIC "-//W3C//DTD SVG 1.1//EN"
 "http://www.w3.org/Graphics/SVG/1.1/DTD/svg11.dtd">
<!-- Generated by graphviz version 2.43.0 (0)
 -->
<!-- Title: cutting_plane_optim Pages: 1 -->
<svg width="264pt" height="568pt"
 viewBox="0.00 0.00 264.00 568.00" xmlns="http://www.w3.org/2000/svg" xmlns:xlink="http://www.w3.org/1999/xlink">
<g id="graph0" class="graph" transform="scale(1 1) rotate(0) translate(4 564)">
<title>cutting_plane_optim</title>
<!-- xc -->
<g id="node1" class="node">
<title>xc</title>
<polygon fill="#d4e6f1" stroke="black" points="215.5,-560 60.5,-560 60.5,-524 215.5,-524 215.5,-560"/>
<text text-anchor="middle" x="138" y="-538.3" font-family="Times,serif" font-size="14.00">Current xc, gamma</text>
</g>
<!-- oracle -->
<g id="node2" class="node">
<title>oracle</title>
<polygon fill="#a9cce3" stroke="black" points="166,-487 0,-487 0,-449 166,-449 166,-487"/>
<text text-anchor="middle" x="83" y="-471.8" font-family="Times,serif" font-size="14.00">Oracle assess_optim</text>
<text text-anchor="middle" x="83" y="-456.8" font-family="Times,serif" font-size="14.00">returns (cut, shrunk)</text>
</g>
<!-- xc&#45;&gt;oracle -->
<g id="edge1" class="edge">
<title>xc&#45;&gt;oracle</title>
<path fill="none" stroke="black" d="M124.97,-523.94C118.43,-515.38 110.37,-504.83 103.07,-495.27"/>
<polygon fill="black" stroke="black" points="105.75,-493.02 96.9,-487.2 100.19,-497.27 105.75,-493.02"/>
</g>
<!-- split -->
<g id="node3" class="node">
<title>split</title>
<polygon fill="#f9e79f" stroke="black" points="83,-412 14.96,-394 83,-376 151.04,-394 83,-412"/>
<text text-anchor="middle" x="83" y="-390.3" font-family="Times,serif" font-size="14.00">shrunk?</text>
</g>
<!-- oracle&#45;&gt;split -->
<g id="edge2" class="edge">
<title>oracle&#45;&gt;split</title>
<path fill="none" stroke="black" d="M83,-448.83C83,-440.89 83,-431.41 83,-422.63"/>
<polygon fill="black" stroke="black" points="86.5,-422.42 83,-412.42 79.5,-422.42 86.5,-422.42"/>
</g>
<!-- bias -->
<g id="node5" class="node">
<title>bias</title>
<polygon fill="#fadbd8" stroke="black" points="74.5,-254 1.5,-254 1.5,-216 74.5,-216 74.5,-254"/>
<text text-anchor="middle" x="38" y="-238.8" font-family="Times,serif" font-size="14.00">Update</text>
<text text-anchor="middle" x="38" y="-223.8" font-family="Times,serif" font-size="14.00">bias cut</text>
</g>
<!-- split&#45;&gt;bias -->
<g id="edge4" class="edge">
<title>split&#45;&gt;bias</title>
<path fill="none" stroke="#e74c3c" d="M77,-377.38C74.73,-371.35 72.18,-364.38 70,-358 62.77,-336.85 60.84,-331.57 55,-310 50.91,-294.89 46.96,-277.88 43.89,-263.98"/>
<polygon fill="#e74c3c" stroke="#e74c3c" points="47.28,-263.07 41.74,-254.04 40.44,-264.55 47.28,-263.07"/>
<text text-anchor="middle" x="80.5" y="-339.3" font-family="Times,serif" font-size="14.00">No</text>
</g>
<!-- best -->
<g id="node6" class="node">
<title>best</title>
<polygon fill="#d5f5e3" stroke="black" points="165.5,-310 64.5,-310 64.5,-272 165.5,-272 165.5,-310"/>
<text text-anchor="middle" x="115" y="-294.8" font-family="Times,serif" font-size="14.00">Save x_best</text>
<text text-anchor="middle" x="115" y="-279.8" font-family="Times,serif" font-size="14.00">= xc</text>
</g>
<!-- split&#45;&gt;best -->
<g id="edge3" class="edge">
<title>split&#45;&gt;best</title>
<path fill="none" stroke="#27ae60" d="M88,-377.22C92.86,-361.86 100.36,-338.21 106.22,-319.72"/>
<polygon fill="#27ae60" stroke="#27ae60" points="109.6,-320.65 109.28,-310.06 102.92,-318.53 109.6,-320.65"/>
<text text-anchor="middle" x="128" y="-346.8" font-family="Times,serif" font-size="14.00">Yes</text>
<text text-anchor="middle" x="128" y="-331.8" font-family="Times,serif" font-size="14.00">shrunk</text>
</g>
<!-- central -->
<g id="node4" class="node">
<title>central</title>
<polygon fill="#d5f5e3" stroke="black" points="162,-198 68,-198 68,-160 162,-160 162,-198"/>
<text text-anchor="middle" x="115" y="-182.8" font-family="Times,serif" font-size="14.00">Update</text>
<text text-anchor="middle" x="115" y="-167.8" font-family="Times,serif" font-size="14.00">central cut</text>
</g>
<!-- check -->
<g id="node7" class="node">
<title>check</title>
<polygon fill="#f9e79f" stroke="black" points="115,-123 35.9,-105 115,-87 194.1,-105 115,-123"/>
<text text-anchor="middle" x="115" y="-101.3" font-family="Times,serif" font-size="14.00">tsq &lt; tol?</text>
</g>
<!-- central&#45;&gt;check -->
<g id="edge6" class="edge">
<title>central&#45;&gt;check</title>
<path fill="none" stroke="black" d="M115,-159.83C115,-151.89 115,-142.41 115,-133.63"/>
<polygon fill="black" stroke="black" points="118.5,-133.42 115,-123.42 111.5,-133.42 118.5,-133.42"/>
</g>
<!-- bias&#45;&gt;check -->
<g id="edge7" class="edge">
<title>bias&#45;&gt;check</title>
<path fill="none" stroke="black" d="M40.41,-215.9C43.12,-200.23 48.56,-177.41 59,-160 66.8,-146.98 78.54,-134.99 89.26,-125.63"/>
<polygon fill="black" stroke="black" points="91.75,-128.11 97.18,-119.01 87.26,-122.74 91.75,-128.11"/>
</g>
<!-- best&#45;&gt;central -->
<g id="edge5" class="edge">
<title>best&#45;&gt;central</title>
<path fill="none" stroke="black" d="M115,-271.84C115,-254.56 115,-228.31 115,-208.29"/>
<polygon fill="black" stroke="black" points="118.5,-208.19 115,-198.19 111.5,-208.19 118.5,-208.19"/>
</g>
<!-- check&#45;&gt;xc -->
<g id="edge8" class="edge">
<title>check&#45;&gt;xc</title>
<path fill="none" stroke="#000000" stroke-dasharray="5,2" d="M141.75,-117.12C164.66,-128.65 194,-149.05 194,-178 194,-469 194,-469 194,-469 194,-487.67 182.13,-504.41 169.32,-517.04"/>
<polygon fill="#000000" stroke="#000000" points="166.75,-514.64 161.75,-523.98 171.48,-519.8 166.75,-514.64"/>
<text text-anchor="middle" x="225" y="-339.3" font-family="Times,serif" font-size="14.00">continue</text>
</g>
<!-- done -->
<g id="node8" class="node">
<title>done</title>
<polygon fill="#7fb3d8" stroke="black" points="122.41,-0.05 127.32,-0.15 132.17,-0.3 136.96,-0.49 141.65,-0.74 146.24,-1.03 150.7,-1.36 155.01,-1.75 159.17,-2.18 163.15,-2.65 166.93,-3.16 170.52,-3.71 173.89,-4.31 177.03,-4.94 179.94,-5.61 182.6,-6.31 185.01,-7.04 187.17,-7.8 189.07,-8.59 190.71,-9.41 192.09,-10.25 193.2,-11.11 194.05,-11.99 194.65,-12.89 194.99,-13.8 195.08,-14.72 194.93,-15.65 194.54,-16.59 193.92,-17.53 193.09,-18.47 192.04,-19.41 190.8,-20.35 189.36,-21.28 187.74,-22.2 185.95,-23.11 184.01,-24.01 181.91,-24.89 179.68,-25.75 177.32,-26.59 174.85,-27.41 172.27,-28.2 169.6,-28.96 166.83,-29.69 164,-30.39 161.09,-31.06 158.12,-31.69 155.1,-32.29 152.03,-32.84 148.92,-33.35 145.78,-33.82 142.61,-34.25 139.41,-34.64 136.19,-34.97 132.96,-35.26 129.71,-35.51 126.45,-35.7 123.19,-35.85 119.91,-35.95 116.64,-36 113.36,-36 110.09,-35.95 106.81,-35.85 103.55,-35.7 100.29,-35.51 97.04,-35.26 93.81,-34.97 90.59,-34.64 87.39,-34.25 84.22,-33.82 81.08,-33.35 77.97,-32.84 74.9,-32.29 71.88,-31.69 68.91,-31.06 66,-30.39 63.17,-29.69 60.4,-28.96 57.73,-28.2 55.15,-27.41 52.68,-26.59 50.32,-25.75 48.09,-24.89 45.99,-24.01 44.05,-23.11 42.26,-22.2 40.64,-21.28 39.2,-20.35 37.96,-19.41 36.91,-18.47 36.08,-17.53 35.46,-16.59 35.07,-15.65 34.92,-14.72 35.01,-13.8 35.35,-12.89 35.95,-11.99 36.8,-11.11 37.91,-10.25 39.29,-9.41 40.93,-8.59 42.83,-7.8 44.99,-7.04 47.4,-6.31 50.06,-5.61 52.97,-4.94 56.11,-4.31 59.48,-3.71 63.07,-3.16 66.85,-2.65 70.83,-2.18 74.99,-1.75 79.3,-1.36 83.76,-1.03 88.35,-0.74 93.04,-0.49 97.83,-0.3 102.68,-0.15 107.59,-0.05 112.53,0 117.47,0 122.41,-0.05"/>
<text text-anchor="middle" x="115" y="-14.3" font-family="Times,serif" font-size="14.00">Return x_best</text>
</g>
<!-- check&#45;&gt;done -->
<g id="edge9" class="edge">
<title>check&#45;&gt;done</title>
<path fill="none" stroke="#27ae60" d="M115,-86.8C115,-75.16 115,-59.55 115,-46.24"/>
<polygon fill="#27ae60" stroke="#27ae60" points="118.5,-46.18 115,-36.18 111.5,-46.18 118.5,-46.18"/>
<text text-anchor="middle" x="152.5" y="-57.8" font-family="Times,serif" font-size="14.00">converged</text>
</g>
</g>
</svg>
