<?xml version="1.0" encoding="UTF-8" standalone="no"?>
<!DOCTYPE svg PUBLIC "-//W3C//DTD SVG 1.1//EN"
 "http://www.w3.org/Graphics/SVG/1.1/DTD/svg11.dtd">
<!-- Generated by graphviz version 2.43.0 (0)
 -->
<!-- Title: ellalgo/ell_stable.hpp Pages: 1 -->
<svg width="485pt" height="247pt"
 viewBox="0.00 0.00 484.58 247.00" xmlns="http://www.w3.org/2000/svg" xmlns:xlink="http://www.w3.org/1999/xlink">
<g id="graph0" class="graph" transform="scale(1 1) rotate(0) translate(4 243)">
<title>ellalgo/ell_stable.hpp</title>
<!-- Node1 -->
<g id="Node000001" class="node">
<title>Node1</title>
<g id="a_Node000001"><a xlink:title="Numerically stable ellipsoid search space (LDL^T&#45;based)">
<polygon fill="#999999" stroke="#666666" points="399.19,-239 278.19,-239 278.19,-220 399.19,-220 399.19,-239"/>
<text text-anchor="middle" x="338.69" y="-227" font-family="Helvetica,sans-Serif" font-size="10.00">ellalgo/ell_stable.hpp</text>
</a>
</g>
</g>
<!-- Node2 -->
<g id="Node000002" class="node">
<title>Node2</title>
<g id="a_Node000002"><a xlink:title=" ">
<polygon fill="#e0e0e0" stroke="#999999" points="465.19,-74 408.19,-74 408.19,-55 465.19,-55 465.19,-74"/>
<text text-anchor="middle" x="436.69" y="-62" font-family="Helvetica,sans-Serif" font-size="10.00">valarray</text>
</a>
</g>
</g>
<!-- Node1&#45;&gt;Node2 -->
<g id="edge1_Node000001_Node000002" class="edge">
<title>Node1&#45;&gt;Node2</title>
<g id="a_edge1_Node000001_Node000002"><a xlink:title=" ">
<path fill="none" stroke="#63b8ff" d="M351.16,-219.83C372.14,-204.39 413.88,-169.91 430.69,-129 436.55,-114.74 437.81,-97.21 437.75,-84.18"/>
<polygon fill="#63b8ff" stroke="#63b8ff" points="441.24,-83.98 437.42,-74.09 434.24,-84.2 441.24,-83.98"/>
</a>
</g>
</g>
<!-- Node3 -->
<g id="Node000003" class="node">
<title>Node3</title>
<g id="a_Node000003"><a xlink:href="ell__config_8hpp.html" target="_top" xlink:title="Configuration types and constants for the ellipsoid algorithm.">
<polygon fill="white" stroke="#666666" points="286.69,-74 202.69,-74 202.69,-55 286.69,-55 286.69,-74"/>
<text text-anchor="middle" x="244.69" y="-62" font-family="Helvetica,sans-Serif" font-size="10.00">ell_config.hpp</text>
</a>
</g>
</g>
<!-- Node1&#45;&gt;Node3 -->
<g id="edge2_Node000001_Node000003" class="edge">
<title>Node1&#45;&gt;Node3</title>
<g id="a_edge2_Node000001_Node000003"><a xlink:title=" ">
<path fill="none" stroke="#63b8ff" d="M326.88,-219.76C316.43,-211.52 301.39,-198.33 291.69,-184 269.96,-151.9 255.96,-108.24 249.29,-83.88"/>
<polygon fill="#63b8ff" stroke="#63b8ff" points="252.66,-82.94 246.74,-74.15 245.89,-84.71 252.66,-82.94"/>
</a>
</g>
</g>
<!-- Node7 -->
<g id="Node000007" class="node">
<title>Node7</title>
<g id="a_Node000007"><a xlink:href="ell__core_8hpp.html" target="_top" xlink:title="Ellipsoid search space core with matrix update.">
<polygon fill="white" stroke="#666666" points="376.69,-184 300.69,-184 300.69,-165 376.69,-165 376.69,-184"/>
<text text-anchor="middle" x="338.69" y="-172" font-family="Helvetica,sans-Serif" font-size="10.00">ell_core.hpp</text>
</a>
</g>
</g>
<!-- Node1&#45;&gt;Node7 -->
<g id="edge6_Node000001_Node000007" class="edge">
<title>Node1&#45;&gt;Node7</title>
<g id="a_edge6_Node000001_Node000007"><a xlink:title=" ">
<path fill="none" stroke="#63b8ff" d="M338.69,-219.75C338.69,-212.8 338.69,-202.85 338.69,-194.13"/>
<polygon fill="#63b8ff" stroke="#63b8ff" points="342.19,-194.09 338.69,-184.09 335.19,-194.09 342.19,-194.09"/>
</a>
</g>
</g>
<!-- Node4 -->
<g id="Node000004" class="node">
<title>Node4</title>
<g id="a_Node000004"><a xlink:title=" ">
<polygon fill="#e0e0e0" stroke="#999999" points="234.19,-19 181.19,-19 181.19,0 234.19,0 234.19,-19"/>
<text text-anchor="middle" x="207.69" y="-7" font-family="Helvetica,sans-Serif" font-size="10.00">cstddef</text>
</a>
</g>
</g>
<!-- Node3&#45;&gt;Node4 -->
<g id="edge3_Node000003_Node000004" class="edge">
<title>Node3&#45;&gt;Node4</title>
<g id="a_edge3_Node000003_Node000004"><a xlink:title=" ">
<path fill="none" stroke="#63b8ff" d="M238.58,-54.75C233.41,-47.34 225.85,-36.5 219.5,-27.41"/>
<polygon fill="#63b8ff" stroke="#63b8ff" points="222.28,-25.29 213.69,-19.09 216.54,-29.29 222.28,-25.29"/>
</a>
</g>
</g>
<!-- Node5 -->
<g id="Node000005" class="node">
<title>Node5</title>
<g id="a_Node000005"><a xlink:title=" ">
<polygon fill="#e0e0e0" stroke="#999999" points="309.19,-19 252.19,-19 252.19,0 309.19,0 309.19,-19"/>
<text text-anchor="middle" x="280.69" y="-7" font-family="Helvetica,sans-Serif" font-size="10.00">ostream</text>
</a>
</g>
</g>
<!-- Node3&#45;&gt;Node5 -->
<g id="edge4_Node000003_Node000005" class="edge">
<title>Node3&#45;&gt;Node5</title>
<g id="a_edge4_Node000003_Node000005"><a xlink:title=" ">
<path fill="none" stroke="#63b8ff" d="M250.64,-54.75C255.67,-47.34 263.03,-36.5 269.21,-27.41"/>
<polygon fill="#63b8ff" stroke="#63b8ff" points="272.14,-29.33 274.86,-19.09 266.35,-25.39 272.14,-29.33"/>
</a>
</g>
</g>
<!-- Node6 -->
<g id="Node000006" class="node">
<title>Node6</title>
<g id="a_Node000006"><a xlink:title=" ">
<polygon fill="#e0e0e0" stroke="#999999" points="462.19,-19 417.19,-19 417.19,0 462.19,0 462.19,-19"/>
<text text-anchor="middle" x="439.69" y="-7" font-family="Helvetica,sans-Serif" font-size="10.00">utility</text>
</a>
</g>
</g>
<!-- Node3&#45;&gt;Node6 -->
<g id="edge5_Node000003_Node000006" class="edge">
<title>Node3&#45;&gt;Node6</title>
<g id="a_edge5_Node000003_Node000006"><a xlink:title=" ">
<path fill="none" stroke="#63b8ff" d="M276.02,-54.98C312.04,-45.2 370.87,-29.21 407.32,-19.3"/>
<polygon fill="#63b8ff" stroke="#63b8ff" points="408.24,-22.68 416.97,-16.68 406.4,-15.92 408.24,-22.68"/>
</a>
</g>
</g>
<!-- Node7&#45;&gt;Node2 -->
<g id="edge9_Node000007_Node000002" class="edge">
<title>Node7&#45;&gt;Node2</title>
<g id="a_edge9_Node000007_Node000002"><a xlink:title=" ">
<path fill="none" stroke="#63b8ff" d="M359.47,-164.98C375.36,-157.54 396.82,-145.37 410.69,-129 421.75,-115.95 428.59,-97.56 432.45,-83.92"/>
<polygon fill="#63b8ff" stroke="#63b8ff" points="435.85,-84.76 434.95,-74.2 429.07,-83.02 435.85,-84.76"/>
</a>
</g>
</g>
<!-- Node7&#45;&gt;Node3 -->
<g id="edge16_Node000007_Node000003" class="edge">
<title>Node7&#45;&gt;Node3</title>
<g id="a_edge16_Node000007_Node000003"><a xlink:title=" ">
<path fill="none" stroke="#63b8ff" d="M331,-164.66C315.22,-146.54 279,-104.91 258.85,-81.77"/>
<polygon fill="#63b8ff" stroke="#63b8ff" points="261.43,-79.4 252.23,-74.16 256.15,-84 261.43,-79.4"/>
</a>
</g>
</g>
<!-- Node7&#45;&gt;Node6 -->
<g id="edge8_Node000007_Node000006" class="edge">
<title>Node7&#45;&gt;Node6</title>
<g id="a_edge8_Node000007_Node000006"><a xlink:title=" ">
<path fill="none" stroke="#63b8ff" d="M364.37,-164.99C398.77,-151.89 457.5,-123 474.69,-74 480.71,-56.85 468.81,-38.85 457.28,-26.41"/>
<polygon fill="#63b8ff" stroke="#63b8ff" points="459.51,-23.69 449.96,-19.1 454.57,-28.64 459.51,-23.69"/>
</a>
</g>
</g>
<!-- Node8 -->
<g id="Node000008" class="node">
<title>Node8</title>
<g id="a_Node000008"><a xlink:title=" ">
<polygon fill="#e0e0e0" stroke="#999999" points="102.19,-19 61.19,-19 61.19,0 102.19,0 102.19,-19"/>
<text text-anchor="middle" x="81.69" y="-7" font-family="Helvetica,sans-Serif" font-size="10.00">tuple</text>
</a>
</g>
</g>
<!-- Node7&#45;&gt;Node8 -->
<g id="edge7_Node000007_Node000008" class="edge">
<title>Node7&#45;&gt;Node8</title>
<g id="a_edge7_Node000007_Node000008"><a xlink:title=" ">
<path fill="none" stroke="#63b8ff" d="M300.64,-168.52C219.66,-156.99 35.1,-125.46 3.69,-74 -10.95,-50 23.68,-31.07 51.4,-20.33"/>
<polygon fill="#63b8ff" stroke="#63b8ff" points="52.64,-23.6 60.82,-16.87 50.23,-17.03 52.64,-23.6"/>
</a>
</g>
</g>
<!-- Node9 -->
<g id="Node000009" class="node">
<title>Node9</title>
<g id="a_Node000009"><a xlink:href="ell__calc_8hpp.html" target="_top" xlink:title="Ellipsoid computation layer with cut dispatch.">
<polygon fill="white" stroke="#666666" points="193.69,-129 119.69,-129 119.69,-110 193.69,-110 193.69,-129"/>
<text text-anchor="middle" x="156.69" y="-117" font-family="Helvetica,sans-Serif" font-size="10.00">ell_calc.hpp</text>
</a>
</g>
</g>
<!-- Node7&#45;&gt;Node9 -->
<g id="edge10_Node000007_Node000009" class="edge">
<title>Node7&#45;&gt;Node9</title>
<g id="a_edge10_Node000007_Node000009"><a xlink:title=" ">
<path fill="none" stroke="#63b8ff" d="M309.45,-164.98C278.63,-156.01 229.92,-141.82 195.81,-131.89"/>
<polygon fill="#63b8ff" stroke="#63b8ff" points="196.74,-128.52 186.16,-129.08 194.79,-135.24 196.74,-128.52"/>
</a>
</g>
</g>
<!-- Node12 -->
<g id="Node000012" class="node">
<title>Node12</title>
<g id="a_Node000012"><a xlink:href="ell__matrix_8hpp.html" target="_top" xlink:title="Square matrix with flat storage and strided views.">
<polygon fill="white" stroke="#666666" points="402.19,-129 315.19,-129 315.19,-110 402.19,-110 402.19,-129"/>
<text text-anchor="middle" x="358.69" y="-117" font-family="Helvetica,sans-Serif" font-size="10.00">ell_matrix.hpp</text>
</a>
</g>
</g>
<!-- Node7&#45;&gt;Node12 -->
<g id="edge17_Node000007_Node000012" class="edge">
<title>Node7&#45;&gt;Node12</title>
<g id="a_edge17_Node000007_Node000012"><a xlink:title=" ">
<path fill="none" stroke="#63b8ff" d="M342,-164.75C344.68,-157.65 348.54,-147.4 351.88,-138.56"/>
<polygon fill="#63b8ff" stroke="#63b8ff" points="355.2,-139.68 355.45,-129.09 348.65,-137.21 355.2,-139.68"/>
</a>
</g>
</g>
<!-- Node9&#45;&gt;Node3 -->
<g id="edge15_Node000009_Node000003" class="edge">
<title>Node9&#45;&gt;Node3</title>
<g id="a_edge15_Node000009_Node000003"><a xlink:title=" ">
<path fill="none" stroke="#63b8ff" d="M170.83,-109.98C184.48,-101.77 205.38,-89.18 221.47,-79.49"/>
<polygon fill="#63b8ff" stroke="#63b8ff" points="223.54,-82.33 230.3,-74.17 219.93,-76.33 223.54,-82.33"/>
</a>
</g>
</g>
<!-- Node10 -->
<g id="Node000010" class="node">
<title>Node10</title>
<g id="a_Node000010"><a xlink:title=" ">
<polygon fill="#e0e0e0" stroke="#999999" points="64.69,-74 12.69,-74 12.69,-55 64.69,-55 64.69,-74"/>
<text text-anchor="middle" x="38.69" y="-62" font-family="Helvetica,sans-Serif" font-size="10.00">cassert</text>
</a>
</g>
</g>
<!-- Node9&#45;&gt;Node10 -->
<g id="edge11_Node000009_Node000010" class="edge">
<title>Node9&#45;&gt;Node10</title>
<g id="a_edge11_Node000009_Node000010"><a xlink:title=" ">
<path fill="none" stroke="#63b8ff" d="M137.73,-109.98C118.67,-101.42 89.03,-88.11 67.15,-78.28"/>
<polygon fill="#63b8ff" stroke="#63b8ff" points="68.55,-75.07 58,-74.17 65.69,-81.46 68.55,-75.07"/>
</a>
</g>
</g>
<!-- Node11 -->
<g id="Node000011" class="node">
<title>Node11</title>
<g id="a_Node000011"><a xlink:href="ell__calc__core_8hpp.html" target="_top" xlink:title="Core ellipsoid calculation routines.">
<polygon fill="white" stroke="#666666" points="184.19,-74 83.19,-74 83.19,-55 184.19,-55 184.19,-74"/>
<text text-anchor="middle" x="133.69" y="-62" font-family="Helvetica,sans-Serif" font-size="10.00">ell_calc_core.hpp</text>
</a>
</g>
</g>
<!-- Node9&#45;&gt;Node11 -->
<g id="edge12_Node000009_Node000011" class="edge">
<title>Node9&#45;&gt;Node11</title>
<g id="a_edge12_Node000009_Node000011"><a xlink:title=" ">
<path fill="none" stroke="#63b8ff" d="M152.9,-109.75C149.78,-102.57 145.27,-92.18 141.4,-83.27"/>
<polygon fill="#63b8ff" stroke="#63b8ff" points="144.61,-81.87 137.42,-74.09 138.19,-84.66 144.61,-81.87"/>
</a>
</g>
</g>
<!-- Node11&#45;&gt;Node4 -->
<g id="edge13_Node000011_Node000004" class="edge">
<title>Node11&#45;&gt;Node4</title>
<g id="a_edge13_Node000011_Node000004"><a xlink:title=" ">
<path fill="none" stroke="#63b8ff" d="M145.58,-54.98C156.84,-46.92 173.98,-34.65 187.4,-25.03"/>
<polygon fill="#63b8ff" stroke="#63b8ff" points="189.5,-27.84 195.59,-19.17 185.42,-22.15 189.5,-27.84"/>
</a>
</g>
</g>
<!-- Node11&#45;&gt;Node8 -->
<g id="edge14_Node000011_Node000008" class="edge">
<title>Node11&#45;&gt;Node8</title>
<g id="a_edge14_Node000011_Node000008"><a xlink:title=" ">
<path fill="none" stroke="#63b8ff" d="M125.11,-54.75C117.53,-47.03 106.32,-35.6 97.18,-26.28"/>
<polygon fill="#63b8ff" stroke="#63b8ff" points="99.62,-23.78 90.12,-19.09 94.63,-28.68 99.62,-23.78"/>
</a>
</g>
</g>
<!-- Node12&#45;&gt;Node2 -->
<g id="edge19_Node000012_Node000002" class="edge">
<title>Node12&#45;&gt;Node2</title>
<g id="a_edge19_Node000012_Node000002"><a xlink:title=" ">
<path fill="none" stroke="#63b8ff" d="M371.23,-109.98C383.09,-101.92 401.16,-89.65 415.31,-80.03"/>
<polygon fill="#63b8ff" stroke="#63b8ff" points="417.63,-82.69 423.93,-74.17 413.69,-76.9 417.63,-82.69"/>
</a>
</g>
</g>
<!-- Node12&#45;&gt;Node4 -->
<g id="edge18_Node000012_Node000004" class="edge">
<title>Node12&#45;&gt;Node4</title>
<g id="a_edge18_Node000012_Node000004"><a xlink:title=" ">
<path fill="none" stroke="#63b8ff" d="M351.67,-109.82C340.75,-96.71 318.55,-71.62 295.69,-55 278.05,-42.17 256.17,-31.09 238.65,-23.19"/>
<polygon fill="#63b8ff" stroke="#63b8ff" points="239.97,-19.95 229.41,-19.14 237.16,-26.37 239.97,-19.95"/>
</a>
</g>
</g>
<!-- Node13 -->
<g id="Node000013" class="node">
<title>Node13</title>
<g id="a_Node000013"><a xlink:title=" ">
<polygon fill="#e0e0e0" stroke="#999999" points="390.19,-74 343.19,-74 343.19,-55 390.19,-55 390.19,-74"/>
<text text-anchor="middle" x="366.69" y="-62" font-family="Helvetica,sans-Serif" font-size="10.00">vector</text>
</a>
</g>
</g>
<!-- Node12&#45;&gt;Node13 -->
<g id="edge20_Node000012_Node000013" class="edge">
<title>Node12&#45;&gt;Node13</title>
<g id="a_edge20_Node000012_Node000013"><a xlink:title=" ">
<path fill="none" stroke="#63b8ff" d="M360.01,-109.75C361.06,-102.8 362.57,-92.85 363.88,-84.13"/>
<polygon fill="#63b8ff" stroke="#63b8ff" points="367.36,-84.5 365.4,-74.09 360.44,-83.45 367.36,-84.5"/>
</a>
</g>
</g>
</g>
</svg>
