<?xml version="1.0" encoding="UTF-8" standalone="no"?>
<!DOCTYPE svg PUBLIC "-//W3C//DTD SVG 1.1//EN"
 "http://www.w3.org/Graphics/SVG/1.1/DTD/svg11.dtd">
<!-- Generated by graphviz version 2.43.0 (0)
 -->
<!-- Title: ellalgo/ell_matrix.hpp Pages: 1 -->
<svg width="615pt" height="159pt"
 viewBox="0.00 0.00 614.50 159.00" xmlns="http://www.w3.org/2000/svg" xmlns:xlink="http://www.w3.org/1999/xlink">
<g id="graph0" class="graph" transform="scale(1 1) rotate(0) translate(4 155)">
<title>ellalgo/ell_matrix.hpp</title>
<!-- Node1 -->
<g id="Node000001" class="node">
<title>Node1</title>
<g id="a_Node000001"><a xlink:title="Square matrix with flat storage and strided views.">
<polygon fill="#999999" stroke="#666666" points="293.5,-151 170.5,-151 170.5,-132 293.5,-132 293.5,-151"/>
<text text-anchor="middle" x="232" y="-139" font-family="Helvetica,sans-Serif" font-size="10.00">ellalgo/ell_matrix.hpp</text>
</a>
</g>
</g>
<!-- Node2 -->
<g id="Node000002" class="node">
<title>Node2</title>
<g id="a_Node000002"><a xlink:href="ell__core_8hpp.html" target="_top" xlink:title="Ellipsoid search space core with matrix update.">
<polygon fill="white" stroke="#666666" points="221,-90.5 109,-90.5 109,-71.5 221,-71.5 221,-90.5"/>
<text text-anchor="middle" x="165" y="-78.5" font-family="Helvetica,sans-Serif" font-size="10.00">ellalgo/ell_core.hpp</text>
</a>
</g>
</g>
<!-- Node1&#45;&gt;Node2 -->
<g id="edge1_Node000001_Node000002" class="edge">
<title>Node1&#45;&gt;Node2</title>
<g id="a_edge1_Node000001_Node000002"><a xlink:title=" ">
<path fill="none" stroke="#63b8ff" d="M214.5,-125.22C201.9,-114.21 185.33,-99.75 174.93,-90.67"/>
<polygon fill="#63b8ff" stroke="#63b8ff" points="212.28,-127.93 222.11,-131.87 216.88,-122.65 212.28,-127.93"/>
</a>
</g>
</g>
<!-- Node5 -->
<g id="Node000005" class="node">
<title>Node5</title>
<g id="a_Node000005"><a xlink:href="ldlt__mgr_8hpp.html" target="_top" xlink:title="LDL^T factorization manager for symmetric matrices.">
<polygon fill="white" stroke="#666666" points="417.5,-96 310.5,-96 310.5,-66 417.5,-66 417.5,-96"/>
<text text-anchor="start" x="318.5" y="-84" font-family="Helvetica,sans-Serif" font-size="10.00">ellalgo/oracles/ldlt</text>
<text text-anchor="middle" x="364" y="-73" font-family="Helvetica,sans-Serif" font-size="10.00">_mgr.hpp</text>
</a>
</g>
</g>
<!-- Node1&#45;&gt;Node5 -->
<g id="edge4_Node000001_Node000005" class="edge">
<title>Node1&#45;&gt;Node5</title>
<g id="a_edge4_Node000001_Node000005"><a xlink:title=" ">
<path fill="none" stroke="#63b8ff" d="M260.59,-127.83C281.71,-118.47 310.44,-105.74 332.27,-96.06"/>
<polygon fill="#63b8ff" stroke="#63b8ff" points="258.92,-124.74 251.19,-131.99 261.75,-131.14 258.92,-124.74"/>
</a>
</g>
</g>
<!-- Node3 -->
<g id="Node000003" class="node">
<title>Node3</title>
<g id="a_Node000003"><a xlink:href="ell_8hpp.html" target="_top" xlink:title="Ellipsoid search space main class.">
<polygon fill="white" stroke="#666666" points="86,-24.5 0,-24.5 0,-5.5 86,-5.5 86,-24.5"/>
<text text-anchor="middle" x="43" y="-12.5" font-family="Helvetica,sans-Serif" font-size="10.00">ellalgo/ell.hpp</text>
</a>
</g>
</g>
<!-- Node2&#45;&gt;Node3 -->
<g id="edge2_Node000002_Node000003" class="edge">
<title>Node2&#45;&gt;Node3</title>
<g id="a_edge2_Node000002_Node000003"><a xlink:title=" ">
<path fill="none" stroke="#63b8ff" d="M139.64,-66.69C115.6,-54.09 80.2,-35.51 59.58,-24.7"/>
<polygon fill="#63b8ff" stroke="#63b8ff" points="138.07,-69.82 148.55,-71.37 141.32,-63.62 138.07,-69.82"/>
</a>
</g>
</g>
<!-- Node4 -->
<g id="Node000004" class="node">
<title>Node4</title>
<g id="a_Node000004"><a xlink:href="ell__stable_8hpp.html" target="_top" xlink:title="Numerically stable ellipsoid search space (LDL^T&#45;based)">
<polygon fill="white" stroke="#666666" points="225.5,-24.5 104.5,-24.5 104.5,-5.5 225.5,-5.5 225.5,-24.5"/>
<text text-anchor="middle" x="165" y="-12.5" font-family="Helvetica,sans-Serif" font-size="10.00">ellalgo/ell_stable.hpp</text>
</a>
</g>
</g>
<!-- Node2&#45;&gt;Node4 -->
<g id="edge3_Node000002_Node000004" class="edge">
<title>Node2&#45;&gt;Node4</title>
<g id="a_edge3_Node000002_Node000004"><a xlink:title=" ">
<path fill="none" stroke="#63b8ff" d="M165,-61.08C165,-49.13 165,-34.22 165,-24.91"/>
<polygon fill="#63b8ff" stroke="#63b8ff" points="161.5,-61.37 165,-71.37 168.5,-61.37 161.5,-61.37"/>
</a>
</g>
</g>
<!-- Node6 -->
<g id="Node000006" class="node">
<title>Node6</title>
<g id="a_Node000006"><a xlink:href="lmi0__oracle_8hpp.html" target="_top" xlink:title="Oracle for Linear Matrix Inequality (LMI) feasibility (compact form)">
<polygon fill="white" stroke="#666666" points="356.5,-30 243.5,-30 243.5,0 356.5,0 356.5,-30"/>
<text text-anchor="start" x="251.5" y="-18" font-family="Helvetica,sans-Serif" font-size="10.00">ellalgo/oracles/lmi0</text>
<text text-anchor="middle" x="300" y="-7" font-family="Helvetica,sans-Serif" font-size="10.00">_oracle.hpp</text>
</a>
</g>
</g>
<!-- Node5&#45;&gt;Node6 -->
<g id="edge5_Node000005_Node000006" class="edge">
<title>Node5&#45;&gt;Node6</title>
<g id="a_edge5_Node000005_Node000006"><a xlink:title=" ">
<path fill="none" stroke="#63b8ff" d="M342.65,-58.65C333.27,-49.27 322.53,-38.53 314.16,-30.16"/>
<polygon fill="#63b8ff" stroke="#63b8ff" points="340.25,-61.2 349.8,-65.8 345.2,-56.25 340.25,-61.2"/>
</a>
</g>
</g>
<!-- Node7 -->
<g id="Node000007" class="node">
<title>Node7</title>
<g id="a_Node000007"><a xlink:href="lmi__old__oracle_8hpp.html" target="_top" xlink:title="Oracle for Linear Matrix Inequality feasibility (explicit matrix form)">
<polygon fill="white" stroke="#666666" points="481.5,-30 374.5,-30 374.5,0 481.5,0 481.5,-30"/>
<text text-anchor="start" x="382.5" y="-18" font-family="Helvetica,sans-Serif" font-size="10.00">ellalgo/oracles/lmi</text>
<text text-anchor="middle" x="428" y="-7" font-family="Helvetica,sans-Serif" font-size="10.00">_old_oracle.hpp</text>
</a>
</g>
</g>
<!-- Node5&#45;&gt;Node7 -->
<g id="edge6_Node000005_Node000007" class="edge">
<title>Node5&#45;&gt;Node7</title>
<g id="a_edge6_Node000005_Node000007"><a xlink:title=" ">
<path fill="none" stroke="#63b8ff" d="M385.35,-58.65C394.73,-49.27 405.47,-38.53 413.84,-30.16"/>
<polygon fill="#63b8ff" stroke="#63b8ff" points="382.8,-56.25 378.2,-65.8 387.75,-61.2 382.8,-56.25"/>
</a>
</g>
</g>
<!-- Node8 -->
<g id="Node000008" class="node">
<title>Node8</title>
<g id="a_Node000008"><a xlink:href="lmi__oracle_8hpp.html" target="_top" xlink:title="Oracle for Linear Matrix Inequality feasibility (lazy matrix form)">
<polygon fill="white" stroke="#666666" points="606.5,-30 499.5,-30 499.5,0 606.5,0 606.5,-30"/>
<text text-anchor="start" x="507.5" y="-18" font-family="Helvetica,sans-Serif" font-size="10.00">ellalgo/oracles/lmi</text>
<text text-anchor="middle" x="553" y="-7" font-family="Helvetica,sans-Serif" font-size="10.00">_oracle.hpp</text>
</a>
</g>
</g>
<!-- Node5&#45;&gt;Node8 -->
<g id="edge7_Node000005_Node000008" class="edge">
<title>Node5&#45;&gt;Node8</title>
<g id="a_edge7_Node000005_Node000008"><a xlink:title=" ">
<path fill="none" stroke="#63b8ff" d="M415.02,-62.72C445.3,-52.47 483.21,-39.63 511.62,-30.01"/>
<polygon fill="#63b8ff" stroke="#63b8ff" points="413.83,-59.43 405.48,-65.95 416.07,-66.06 413.83,-59.43"/>
</a>
</g>
</g>
</g>
</svg>
