<?xml version="1.0" encoding="UTF-8" standalone="no"?>
<!DOCTYPE svg PUBLIC "-//W3C//DTD SVG 1.1//EN"
 "http://www.w3.org/Graphics/SVG/1.1/DTD/svg11.dtd">
<!-- Generated by graphviz version 2.43.0 (0)
 -->
<!-- Title: ellalgo/ell_config.hpp Pages: 1 -->
<svg width="420pt" height="192pt"
 viewBox="0.00 0.00 419.50 192.00" xmlns="http://www.w3.org/2000/svg" xmlns:xlink="http://www.w3.org/1999/xlink">
<g id="graph0" class="graph" transform="scale(1 1) rotate(0) translate(4 188)">
<title>ellalgo/ell_config.hpp</title>
<!-- Node1 -->
<g id="Node000001" class="node">
<title>Node1</title>
<g id="a_Node000001"><a xlink:title="Configuration types and constants for the ellipsoid algorithm.">
<polygon fill="#999999" stroke="#666666" points="311,-184 191,-184 191,-165 311,-165 311,-184"/>
<text text-anchor="middle" x="251" y="-172" font-family="Helvetica,sans-Serif" font-size="10.00">ellalgo/ell_config.hpp</text>
</a>
</g>
</g>
<!-- Node2 -->
<g id="Node000002" class="node">
<title>Node2</title>
<g id="a_Node000002"><a xlink:href="cutting__plane_8hpp.html" target="_top" xlink:title="Cutting&#45;plane methods for convex feasibility and optimization.">
<polygon fill="white" stroke="#666666" points="140,-129 0,-129 0,-110 140,-110 140,-129"/>
<text text-anchor="middle" x="70" y="-117" font-family="Helvetica,sans-Serif" font-size="10.00">ellalgo/cutting_plane.hpp</text>
</a>
</g>
</g>
<!-- Node1&#45;&gt;Node2 -->
<g id="edge1_Node000001_Node000002" class="edge">
<title>Node1&#45;&gt;Node2</title>
<g id="a_edge1_Node000001_Node000002"><a xlink:title=" ">
<path fill="none" stroke="#63b8ff" d="M211.92,-162.06C178.09,-152.15 129.92,-138.04 99.31,-129.08"/>
<polygon fill="#63b8ff" stroke="#63b8ff" points="211.34,-165.53 221.92,-164.98 213.31,-158.82 211.34,-165.53"/>
</a>
</g>
</g>
<!-- Node3 -->
<g id="Node000003" class="node">
<title>Node3</title>
<g id="a_Node000003"><a xlink:href="ell_8hpp.html" target="_top" xlink:title="Ellipsoid search space main class.">
<polygon fill="white" stroke="#666666" points="252,-19 166,-19 166,0 252,0 252,-19"/>
<text text-anchor="middle" x="209" y="-7" font-family="Helvetica,sans-Serif" font-size="10.00">ellalgo/ell.hpp</text>
</a>
</g>
</g>
<!-- Node1&#45;&gt;Node3 -->
<g id="edge2_Node000001_Node000003" class="edge">
<title>Node1&#45;&gt;Node3</title>
<g id="a_edge2_Node000001_Node000003"><a xlink:title=" ">
<path fill="none" stroke="#63b8ff" d="M220.19,-160.13C207.49,-152.9 194.11,-142.61 187,-129 167.42,-91.54 192.44,-39.42 203.86,-19.09"/>
<polygon fill="#63b8ff" stroke="#63b8ff" points="218.73,-163.32 229.21,-164.87 221.98,-157.12 218.73,-163.32"/>
</a>
</g>
</g>
<!-- Node4 -->
<g id="Node000004" class="node">
<title>Node4</title>
<g id="a_Node000004"><a xlink:href="ell__calc_8hpp.html" target="_top" xlink:title="Ellipsoid computation layer with cut dispatch.">
<polygon fill="white" stroke="#666666" points="306,-129 196,-129 196,-110 306,-110 306,-129"/>
<text text-anchor="middle" x="251" y="-117" font-family="Helvetica,sans-Serif" font-size="10.00">ellalgo/ell_calc.hpp</text>
</a>
</g>
</g>
<!-- Node1&#45;&gt;Node4 -->
<g id="edge3_Node000001_Node000004" class="edge">
<title>Node1&#45;&gt;Node4</title>
<g id="a_edge3_Node000001_Node000004"><a xlink:title=" ">
<path fill="none" stroke="#63b8ff" d="M251,-154.66C251,-145.93 251,-135.99 251,-129.09"/>
<polygon fill="#63b8ff" stroke="#63b8ff" points="247.5,-154.75 251,-164.75 254.5,-154.75 247.5,-154.75"/>
</a>
</g>
</g>
<!-- Node5 -->
<g id="Node000005" class="node">
<title>Node5</title>
<g id="a_Node000005"><a xlink:href="ell__core_8hpp.html" target="_top" xlink:title="Ellipsoid search space core with matrix update.">
<polygon fill="white" stroke="#666666" points="326,-74 214,-74 214,-55 326,-55 326,-74"/>
<text text-anchor="middle" x="270" y="-62" font-family="Helvetica,sans-Serif" font-size="10.00">ellalgo/ell_core.hpp</text>
</a>
</g>
</g>
<!-- Node1&#45;&gt;Node5 -->
<g id="edge7_Node000001_Node000005" class="edge">
<title>Node1&#45;&gt;Node5</title>
<g id="a_edge7_Node000001_Node000005"><a xlink:title=" ">
<path fill="none" stroke="#63b8ff" d="M281.81,-160.13C294.51,-152.9 307.89,-142.61 315,-129 326.02,-107.92 300.62,-85.81 283.66,-74.05"/>
<polygon fill="#63b8ff" stroke="#63b8ff" points="280.02,-157.12 272.79,-164.87 283.27,-163.32 280.02,-157.12"/>
</a>
</g>
</g>
<!-- Node6 -->
<g id="Node000006" class="node">
<title>Node6</title>
<g id="a_Node000006"><a xlink:href="ell__stable_8hpp.html" target="_top" xlink:title="Numerically stable ellipsoid search space (LDL^T&#45;based)">
<polygon fill="white" stroke="#666666" points="411.5,-19 290.5,-19 290.5,0 411.5,0 411.5,-19"/>
<text text-anchor="middle" x="351" y="-7" font-family="Helvetica,sans-Serif" font-size="10.00">ellalgo/ell_stable.hpp</text>
</a>
</g>
</g>
<!-- Node1&#45;&gt;Node6 -->
<g id="edge8_Node000001_Node000006" class="edge">
<title>Node1&#45;&gt;Node6</title>
<g id="a_edge8_Node000001_Node000006"><a xlink:title=" ">
<path fill="none" stroke="#63b8ff" d="M287.6,-161.03C302.98,-153.97 319.67,-143.57 330,-129 354.53,-94.4 353.36,-40.16 351.83,-19.18"/>
<polygon fill="#63b8ff" stroke="#63b8ff" points="286.09,-157.86 278.26,-165 288.83,-164.31 286.09,-157.86"/>
</a>
</g>
</g>
<!-- Node4&#45;&gt;Node5 -->
<g id="edge4_Node000004_Node000005" class="edge">
<title>Node4&#45;&gt;Node5</title>
<g id="a_edge4_Node000004_Node000005"><a xlink:title=" ">
<path fill="none" stroke="#63b8ff" d="M257.55,-100.24C260.72,-91.37 264.39,-81.14 266.92,-74.09"/>
<polygon fill="#63b8ff" stroke="#63b8ff" points="254.22,-99.15 254.14,-109.75 260.81,-101.52 254.22,-99.15"/>
</a>
</g>
</g>
<!-- Node5&#45;&gt;Node3 -->
<g id="edge5_Node000005_Node000003" class="edge">
<title>Node5&#45;&gt;Node3</title>
<g id="a_edge5_Node000005_Node000003"><a xlink:title=" ">
<path fill="none" stroke="#63b8ff" d="M252.53,-48.32C241.66,-38.87 228.06,-27.06 218.98,-19.17"/>
<polygon fill="#63b8ff" stroke="#63b8ff" points="250.35,-51.07 260.2,-54.98 254.95,-45.78 250.35,-51.07"/>
</a>
</g>
</g>
<!-- Node5&#45;&gt;Node6 -->
<g id="edge6_Node000005_Node000006" class="edge">
<title>Node5&#45;&gt;Node6</title>
<g id="a_edge6_Node000005_Node000006"><a xlink:title=" ">
<path fill="none" stroke="#63b8ff" d="M291.51,-49.42C306.21,-39.81 325.22,-27.37 337.75,-19.17"/>
<polygon fill="#63b8ff" stroke="#63b8ff" points="289.47,-46.58 283.01,-54.98 293.3,-52.44 289.47,-46.58"/>
</a>
</g>
</g>
</g>
</svg>
