<?xml version="1.0" encoding="UTF-8" standalone="no"?>
<!DOCTYPE svg PUBLIC "-//W3C//DTD SVG 1.1//EN"
 "http://www.w3.org/Graphics/SVG/1.1/DTD/svg11.dtd">
<!-- Generated by graphviz version 2.43.0 (0)
 -->
<!-- Title: ellalgo/ell.hpp Pages: 1 -->
<svg width="708pt" height="302pt"
 viewBox="0.00 0.00 707.50 302.00" xmlns="http://www.w3.org/2000/svg" xmlns:xlink="http://www.w3.org/1999/xlink">
<g id="graph0" class="graph" transform="scale(1 1) rotate(0) translate(4 298)">
<title>ellalgo/ell.hpp</title>
<!-- Node1 -->
<g id="Node000001" class="node">
<title>Node1</title>
<g id="a_Node000001"><a xlink:title="Ellipsoid search space (classic Q&#45;update strategy)">
<polygon fill="#999999" stroke="#666666" points="86,-294 0,-294 0,-275 86,-275 86,-294"/>
<text text-anchor="middle" x="43" y="-282" font-family="Helvetica,sans-Serif" font-size="10.00">ellalgo/ell.hpp</text>
</a>
</g>
</g>
<!-- Node2 -->
<g id="Node000002" class="node">
<title>Node2</title>
<g id="a_Node000002"><a xlink:title=" ">
<polygon fill="#e0e0e0" stroke="#999999" points="119.5,-74 62.5,-74 62.5,-55 119.5,-55 119.5,-74"/>
<text text-anchor="middle" x="91" y="-62" font-family="Helvetica,sans-Serif" font-size="10.00">valarray</text>
</a>
</g>
</g>
<!-- Node1&#45;&gt;Node2 -->
<g id="edge1_Node000001_Node000002" class="edge">
<title>Node1&#45;&gt;Node2</title>
<g id="a_edge1_Node000001_Node000002"><a xlink:title=" ">
<path fill="none" stroke="#63b8ff" d="M44.88,-274.95C51.94,-242.88 76.97,-129.2 86.9,-84.12"/>
<polygon fill="#63b8ff" stroke="#63b8ff" points="90.35,-84.74 89.08,-74.22 83.51,-83.24 90.35,-84.74"/>
</a>
</g>
</g>
<!-- Node3 -->
<g id="Node000003" class="node">
<title>Node3</title>
<g id="a_Node000003"><a xlink:href="ell__base_8hpp.html" target="_top" xlink:title="Shared ellipsoid search space base (compile&#45;time Strategy)">
<polygon fill="white" stroke="#666666" points="297,-239 219,-239 219,-220 297,-220 297,-239"/>
<text text-anchor="middle" x="258" y="-227" font-family="Helvetica,sans-Serif" font-size="10.00">ell_base.hpp</text>
</a>
</g>
</g>
<!-- Node1&#45;&gt;Node3 -->
<g id="edge2_Node000001_Node000003" class="edge">
<title>Node1&#45;&gt;Node3</title>
<g id="a_edge2_Node000001_Node000003"><a xlink:title=" ">
<path fill="none" stroke="#63b8ff" d="M77.54,-274.98C114.42,-265.89 172.99,-251.46 213.34,-241.51"/>
<polygon fill="#63b8ff" stroke="#63b8ff" points="214.31,-244.87 223.19,-239.08 212.64,-238.08 214.31,-244.87"/>
</a>
</g>
</g>
<!-- Node3&#45;&gt;Node2 -->
<g id="edge5_Node000003_Node000002" class="edge">
<title>Node3&#45;&gt;Node2</title>
<g id="a_edge5_Node000003_Node000002"><a xlink:title=" ">
<path fill="none" stroke="#63b8ff" d="M248.23,-219.96C229,-203.05 185.05,-163.9 150,-129 134.43,-113.5 117.43,-95.02 105.69,-82.01"/>
<polygon fill="#63b8ff" stroke="#63b8ff" points="108.09,-79.44 98.81,-74.33 102.88,-84.11 108.09,-79.44"/>
</a>
</g>
</g>
<!-- Node4 -->
<g id="Node000004" class="node">
<title>Node4</title>
<g id="a_Node000004"><a xlink:title=" ">
<polygon fill="#e0e0e0" stroke="#999999" points="329.5,-19 276.5,-19 276.5,0 329.5,0 329.5,-19"/>
<text text-anchor="middle" x="303" y="-7" font-family="Helvetica,sans-Serif" font-size="10.00">cstddef</text>
</a>
</g>
</g>
<!-- Node3&#45;&gt;Node4 -->
<g id="edge3_Node000003_Node000004" class="edge">
<title>Node3&#45;&gt;Node4</title>
<g id="a_edge3_Node000003_Node000004"><a xlink:title=" ">
<path fill="none" stroke="#63b8ff" d="M231.53,-220C163.31,-196.76 -8.98,-128.99 53,-55 79.76,-23.05 203.35,-14.02 266.15,-11.48"/>
<polygon fill="#63b8ff" stroke="#63b8ff" points="266.55,-14.97 276.41,-11.11 266.29,-7.98 266.55,-14.97"/>
</a>
</g>
</g>
<!-- Node5 -->
<g id="Node000005" class="node">
<title>Node5</title>
<g id="a_Node000005"><a xlink:title=" ">
<polygon fill="#e0e0e0" stroke="#999999" points="699.5,-19 654.5,-19 654.5,0 699.5,0 699.5,-19"/>
<text text-anchor="middle" x="677" y="-7" font-family="Helvetica,sans-Serif" font-size="10.00">utility</text>
</a>
</g>
</g>
<!-- Node3&#45;&gt;Node5 -->
<g id="edge4_Node000003_Node000005" class="edge">
<title>Node3&#45;&gt;Node5</title>
<g id="a_edge4_Node000003_Node000005"><a xlink:title=" ">
<path fill="none" stroke="#63b8ff" d="M297.38,-227.06C350.7,-223.98 448.04,-214.31 525,-184 596.37,-155.89 620.27,-140.79 658,-74 665.88,-60.05 670.81,-42.49 673.67,-29.38"/>
<polygon fill="#63b8ff" stroke="#63b8ff" points="677.17,-29.69 675.66,-19.2 670.3,-28.34 677.17,-29.69"/>
</a>
</g>
</g>
<!-- Node6 -->
<g id="Node000006" class="node">
<title>Node6</title>
<g id="a_Node000006"><a xlink:href="ell__config_8hpp.html" target="_top" xlink:title="Configuration types and constants for the ellipsoid algorithm.">
<polygon fill="white" stroke="#666666" points="598,-74 514,-74 514,-55 598,-55 598,-74"/>
<text text-anchor="middle" x="556" y="-62" font-family="Helvetica,sans-Serif" font-size="10.00">ell_config.hpp</text>
</a>
</g>
</g>
<!-- Node3&#45;&gt;Node6 -->
<g id="edge6_Node000003_Node000006" class="edge">
<title>Node3&#45;&gt;Node6</title>
<g id="a_edge6_Node000003_Node000006"><a xlink:title=" ">
<path fill="none" stroke="#63b8ff" d="M268.32,-219.99C294.26,-198.95 364.83,-143.72 431,-110 458.06,-96.21 490.4,-84.82 515.4,-77.02"/>
<polygon fill="#63b8ff" stroke="#63b8ff" points="516.75,-80.27 525.29,-74 514.7,-73.57 516.75,-80.27"/>
</a>
</g>
</g>
<!-- Node11 -->
<g id="Node000011" class="node">
<title>Node11</title>
<g id="a_Node000011"><a xlink:href="ell__core_8hpp.html" target="_top" xlink:title="Ellipsoid search space core with matrix update.">
<polygon fill="white" stroke="#666666" points="516,-184 440,-184 440,-165 516,-165 516,-184"/>
<text text-anchor="middle" x="478" y="-172" font-family="Helvetica,sans-Serif" font-size="10.00">ell_core.hpp</text>
</a>
</g>
</g>
<!-- Node3&#45;&gt;Node11 -->
<g id="edge13_Node000003_Node000011" class="edge">
<title>Node3&#45;&gt;Node11</title>
<g id="a_edge13_Node000003_Node000011"><a xlink:title=" ">
<path fill="none" stroke="#63b8ff" d="M293.35,-219.98C331.16,-210.87 391.26,-196.4 432.57,-186.45"/>
<polygon fill="#63b8ff" stroke="#63b8ff" points="433.47,-189.83 442.38,-184.08 431.83,-183.02 433.47,-189.83"/>
</a>
</g>
</g>
<!-- Node6&#45;&gt;Node4 -->
<g id="edge7_Node000006_Node000004" class="edge">
<title>Node6&#45;&gt;Node4</title>
<g id="a_edge7_Node000006_Node000004"><a xlink:title=" ">
<path fill="none" stroke="#63b8ff" d="M513.94,-55C470.56,-46.19 400.99,-31.92 341,-19 340.54,-18.9 340.07,-18.8 339.6,-18.7"/>
<polygon fill="#63b8ff" stroke="#63b8ff" points="340.08,-15.22 329.56,-16.5 338.58,-22.06 340.08,-15.22"/>
</a>
</g>
</g>
<!-- Node6&#45;&gt;Node5 -->
<g id="edge12_Node000006_Node000005" class="edge">
<title>Node6&#45;&gt;Node5</title>
<g id="a_edge12_Node000006_Node000005"><a xlink:title=" ">
<path fill="none" stroke="#63b8ff" d="M575.44,-54.98C594.99,-46.42 625.38,-33.11 647.82,-23.28"/>
<polygon fill="#63b8ff" stroke="#63b8ff" points="649.45,-26.39 657.21,-19.17 646.64,-19.98 649.45,-26.39"/>
</a>
</g>
</g>
<!-- Node7 -->
<g id="Node000007" class="node">
<title>Node7</title>
<g id="a_Node000007"><a xlink:title=" ">
<polygon fill="#e0e0e0" stroke="#999999" points="553.5,-19 496.5,-19 496.5,0 553.5,0 553.5,-19"/>
<text text-anchor="middle" x="525" y="-7" font-family="Helvetica,sans-Serif" font-size="10.00">ostream</text>
</a>
</g>
</g>
<!-- Node6&#45;&gt;Node7 -->
<g id="edge8_Node000006_Node000007" class="edge">
<title>Node6&#45;&gt;Node7</title>
<g id="a_edge8_Node000006_Node000007"><a xlink:title=" ">
<path fill="none" stroke="#63b8ff" d="M550.88,-54.75C546.64,-47.49 540.47,-36.95 535.22,-27.98"/>
<polygon fill="#63b8ff" stroke="#63b8ff" points="538.09,-25.95 530.02,-19.09 532.05,-29.49 538.09,-25.95"/>
</a>
</g>
</g>
<!-- Node8 -->
<g id="Node000008" class="node">
<title>Node8</title>
<g id="a_Node000008"><a xlink:title=" ">
<polygon fill="#e0e0e0" stroke="#999999" points="636.5,-19 571.5,-19 571.5,0 636.5,0 636.5,-19"/>
<text text-anchor="middle" x="604" y="-7" font-family="Helvetica,sans-Serif" font-size="10.00">stdexcept</text>
</a>
</g>
</g>
<!-- Node6&#45;&gt;Node8 -->
<g id="edge9_Node000006_Node000008" class="edge">
<title>Node6&#45;&gt;Node8</title>
<g id="a_edge9_Node000006_Node000008"><a xlink:title=" ">
<path fill="none" stroke="#63b8ff" d="M563.93,-54.75C570.85,-47.11 581.07,-35.82 589.45,-26.56"/>
<polygon fill="#63b8ff" stroke="#63b8ff" points="592.1,-28.85 596.22,-19.09 586.91,-24.15 592.1,-28.85"/>
</a>
</g>
</g>
<!-- Node9 -->
<g id="Node000009" class="node">
<title>Node9</title>
<g id="a_Node000009"><a xlink:title=" ">
<polygon fill="#e0e0e0" stroke="#999999" points="391.5,-19 350.5,-19 350.5,0 391.5,0 391.5,-19"/>
<text text-anchor="middle" x="371" y="-7" font-family="Helvetica,sans-Serif" font-size="10.00">tuple</text>
</a>
</g>
</g>
<!-- Node6&#45;&gt;Node9 -->
<g id="edge10_Node000006_Node000009" class="edge">
<title>Node6&#45;&gt;Node9</title>
<g id="a_edge10_Node000006_Node000009"><a xlink:title=" ">
<path fill="none" stroke="#63b8ff" d="M525.78,-54.95C496.31,-46.6 449.95,-33.41 401.34,-19.37"/>
<polygon fill="#63b8ff" stroke="#63b8ff" points="402.17,-15.97 391.59,-16.55 400.22,-22.69 402.17,-15.97"/>
</a>
</g>
</g>
<!-- Node10 -->
<g id="Node000010" class="node">
<title>Node10</title>
<g id="a_Node000010"><a xlink:title=" ">
<polygon fill="#e0e0e0" stroke="#999999" points="478.5,-19 409.5,-19 409.5,0 478.5,0 478.5,-19"/>
<text text-anchor="middle" x="444" y="-7" font-family="Helvetica,sans-Serif" font-size="10.00">type_traits</text>
</a>
</g>
</g>
<!-- Node6&#45;&gt;Node10 -->
<g id="edge11_Node000006_Node000010" class="edge">
<title>Node6&#45;&gt;Node10</title>
<g id="a_edge11_Node000006_Node000010"><a xlink:title=" ">
<path fill="none" stroke="#63b8ff" d="M538.01,-54.98C520.07,-46.5 492.28,-33.35 471.57,-23.54"/>
<polygon fill="#63b8ff" stroke="#63b8ff" points="472.86,-20.28 462.32,-19.17 469.86,-26.61 472.86,-20.28"/>
</a>
</g>
</g>
<!-- Node11&#45;&gt;Node2 -->
<g id="edge17_Node000011_Node000002" class="edge">
<title>Node11&#45;&gt;Node2</title>
<g id="a_edge17_Node000011_Node000002"><a xlink:title=" ">
<path fill="none" stroke="#63b8ff" d="M439.6,-172.51C383.33,-169.97 275.95,-160.95 191,-129 159.95,-117.32 128.33,-95.15 109.18,-80.35"/>
<polygon fill="#63b8ff" stroke="#63b8ff" points="111.33,-77.58 101.31,-74.13 106.99,-83.07 111.33,-77.58"/>
</a>
</g>
</g>
<!-- Node11&#45;&gt;Node5 -->
<g id="edge16_Node000011_Node000005" class="edge">
<title>Node11&#45;&gt;Node5</title>
<g id="a_edge16_Node000011_Node000005"><a xlink:title=" ">
<path fill="none" stroke="#63b8ff" d="M509.41,-164.96C531.74,-157.83 561.62,-146.06 584,-129 621.45,-100.44 652.24,-53.42 667.2,-28.04"/>
<polygon fill="#63b8ff" stroke="#63b8ff" points="670.35,-29.59 672.3,-19.18 664.28,-26.1 670.35,-29.59"/>
</a>
</g>
</g>
<!-- Node11&#45;&gt;Node6 -->
<g id="edge24_Node000011_Node000006" class="edge">
<title>Node11&#45;&gt;Node6</title>
<g id="a_edge24_Node000011_Node000006"><a xlink:title=" ">
<path fill="none" stroke="#63b8ff" d="M515.15,-164.9C534.16,-158.41 555.65,-147.37 567,-129 575.53,-115.2 570.87,-96.65 565.22,-83.17"/>
<polygon fill="#63b8ff" stroke="#63b8ff" points="568.33,-81.57 560.91,-74.01 562,-84.55 568.33,-81.57"/>
</a>
</g>
</g>
<!-- Node12 -->
<g id="Node000012" class="node">
<title>Node12</title>
<g id="a_Node000012"><a xlink:title=" ">
<polygon fill="#e0e0e0" stroke="#999999" points="484,-129 440,-129 440,-110 484,-110 484,-129"/>
<text text-anchor="middle" x="462" y="-117" font-family="Helvetica,sans-Serif" font-size="10.00">limits</text>
</a>
</g>
</g>
<!-- Node11&#45;&gt;Node12 -->
<g id="edge14_Node000011_Node000012" class="edge">
<title>Node11&#45;&gt;Node12</title>
<g id="a_edge14_Node000011_Node000012"><a xlink:title=" ">
<path fill="none" stroke="#63b8ff" d="M475.36,-164.75C473.24,-157.72 470.19,-147.62 467.54,-138.84"/>
<polygon fill="#63b8ff" stroke="#63b8ff" points="470.83,-137.65 464.59,-129.09 464.13,-139.67 470.83,-137.65"/>
</a>
</g>
</g>
<!-- Node13 -->
<g id="Node000013" class="node">
<title>Node13</title>
<g id="a_Node000013"><a xlink:title=" ">
<polygon fill="#e0e0e0" stroke="#999999" points="558,-129 502,-129 502,-110 558,-110 558,-129"/>
<text text-anchor="middle" x="530" y="-117" font-family="Helvetica,sans-Serif" font-size="10.00">optional</text>
</a>
</g>
</g>
<!-- Node11&#45;&gt;Node13 -->
<g id="edge15_Node000011_Node000013" class="edge">
<title>Node11&#45;&gt;Node13</title>
<g id="a_edge15_Node000011_Node000013"><a xlink:title=" ">
<path fill="none" stroke="#63b8ff" d="M486.59,-164.75C494.16,-157.03 505.38,-145.6 514.51,-136.28"/>
<polygon fill="#63b8ff" stroke="#63b8ff" points="517.07,-138.68 521.57,-129.09 512.07,-133.78 517.07,-138.68"/>
</a>
</g>
</g>
<!-- Node14 -->
<g id="Node000014" class="node">
<title>Node14</title>
<g id="a_Node000014"><a xlink:href="ell__calc_8hpp.html" target="_top" xlink:title="Ellipsoid computation layer with cut dispatch.">
<polygon fill="white" stroke="#666666" points="384,-129 310,-129 310,-110 384,-110 384,-129"/>
<text text-anchor="middle" x="347" y="-117" font-family="Helvetica,sans-Serif" font-size="10.00">ell_calc.hpp</text>
</a>
</g>
</g>
<!-- Node11&#45;&gt;Node14 -->
<g id="edge18_Node000011_Node000014" class="edge">
<title>Node11&#45;&gt;Node14</title>
<g id="a_edge18_Node000011_Node000014"><a xlink:title=" ">
<path fill="none" stroke="#63b8ff" d="M456.95,-164.98C435.59,-156.34 402.3,-142.87 377.94,-133.02"/>
<polygon fill="#63b8ff" stroke="#63b8ff" points="379.01,-129.68 368.43,-129.17 376.39,-136.17 379.01,-129.68"/>
</a>
</g>
</g>
<!-- Node17 -->
<g id="Node000017" class="node">
<title>Node17</title>
<g id="a_Node000017"><a xlink:href="ell__matrix_8hpp.html" target="_top" xlink:title="Square matrix with flat storage and strided views.">
<polygon fill="white" stroke="#666666" points="287.5,-129 200.5,-129 200.5,-110 287.5,-110 287.5,-129"/>
<text text-anchor="middle" x="244" y="-117" font-family="Helvetica,sans-Serif" font-size="10.00">ell_matrix.hpp</text>
</a>
</g>
</g>
<!-- Node11&#45;&gt;Node17 -->
<g id="edge25_Node000011_Node000017" class="edge">
<title>Node11&#45;&gt;Node17</title>
<g id="a_edge25_Node000011_Node000017"><a xlink:title=" ">
<path fill="none" stroke="#63b8ff" d="M440.4,-164.98C400.01,-155.84 335.72,-141.27 291.77,-131.32"/>
<polygon fill="#63b8ff" stroke="#63b8ff" points="292.42,-127.88 281.89,-129.08 290.87,-134.7 292.42,-127.88"/>
</a>
</g>
</g>
<!-- Node14&#45;&gt;Node6 -->
<g id="edge23_Node000014_Node000006" class="edge">
<title>Node14&#45;&gt;Node6</title>
<g id="a_edge23_Node000014_Node000006"><a xlink:title=" ">
<path fill="none" stroke="#63b8ff" d="M380.58,-109.98C416.35,-100.91 473.12,-86.52 512.34,-76.57"/>
<polygon fill="#63b8ff" stroke="#63b8ff" points="513.32,-79.93 522.16,-74.08 511.6,-73.15 513.32,-79.93"/>
</a>
</g>
</g>
<!-- Node15 -->
<g id="Node000015" class="node">
<title>Node15</title>
<g id="a_Node000015"><a xlink:title=" ">
<polygon fill="#e0e0e0" stroke="#999999" points="496,-74 444,-74 444,-55 496,-55 496,-74"/>
<text text-anchor="middle" x="470" y="-62" font-family="Helvetica,sans-Serif" font-size="10.00">cassert</text>
</a>
</g>
</g>
<!-- Node14&#45;&gt;Node15 -->
<g id="edge19_Node000014_Node000015" class="edge">
<title>Node14&#45;&gt;Node15</title>
<g id="a_edge19_Node000014_Node000015"><a xlink:title=" ">
<path fill="none" stroke="#63b8ff" d="M366.76,-109.98C386.73,-101.38 417.8,-87.99 440.65,-78.15"/>
<polygon fill="#63b8ff" stroke="#63b8ff" points="442.08,-81.34 449.88,-74.17 439.31,-74.91 442.08,-81.34"/>
</a>
</g>
</g>
<!-- Node16 -->
<g id="Node000016" class="node">
<title>Node16</title>
<g id="a_Node000016"><a xlink:href="ell__calc__core_8hpp.html" target="_top" xlink:title="Core ellipsoid calculation routines.">
<polygon fill="white" stroke="#666666" points="425.5,-74 324.5,-74 324.5,-55 425.5,-55 425.5,-74"/>
<text text-anchor="middle" x="375" y="-62" font-family="Helvetica,sans-Serif" font-size="10.00">ell_calc_core.hpp</text>
</a>
</g>
</g>
<!-- Node14&#45;&gt;Node16 -->
<g id="edge20_Node000014_Node000016" class="edge">
<title>Node14&#45;&gt;Node16</title>
<g id="a_edge20_Node000014_Node000016"><a xlink:title=" ">
<path fill="none" stroke="#63b8ff" d="M351.62,-109.75C355.46,-102.49 361.02,-91.95 365.76,-82.98"/>
<polygon fill="#63b8ff" stroke="#63b8ff" points="368.89,-84.57 370.46,-74.09 362.7,-81.3 368.89,-84.57"/>
</a>
</g>
</g>
<!-- Node16&#45;&gt;Node4 -->
<g id="edge21_Node000016_Node000004" class="edge">
<title>Node16&#45;&gt;Node4</title>
<g id="a_edge21_Node000016_Node000004"><a xlink:title=" ">
<path fill="none" stroke="#63b8ff" d="M363.43,-54.98C352.58,-47 336.12,-34.88 323.12,-25.31"/>
<polygon fill="#63b8ff" stroke="#63b8ff" points="324.91,-22.28 314.78,-19.17 320.76,-27.92 324.91,-22.28"/>
</a>
</g>
</g>
<!-- Node16&#45;&gt;Node9 -->
<g id="edge22_Node000016_Node000009" class="edge">
<title>Node16&#45;&gt;Node9</title>
<g id="a_edge22_Node000016_Node000009"><a xlink:title=" ">
<path fill="none" stroke="#63b8ff" d="M374.34,-54.75C373.82,-47.8 373.06,-37.85 372.41,-29.13"/>
<polygon fill="#63b8ff" stroke="#63b8ff" points="375.89,-28.8 371.65,-19.09 368.91,-29.32 375.89,-28.8"/>
</a>
</g>
</g>
<!-- Node17&#45;&gt;Node2 -->
<g id="edge28_Node000017_Node000002" class="edge">
<title>Node17&#45;&gt;Node2</title>
<g id="a_edge28_Node000017_Node000002"><a xlink:title=" ">
<path fill="none" stroke="#63b8ff" d="M219.42,-109.98C193.95,-101.16 153.96,-87.31 125.37,-77.41"/>
<polygon fill="#63b8ff" stroke="#63b8ff" points="126.37,-74.05 115.77,-74.08 124.08,-80.66 126.37,-74.05"/>
</a>
</g>
</g>
<!-- Node17&#45;&gt;Node4 -->
<g id="edge27_Node000017_Node000004" class="edge">
<title>Node17&#45;&gt;Node4</title>
<g id="a_edge27_Node000017_Node000004"><a xlink:title=" ">
<path fill="none" stroke="#63b8ff" d="M251.24,-109.69C258.16,-100.98 268.62,-87.1 276,-74 284.17,-59.48 291.43,-42 296.36,-29.06"/>
<polygon fill="#63b8ff" stroke="#63b8ff" points="299.74,-30.01 299.92,-19.42 293.17,-27.59 299.74,-30.01"/>
</a>
</g>
</g>
<!-- Node18 -->
<g id="Node000018" class="node">
<title>Node18</title>
<g id="a_Node000018"><a xlink:title=" ">
<polygon fill="#e0e0e0" stroke="#999999" points="202,-74 138,-74 138,-55 202,-55 202,-74"/>
<text text-anchor="middle" x="170" y="-62" font-family="Helvetica,sans-Serif" font-size="10.00">algorithm</text>
</a>
</g>
</g>
<!-- Node17&#45;&gt;Node18 -->
<g id="edge26_Node000017_Node000018" class="edge">
<title>Node17&#45;&gt;Node18</title>
<g id="a_edge26_Node000017_Node000018"><a xlink:title=" ">
<path fill="none" stroke="#63b8ff" d="M232.11,-109.98C220.85,-101.92 203.71,-89.65 190.29,-80.03"/>
<polygon fill="#63b8ff" stroke="#63b8ff" points="192.27,-77.15 182.11,-74.17 188.2,-82.84 192.27,-77.15"/>
</a>
</g>
</g>
<!-- Node19 -->
<g id="Node000019" class="node">
<title>Node19</title>
<g id="a_Node000019"><a xlink:title=" ">
<polygon fill="#e0e0e0" stroke="#999999" points="267.5,-74 220.5,-74 220.5,-55 267.5,-55 267.5,-74"/>
<text text-anchor="middle" x="244" y="-62" font-family="Helvetica,sans-Serif" font-size="10.00">vector</text>
</a>
</g>
</g>
<!-- Node17&#45;&gt;Node19 -->
<g id="edge29_Node000017_Node000019" class="edge">
<title>Node17&#45;&gt;Node19</title>
<g id="a_edge29_Node000017_Node000019"><a xlink:title=" ">
<path fill="none" stroke="#63b8ff" d="M244,-109.75C244,-102.8 244,-92.85 244,-84.13"/>
<polygon fill="#63b8ff" stroke="#63b8ff" points="247.5,-84.09 244,-74.09 240.5,-84.09 247.5,-84.09"/>
</a>
</g>
</g>
</g>
</svg>
