<?xml version="1.0" encoding="UTF-8" standalone="no"?>
<!DOCTYPE svg PUBLIC "-//W3C//DTD SVG 1.1//EN"
 "http://www.w3.org/Graphics/SVG/1.1/DTD/svg11.dtd">
<!-- Generated by graphviz version 2.43.0 (0)
 -->
<!-- Title: ellalgo/ell_calc.hpp Pages: 1 -->
<svg width="332pt" height="137pt"
 viewBox="0.00 0.00 331.50 137.00" xmlns="http://www.w3.org/2000/svg" xmlns:xlink="http://www.w3.org/1999/xlink">
<g id="graph0" class="graph" transform="scale(1 1) rotate(0) translate(4 133)">
<title>ellalgo/ell_calc.hpp</title>
<!-- Node1 -->
<g id="Node000001" class="node">
<title>Node1</title>
<g id="a_Node000001"><a xlink:title="Ellipsoid computation layer with cut dispatch.">
<polygon fill="#999999" stroke="#666666" points="176,-129 66,-129 66,-110 176,-110 176,-129"/>
<text text-anchor="middle" x="121" y="-117" font-family="Helvetica,sans-Serif" font-size="10.00">ellalgo/ell_calc.hpp</text>
</a>
</g>
</g>
<!-- Node2 -->
<g id="Node000002" class="node">
<title>Node2</title>
<g id="a_Node000002"><a xlink:title=" ">
<polygon fill="#e0e0e0" stroke="#999999" points="52,-74 0,-74 0,-55 52,-55 52,-74"/>
<text text-anchor="middle" x="26" y="-62" font-family="Helvetica,sans-Serif" font-size="10.00">cassert</text>
</a>
</g>
</g>
<!-- Node1&#45;&gt;Node2 -->
<g id="edge1_Node000001_Node000002" class="edge">
<title>Node1&#45;&gt;Node2</title>
<g id="a_edge1_Node000001_Node000002"><a xlink:title=" ">
<path fill="none" stroke="#63b8ff" d="M105.74,-109.98C90.87,-101.69 68.02,-88.94 50.58,-79.22"/>
<polygon fill="#63b8ff" stroke="#63b8ff" points="51.98,-75.99 41.54,-74.17 48.57,-82.1 51.98,-75.99"/>
</a>
</g>
</g>
<!-- Node3 -->
<g id="Node000003" class="node">
<title>Node3</title>
<g id="a_Node000003"><a xlink:href="ell__calc__core_8hpp.html" target="_top" xlink:title="Core ellipsoid calculation routines.">
<polygon fill="white" stroke="#666666" points="171.5,-74 70.5,-74 70.5,-55 171.5,-55 171.5,-74"/>
<text text-anchor="middle" x="121" y="-62" font-family="Helvetica,sans-Serif" font-size="10.00">ell_calc_core.hpp</text>
</a>
</g>
</g>
<!-- Node1&#45;&gt;Node3 -->
<g id="edge2_Node000001_Node000003" class="edge">
<title>Node1&#45;&gt;Node3</title>
<g id="a_edge2_Node000001_Node000003"><a xlink:title=" ">
<path fill="none" stroke="#63b8ff" d="M121,-109.75C121,-102.8 121,-92.85 121,-84.13"/>
<polygon fill="#63b8ff" stroke="#63b8ff" points="124.5,-84.09 121,-74.09 117.5,-84.09 124.5,-84.09"/>
</a>
</g>
</g>
<!-- Node6 -->
<g id="Node000006" class="node">
<title>Node6</title>
<g id="a_Node000006"><a xlink:href="ell__config_8hpp.html" target="_top" xlink:title="Configuration types and constants for the ellipsoid algorithm.">
<polygon fill="white" stroke="#666666" points="274,-74 190,-74 190,-55 274,-55 274,-74"/>
<text text-anchor="middle" x="232" y="-62" font-family="Helvetica,sans-Serif" font-size="10.00">ell_config.hpp</text>
</a>
</g>
</g>
<!-- Node1&#45;&gt;Node6 -->
<g id="edge5_Node000001_Node000006" class="edge">
<title>Node1&#45;&gt;Node6</title>
<g id="a_edge5_Node000001_Node000006"><a xlink:title=" ">
<path fill="none" stroke="#63b8ff" d="M138.83,-109.98C156.61,-101.5 184.15,-88.35 204.68,-78.54"/>
<polygon fill="#63b8ff" stroke="#63b8ff" points="206.33,-81.64 213.84,-74.17 203.31,-75.32 206.33,-81.64"/>
</a>
</g>
</g>
<!-- Node4 -->
<g id="Node000004" class="node">
<title>Node4</title>
<g id="a_Node000004"><a xlink:title=" ">
<polygon fill="#e0e0e0" stroke="#999999" points="185.5,-19 132.5,-19 132.5,0 185.5,0 185.5,-19"/>
<text text-anchor="middle" x="159" y="-7" font-family="Helvetica,sans-Serif" font-size="10.00">cstddef</text>
</a>
</g>
</g>
<!-- Node3&#45;&gt;Node4 -->
<g id="edge3_Node000003_Node000004" class="edge">
<title>Node3&#45;&gt;Node4</title>
<g id="a_edge3_Node000003_Node000004"><a xlink:title=" ">
<path fill="none" stroke="#63b8ff" d="M127.27,-54.75C132.59,-47.34 140.36,-36.5 146.88,-27.41"/>
<polygon fill="#63b8ff" stroke="#63b8ff" points="149.86,-29.26 152.84,-19.09 144.17,-25.18 149.86,-29.26"/>
</a>
</g>
</g>
<!-- Node5 -->
<g id="Node000005" class="node">
<title>Node5</title>
<g id="a_Node000005"><a xlink:title=" ">
<polygon fill="#e0e0e0" stroke="#999999" points="114.5,-19 73.5,-19 73.5,0 114.5,0 114.5,-19"/>
<text text-anchor="middle" x="94" y="-7" font-family="Helvetica,sans-Serif" font-size="10.00">tuple</text>
</a>
</g>
</g>
<!-- Node3&#45;&gt;Node5 -->
<g id="edge4_Node000003_Node000005" class="edge">
<title>Node3&#45;&gt;Node5</title>
<g id="a_edge4_Node000003_Node000005"><a xlink:title=" ">
<path fill="none" stroke="#63b8ff" d="M116.54,-54.75C112.88,-47.57 107.59,-37.18 103.05,-28.27"/>
<polygon fill="#63b8ff" stroke="#63b8ff" points="106.03,-26.41 98.38,-19.09 99.8,-29.59 106.03,-26.41"/>
</a>
</g>
</g>
<!-- Node6&#45;&gt;Node4 -->
<g id="edge6_Node000006_Node000004" class="edge">
<title>Node6&#45;&gt;Node4</title>
<g id="a_edge6_Node000006_Node000004"><a xlink:title=" ">
<path fill="none" stroke="#63b8ff" d="M220.27,-54.98C209.27,-47 192.58,-34.88 179.4,-25.31"/>
<polygon fill="#63b8ff" stroke="#63b8ff" points="181.09,-22.21 170.94,-19.17 176.98,-27.88 181.09,-22.21"/>
</a>
</g>
</g>
<!-- Node7 -->
<g id="Node000007" class="node">
<title>Node7</title>
<g id="a_Node000007"><a xlink:title=" ">
<polygon fill="#e0e0e0" stroke="#999999" points="260.5,-19 203.5,-19 203.5,0 260.5,0 260.5,-19"/>
<text text-anchor="middle" x="232" y="-7" font-family="Helvetica,sans-Serif" font-size="10.00">ostream</text>
</a>
</g>
</g>
<!-- Node6&#45;&gt;Node7 -->
<g id="edge7_Node000006_Node000007" class="edge">
<title>Node6&#45;&gt;Node7</title>
<g id="a_edge7_Node000006_Node000007"><a xlink:title=" ">
<path fill="none" stroke="#63b8ff" d="M232,-54.75C232,-47.8 232,-37.85 232,-29.13"/>
<polygon fill="#63b8ff" stroke="#63b8ff" points="235.5,-29.09 232,-19.09 228.5,-29.09 235.5,-29.09"/>
</a>
</g>
</g>
<!-- Node8 -->
<g id="Node000008" class="node">
<title>Node8</title>
<g id="a_Node000008"><a xlink:title=" ">
<polygon fill="#e0e0e0" stroke="#999999" points="323.5,-19 278.5,-19 278.5,0 323.5,0 323.5,-19"/>
<text text-anchor="middle" x="301" y="-7" font-family="Helvetica,sans-Serif" font-size="10.00">utility</text>
</a>
</g>
</g>
<!-- Node6&#45;&gt;Node8 -->
<g id="edge8_Node000006_Node000008" class="edge">
<title>Node6&#45;&gt;Node8</title>
<g id="a_edge8_Node000006_Node000008"><a xlink:title=" ">
<path fill="none" stroke="#63b8ff" d="M243.09,-54.98C253.49,-47 269.26,-34.88 281.72,-25.31"/>
<polygon fill="#63b8ff" stroke="#63b8ff" points="283.91,-28.04 289.71,-19.17 279.65,-22.49 283.91,-28.04"/>
</a>
</g>
</g>
</g>
</svg>
