<?xml version="1.0" encoding="UTF-8" standalone="no"?>
<!DOCTYPE svg PUBLIC "-//W3C//DTD SVG 1.1//EN"
 "http://www.w3.org/Graphics/SVG/1.1/DTD/svg11.dtd">
<!-- Generated by graphviz version 2.43.0 (0)
 -->
<!-- Title: ellalgo/ell_calc_core.hpp Pages: 1 -->
<svg width="234pt" height="192pt"
 viewBox="0.00 0.00 233.50 192.00" xmlns="http://www.w3.org/2000/svg" xmlns:xlink="http://www.w3.org/1999/xlink">
<g id="graph0" class="graph" transform="scale(1 1) rotate(0) translate(4 188)">
<title>ellalgo/ell_calc_core.hpp</title>
<!-- Node1 -->
<g id="Node000001" class="node">
<title>Node1</title>
<g id="a_Node000001"><a xlink:title="Core ellipsoid calculation routines.">
<polygon fill="#999999" stroke="#666666" points="172.5,-184 35.5,-184 35.5,-165 172.5,-165 172.5,-184"/>
<text text-anchor="middle" x="104" y="-172" font-family="Helvetica,sans-Serif" font-size="10.00">ellalgo/ell_calc_core.hpp</text>
</a>
</g>
</g>
<!-- Node2 -->
<g id="Node000002" class="node">
<title>Node2</title>
<g id="a_Node000002"><a xlink:href="ell__calc_8hpp.html" target="_top" xlink:title="Ellipsoid computation layer with cut dispatch.">
<polygon fill="white" stroke="#666666" points="159,-129 49,-129 49,-110 159,-110 159,-129"/>
<text text-anchor="middle" x="104" y="-117" font-family="Helvetica,sans-Serif" font-size="10.00">ellalgo/ell_calc.hpp</text>
</a>
</g>
</g>
<!-- Node1&#45;&gt;Node2 -->
<g id="edge1_Node000001_Node000002" class="edge">
<title>Node1&#45;&gt;Node2</title>
<g id="a_edge1_Node000001_Node000002"><a xlink:title=" ">
<path fill="none" stroke="#63b8ff" d="M104,-154.66C104,-145.93 104,-135.99 104,-129.09"/>
<polygon fill="#63b8ff" stroke="#63b8ff" points="100.5,-154.75 104,-164.75 107.5,-154.75 100.5,-154.75"/>
</a>
</g>
</g>
<!-- Node3 -->
<g id="Node000003" class="node">
<title>Node3</title>
<g id="a_Node000003"><a xlink:href="ell__core_8hpp.html" target="_top" xlink:title="Ellipsoid search space core with matrix update.">
<polygon fill="white" stroke="#666666" points="160,-74 48,-74 48,-55 160,-55 160,-74"/>
<text text-anchor="middle" x="104" y="-62" font-family="Helvetica,sans-Serif" font-size="10.00">ellalgo/ell_core.hpp</text>
</a>
</g>
</g>
<!-- Node2&#45;&gt;Node3 -->
<g id="edge2_Node000002_Node000003" class="edge">
<title>Node2&#45;&gt;Node3</title>
<g id="a_edge2_Node000002_Node000003"><a xlink:title=" ">
<path fill="none" stroke="#63b8ff" d="M104,-99.66C104,-90.93 104,-80.99 104,-74.09"/>
<polygon fill="#63b8ff" stroke="#63b8ff" points="100.5,-99.75 104,-109.75 107.5,-99.75 100.5,-99.75"/>
</a>
</g>
</g>
<!-- Node4 -->
<g id="Node000004" class="node">
<title>Node4</title>
<g id="a_Node000004"><a xlink:href="ell_8hpp.html" target="_top" xlink:title="Ellipsoid search space main class.">
<polygon fill="white" stroke="#666666" points="86,-19 0,-19 0,0 86,0 86,-19"/>
<text text-anchor="middle" x="43" y="-7" font-family="Helvetica,sans-Serif" font-size="10.00">ellalgo/ell.hpp</text>
</a>
</g>
</g>
<!-- Node3&#45;&gt;Node4 -->
<g id="edge3_Node000003_Node000004" class="edge">
<title>Node3&#45;&gt;Node4</title>
<g id="a_edge3_Node000003_Node000004"><a xlink:title=" ">
<path fill="none" stroke="#63b8ff" d="M86.53,-48.32C75.66,-38.87 62.06,-27.06 52.98,-19.17"/>
<polygon fill="#63b8ff" stroke="#63b8ff" points="84.35,-51.07 94.2,-54.98 88.95,-45.78 84.35,-51.07"/>
</a>
</g>
</g>
<!-- Node5 -->
<g id="Node000005" class="node">
<title>Node5</title>
<g id="a_Node000005"><a xlink:href="ell__stable_8hpp.html" target="_top" xlink:title="Numerically stable ellipsoid search space (LDL^T&#45;based)">
<polygon fill="white" stroke="#666666" points="225.5,-19 104.5,-19 104.5,0 225.5,0 225.5,-19"/>
<text text-anchor="middle" x="165" y="-7" font-family="Helvetica,sans-Serif" font-size="10.00">ellalgo/ell_stable.hpp</text>
</a>
</g>
</g>
<!-- Node3&#45;&gt;Node5 -->
<g id="edge4_Node000003_Node000005" class="edge">
<title>Node3&#45;&gt;Node5</title>
<g id="a_edge4_Node000003_Node000005"><a xlink:title=" ">
<path fill="none" stroke="#63b8ff" d="M121.47,-48.32C132.34,-38.87 145.94,-27.06 155.02,-19.17"/>
<polygon fill="#63b8ff" stroke="#63b8ff" points="119.05,-45.78 113.8,-54.98 123.65,-51.07 119.05,-45.78"/>
</a>
</g>
</g>
</g>
</svg>
