<?xml version="1.0" encoding="UTF-8" standalone="no"?>
<!DOCTYPE svg PUBLIC "-//W3C//DTD SVG 1.1//EN"
 "http://www.w3.org/Graphics/SVG/1.1/DTD/svg11.dtd">
<!-- Generated by graphviz version 2.43.0 (0)
 -->
<!-- Title: ellalgo/ell_stable.hpp Pages: 1 -->
<svg width="725pt" height="302pt"
 viewBox="0.00 0.00 725.00 302.00" xmlns="http://www.w3.org/2000/svg" xmlns:xlink="http://www.w3.org/1999/xlink">
<g id="graph0" class="graph" transform="scale(1 1) rotate(0) translate(4 298)">
<title>ellalgo/ell_stable.hpp</title>
<!-- Node1 -->
<g id="Node000001" class="node">
<title>Node1</title>
<g id="a_Node000001"><a xlink:title="Numerically stable ellipsoid search space (LDL^T strategy)">
<polygon fill="#999999" stroke="#666666" points="121,-294 0,-294 0,-275 121,-275 121,-294"/>
<text text-anchor="middle" x="60.5" y="-282" font-family="Helvetica,sans-Serif" font-size="10.00">ellalgo/ell_stable.hpp</text>
</a>
</g>
</g>
<!-- Node2 -->
<g id="Node000002" class="node">
<title>Node2</title>
<g id="a_Node000002"><a xlink:title=" ">
<polygon fill="#e0e0e0" stroke="#999999" points="137,-74 80,-74 80,-55 137,-55 137,-74"/>
<text text-anchor="middle" x="108.5" y="-62" font-family="Helvetica,sans-Serif" font-size="10.00">valarray</text>
</a>
</g>
</g>
<!-- Node1&#45;&gt;Node2 -->
<g id="edge1_Node000001_Node000002" class="edge">
<title>Node1&#45;&gt;Node2</title>
<g id="a_edge1_Node000001_Node000002"><a xlink:title=" ">
<path fill="none" stroke="#63b8ff" d="M62.38,-274.95C69.44,-242.88 94.47,-129.2 104.4,-84.12"/>
<polygon fill="#63b8ff" stroke="#63b8ff" points="107.85,-84.74 106.58,-74.22 101.01,-83.24 107.85,-84.74"/>
</a>
</g>
</g>
<!-- Node3 -->
<g id="Node000003" class="node">
<title>Node3</title>
<g id="a_Node000003"><a xlink:href="ell__base_8hpp.html" target="_top" xlink:title="Shared ellipsoid search space base (compile&#45;time Strategy)">
<polygon fill="white" stroke="#666666" points="314.5,-239 236.5,-239 236.5,-220 314.5,-220 314.5,-239"/>
<text text-anchor="middle" x="275.5" y="-227" font-family="Helvetica,sans-Serif" font-size="10.00">ell_base.hpp</text>
</a>
</g>
</g>
<!-- Node1&#45;&gt;Node3 -->
<g id="edge2_Node000001_Node000003" class="edge">
<title>Node1&#45;&gt;Node3</title>
<g id="a_edge2_Node000001_Node000003"><a xlink:title=" ">
<path fill="none" stroke="#63b8ff" d="M95.04,-274.98C131.92,-265.89 190.49,-251.46 230.84,-241.51"/>
<polygon fill="#63b8ff" stroke="#63b8ff" points="231.81,-244.87 240.69,-239.08 230.14,-238.08 231.81,-244.87"/>
</a>
</g>
</g>
<!-- Node3&#45;&gt;Node2 -->
<g id="edge5_Node000003_Node000002" class="edge">
<title>Node3&#45;&gt;Node2</title>
<g id="a_edge5_Node000003_Node000002"><a xlink:title=" ">
<path fill="none" stroke="#63b8ff" d="M265.73,-219.96C246.5,-203.05 202.55,-163.9 167.5,-129 151.93,-113.5 134.93,-95.02 123.19,-82.01"/>
<polygon fill="#63b8ff" stroke="#63b8ff" points="125.59,-79.44 116.31,-74.33 120.38,-84.11 125.59,-79.44"/>
</a>
</g>
</g>
<!-- Node4 -->
<g id="Node000004" class="node">
<title>Node4</title>
<g id="a_Node000004"><a xlink:title=" ">
<polygon fill="#e0e0e0" stroke="#999999" points="347,-19 294,-19 294,0 347,0 347,-19"/>
<text text-anchor="middle" x="320.5" y="-7" font-family="Helvetica,sans-Serif" font-size="10.00">cstddef</text>
</a>
</g>
</g>
<!-- Node3&#45;&gt;Node4 -->
<g id="edge3_Node000003_Node000004" class="edge">
<title>Node3&#45;&gt;Node4</title>
<g id="a_edge3_Node000003_Node000004"><a xlink:title=" ">
<path fill="none" stroke="#63b8ff" d="M249.03,-220C180.81,-196.76 8.52,-128.99 70.5,-55 97.26,-23.05 220.85,-14.02 283.65,-11.48"/>
<polygon fill="#63b8ff" stroke="#63b8ff" points="284.05,-14.97 293.91,-11.11 283.79,-7.98 284.05,-14.97"/>
</a>
</g>
</g>
<!-- Node5 -->
<g id="Node000005" class="node">
<title>Node5</title>
<g id="a_Node000005"><a xlink:title=" ">
<polygon fill="#e0e0e0" stroke="#999999" points="717,-19 672,-19 672,0 717,0 717,-19"/>
<text text-anchor="middle" x="694.5" y="-7" font-family="Helvetica,sans-Serif" font-size="10.00">utility</text>
</a>
</g>
</g>
<!-- Node3&#45;&gt;Node5 -->
<g id="edge4_Node000003_Node000005" class="edge">
<title>Node3&#45;&gt;Node5</title>
<g id="a_edge4_Node000003_Node000005"><a xlink:title=" ">
<path fill="none" stroke="#63b8ff" d="M314.88,-227.06C368.2,-223.98 465.54,-214.31 542.5,-184 613.87,-155.89 637.77,-140.79 675.5,-74 683.38,-60.05 688.31,-42.49 691.17,-29.38"/>
<polygon fill="#63b8ff" stroke="#63b8ff" points="694.67,-29.69 693.16,-19.2 687.8,-28.34 694.67,-29.69"/>
</a>
</g>
</g>
<!-- Node6 -->
<g id="Node000006" class="node">
<title>Node6</title>
<g id="a_Node000006"><a xlink:href="ell__config_8hpp.html" target="_top" xlink:title="Configuration types and constants for the ellipsoid algorithm.">
<polygon fill="white" stroke="#666666" points="615.5,-74 531.5,-74 531.5,-55 615.5,-55 615.5,-74"/>
<text text-anchor="middle" x="573.5" y="-62" font-family="Helvetica,sans-Serif" font-size="10.00">ell_config.hpp</text>
</a>
</g>
</g>
<!-- Node3&#45;&gt;Node6 -->
<g id="edge6_Node000003_Node000006" class="edge">
<title>Node3&#45;&gt;Node6</title>
<g id="a_edge6_Node000003_Node000006"><a xlink:title=" ">
<path fill="none" stroke="#63b8ff" d="M285.82,-219.99C311.76,-198.95 382.33,-143.72 448.5,-110 475.56,-96.21 507.9,-84.82 532.9,-77.02"/>
<polygon fill="#63b8ff" stroke="#63b8ff" points="534.25,-80.27 542.79,-74 532.2,-73.57 534.25,-80.27"/>
</a>
</g>
</g>
<!-- Node11 -->
<g id="Node000011" class="node">
<title>Node11</title>
<g id="a_Node000011"><a xlink:href="ell__core_8hpp.html" target="_top" xlink:title="Ellipsoid search space core with matrix update.">
<polygon fill="white" stroke="#666666" points="533.5,-184 457.5,-184 457.5,-165 533.5,-165 533.5,-184"/>
<text text-anchor="middle" x="495.5" y="-172" font-family="Helvetica,sans-Serif" font-size="10.00">ell_core.hpp</text>
</a>
</g>
</g>
<!-- Node3&#45;&gt;Node11 -->
<g id="edge13_Node000003_Node000011" class="edge">
<title>Node3&#45;&gt;Node11</title>
<g id="a_edge13_Node000003_Node000011"><a xlink:title=" ">
<path fill="none" stroke="#63b8ff" d="M310.85,-219.98C348.66,-210.87 408.76,-196.4 450.07,-186.45"/>
<polygon fill="#63b8ff" stroke="#63b8ff" points="450.97,-189.83 459.88,-184.08 449.33,-183.02 450.97,-189.83"/>
</a>
</g>
</g>
<!-- Node6&#45;&gt;Node4 -->
<g id="edge7_Node000006_Node000004" class="edge">
<title>Node6&#45;&gt;Node4</title>
<g id="a_edge7_Node000006_Node000004"><a xlink:title=" ">
<path fill="none" stroke="#63b8ff" d="M531.44,-55C488.06,-46.19 418.49,-31.92 358.5,-19 358.04,-18.9 357.57,-18.8 357.1,-18.7"/>
<polygon fill="#63b8ff" stroke="#63b8ff" points="357.58,-15.22 347.06,-16.5 356.08,-22.06 357.58,-15.22"/>
</a>
</g>
</g>
<!-- Node6&#45;&gt;Node5 -->
<g id="edge12_Node000006_Node000005" class="edge">
<title>Node6&#45;&gt;Node5</title>
<g id="a_edge12_Node000006_Node000005"><a xlink:title=" ">
<path fill="none" stroke="#63b8ff" d="M592.94,-54.98C612.49,-46.42 642.88,-33.11 665.32,-23.28"/>
<polygon fill="#63b8ff" stroke="#63b8ff" points="666.95,-26.39 674.71,-19.17 664.14,-19.98 666.95,-26.39"/>
</a>
</g>
</g>
<!-- Node7 -->
<g id="Node000007" class="node">
<title>Node7</title>
<g id="a_Node000007"><a xlink:title=" ">
<polygon fill="#e0e0e0" stroke="#999999" points="571,-19 514,-19 514,0 571,0 571,-19"/>
<text text-anchor="middle" x="542.5" y="-7" font-family="Helvetica,sans-Serif" font-size="10.00">ostream</text>
</a>
</g>
</g>
<!-- Node6&#45;&gt;Node7 -->
<g id="edge8_Node000006_Node000007" class="edge">
<title>Node6&#45;&gt;Node7</title>
<g id="a_edge8_Node000006_Node000007"><a xlink:title=" ">
<path fill="none" stroke="#63b8ff" d="M568.38,-54.75C564.14,-47.49 557.97,-36.95 552.72,-27.98"/>
<polygon fill="#63b8ff" stroke="#63b8ff" points="555.59,-25.95 547.52,-19.09 549.55,-29.49 555.59,-25.95"/>
</a>
</g>
</g>
<!-- Node8 -->
<g id="Node000008" class="node">
<title>Node8</title>
<g id="a_Node000008"><a xlink:title=" ">
<polygon fill="#e0e0e0" stroke="#999999" points="654,-19 589,-19 589,0 654,0 654,-19"/>
<text text-anchor="middle" x="621.5" y="-7" font-family="Helvetica,sans-Serif" font-size="10.00">stdexcept</text>
</a>
</g>
</g>
<!-- Node6&#45;&gt;Node8 -->
<g id="edge9_Node000006_Node000008" class="edge">
<title>Node6&#45;&gt;Node8</title>
<g id="a_edge9_Node000006_Node000008"><a xlink:title=" ">
<path fill="none" stroke="#63b8ff" d="M581.43,-54.75C588.35,-47.11 598.57,-35.82 606.95,-26.56"/>
<polygon fill="#63b8ff" stroke="#63b8ff" points="609.6,-28.85 613.72,-19.09 604.41,-24.15 609.6,-28.85"/>
</a>
</g>
</g>
<!-- Node9 -->
<g id="Node000009" class="node">
<title>Node9</title>
<g id="a_Node000009"><a xlink:title=" ">
<polygon fill="#e0e0e0" stroke="#999999" points="409,-19 368,-19 368,0 409,0 409,-19"/>
<text text-anchor="middle" x="388.5" y="-7" font-family="Helvetica,sans-Serif" font-size="10.00">tuple</text>
</a>
</g>
</g>
<!-- Node6&#45;&gt;Node9 -->
<g id="edge10_Node000006_Node000009" class="edge">
<title>Node6&#45;&gt;Node9</title>
<g id="a_edge10_Node000006_Node000009"><a xlink:title=" ">
<path fill="none" stroke="#63b8ff" d="M543.28,-54.95C513.81,-46.6 467.45,-33.41 418.84,-19.37"/>
<polygon fill="#63b8ff" stroke="#63b8ff" points="419.67,-15.97 409.09,-16.55 417.72,-22.69 419.67,-15.97"/>
</a>
</g>
</g>
<!-- Node10 -->
<g id="Node000010" class="node">
<title>Node10</title>
<g id="a_Node000010"><a xlink:title=" ">
<polygon fill="#e0e0e0" stroke="#999999" points="496,-19 427,-19 427,0 496,0 496,-19"/>
<text text-anchor="middle" x="461.5" y="-7" font-family="Helvetica,sans-Serif" font-size="10.00">type_traits</text>
</a>
</g>
</g>
<!-- Node6&#45;&gt;Node10 -->
<g id="edge11_Node000006_Node000010" class="edge">
<title>Node6&#45;&gt;Node10</title>
<g id="a_edge11_Node000006_Node000010"><a xlink:title=" ">
<path fill="none" stroke="#63b8ff" d="M555.51,-54.98C537.57,-46.5 509.78,-33.35 489.07,-23.54"/>
<polygon fill="#63b8ff" stroke="#63b8ff" points="490.36,-20.28 479.82,-19.17 487.36,-26.61 490.36,-20.28"/>
</a>
</g>
</g>
<!-- Node11&#45;&gt;Node2 -->
<g id="edge17_Node000011_Node000002" class="edge">
<title>Node11&#45;&gt;Node2</title>
<g id="a_edge17_Node000011_Node000002"><a xlink:title=" ">
<path fill="none" stroke="#63b8ff" d="M457.1,-172.51C400.83,-169.97 293.45,-160.95 208.5,-129 177.45,-117.32 145.83,-95.15 126.68,-80.35"/>
<polygon fill="#63b8ff" stroke="#63b8ff" points="128.83,-77.58 118.81,-74.13 124.49,-83.07 128.83,-77.58"/>
</a>
</g>
</g>
<!-- Node11&#45;&gt;Node5 -->
<g id="edge16_Node000011_Node000005" class="edge">
<title>Node11&#45;&gt;Node5</title>
<g id="a_edge16_Node000011_Node000005"><a xlink:title=" ">
<path fill="none" stroke="#63b8ff" d="M526.91,-164.96C549.24,-157.83 579.12,-146.06 601.5,-129 638.95,-100.44 669.74,-53.42 684.7,-28.04"/>
<polygon fill="#63b8ff" stroke="#63b8ff" points="687.85,-29.59 689.8,-19.18 681.78,-26.1 687.85,-29.59"/>
</a>
</g>
</g>
<!-- Node11&#45;&gt;Node6 -->
<g id="edge24_Node000011_Node000006" class="edge">
<title>Node11&#45;&gt;Node6</title>
<g id="a_edge24_Node000011_Node000006"><a xlink:title=" ">
<path fill="none" stroke="#63b8ff" d="M532.65,-164.9C551.66,-158.41 573.15,-147.37 584.5,-129 593.03,-115.2 588.37,-96.65 582.72,-83.17"/>
<polygon fill="#63b8ff" stroke="#63b8ff" points="585.83,-81.57 578.41,-74.01 579.5,-84.55 585.83,-81.57"/>
</a>
</g>
</g>
<!-- Node12 -->
<g id="Node000012" class="node">
<title>Node12</title>
<g id="a_Node000012"><a xlink:title=" ">
<polygon fill="#e0e0e0" stroke="#999999" points="501.5,-129 457.5,-129 457.5,-110 501.5,-110 501.5,-129"/>
<text text-anchor="middle" x="479.5" y="-117" font-family="Helvetica,sans-Serif" font-size="10.00">limits</text>
</a>
</g>
</g>
<!-- Node11&#45;&gt;Node12 -->
<g id="edge14_Node000011_Node000012" class="edge">
<title>Node11&#45;&gt;Node12</title>
<g id="a_edge14_Node000011_Node000012"><a xlink:title=" ">
<path fill="none" stroke="#63b8ff" d="M492.86,-164.75C490.74,-157.72 487.69,-147.62 485.04,-138.84"/>
<polygon fill="#63b8ff" stroke="#63b8ff" points="488.33,-137.65 482.09,-129.09 481.63,-139.67 488.33,-137.65"/>
</a>
</g>
</g>
<!-- Node13 -->
<g id="Node000013" class="node">
<title>Node13</title>
<g id="a_Node000013"><a xlink:title=" ">
<polygon fill="#e0e0e0" stroke="#999999" points="575.5,-129 519.5,-129 519.5,-110 575.5,-110 575.5,-129"/>
<text text-anchor="middle" x="547.5" y="-117" font-family="Helvetica,sans-Serif" font-size="10.00">optional</text>
</a>
</g>
</g>
<!-- Node11&#45;&gt;Node13 -->
<g id="edge15_Node000011_Node000013" class="edge">
<title>Node11&#45;&gt;Node13</title>
<g id="a_edge15_Node000011_Node000013"><a xlink:title=" ">
<path fill="none" stroke="#63b8ff" d="M504.09,-164.75C511.66,-157.03 522.88,-145.6 532.01,-136.28"/>
<polygon fill="#63b8ff" stroke="#63b8ff" points="534.57,-138.68 539.07,-129.09 529.57,-133.78 534.57,-138.68"/>
</a>
</g>
</g>
<!-- Node14 -->
<g id="Node000014" class="node">
<title>Node14</title>
<g id="a_Node000014"><a xlink:href="ell__calc_8hpp.html" target="_top" xlink:title="Ellipsoid computation layer with cut dispatch.">
<polygon fill="white" stroke="#666666" points="401.5,-129 327.5,-129 327.5,-110 401.5,-110 401.5,-129"/>
<text text-anchor="middle" x="364.5" y="-117" font-family="Helvetica,sans-Serif" font-size="10.00">ell_calc.hpp</text>
</a>
</g>
</g>
<!-- Node11&#45;&gt;Node14 -->
<g id="edge18_Node000011_Node000014" class="edge">
<title>Node11&#45;&gt;Node14</title>
<g id="a_edge18_Node000011_Node000014"><a xlink:title=" ">
<path fill="none" stroke="#63b8ff" d="M474.45,-164.98C453.09,-156.34 419.8,-142.87 395.44,-133.02"/>
<polygon fill="#63b8ff" stroke="#63b8ff" points="396.51,-129.68 385.93,-129.17 393.89,-136.17 396.51,-129.68"/>
</a>
</g>
</g>
<!-- Node17 -->
<g id="Node000017" class="node">
<title>Node17</title>
<g id="a_Node000017"><a xlink:href="ell__matrix_8hpp.html" target="_top" xlink:title="Square matrix with flat storage and strided views.">
<polygon fill="white" stroke="#666666" points="305,-129 218,-129 218,-110 305,-110 305,-129"/>
<text text-anchor="middle" x="261.5" y="-117" font-family="Helvetica,sans-Serif" font-size="10.00">ell_matrix.hpp</text>
</a>
</g>
</g>
<!-- Node11&#45;&gt;Node17 -->
<g id="edge25_Node000011_Node000017" class="edge">
<title>Node11&#45;&gt;Node17</title>
<g id="a_edge25_Node000011_Node000017"><a xlink:title=" ">
<path fill="none" stroke="#63b8ff" d="M457.9,-164.98C417.51,-155.84 353.22,-141.27 309.27,-131.32"/>
<polygon fill="#63b8ff" stroke="#63b8ff" points="309.92,-127.88 299.39,-129.08 308.37,-134.7 309.92,-127.88"/>
</a>
</g>
</g>
<!-- Node14&#45;&gt;Node6 -->
<g id="edge23_Node000014_Node000006" class="edge">
<title>Node14&#45;&gt;Node6</title>
<g id="a_edge23_Node000014_Node000006"><a xlink:title=" ">
<path fill="none" stroke="#63b8ff" d="M398.08,-109.98C433.85,-100.91 490.62,-86.52 529.84,-76.57"/>
<polygon fill="#63b8ff" stroke="#63b8ff" points="530.82,-79.93 539.66,-74.08 529.1,-73.15 530.82,-79.93"/>
</a>
</g>
</g>
<!-- Node15 -->
<g id="Node000015" class="node">
<title>Node15</title>
<g id="a_Node000015"><a xlink:title=" ">
<polygon fill="#e0e0e0" stroke="#999999" points="513.5,-74 461.5,-74 461.5,-55 513.5,-55 513.5,-74"/>
<text text-anchor="middle" x="487.5" y="-62" font-family="Helvetica,sans-Serif" font-size="10.00">cassert</text>
</a>
</g>
</g>
<!-- Node14&#45;&gt;Node15 -->
<g id="edge19_Node000014_Node000015" class="edge">
<title>Node14&#45;&gt;Node15</title>
<g id="a_edge19_Node000014_Node000015"><a xlink:title=" ">
<path fill="none" stroke="#63b8ff" d="M384.26,-109.98C404.23,-101.38 435.3,-87.99 458.15,-78.15"/>
<polygon fill="#63b8ff" stroke="#63b8ff" points="459.58,-81.34 467.38,-74.17 456.81,-74.91 459.58,-81.34"/>
</a>
</g>
</g>
<!-- Node16 -->
<g id="Node000016" class="node">
<title>Node16</title>
<g id="a_Node000016"><a xlink:href="ell__calc__core_8hpp.html" target="_top" xlink:title="Core ellipsoid calculation routines.">
<polygon fill="white" stroke="#666666" points="443,-74 342,-74 342,-55 443,-55 443,-74"/>
<text text-anchor="middle" x="392.5" y="-62" font-family="Helvetica,sans-Serif" font-size="10.00">ell_calc_core.hpp</text>
</a>
</g>
</g>
<!-- Node14&#45;&gt;Node16 -->
<g id="edge20_Node000014_Node000016" class="edge">
<title>Node14&#45;&gt;Node16</title>
<g id="a_edge20_Node000014_Node000016"><a xlink:title=" ">
<path fill="none" stroke="#63b8ff" d="M369.12,-109.75C372.96,-102.49 378.52,-91.95 383.26,-82.98"/>
<polygon fill="#63b8ff" stroke="#63b8ff" points="386.39,-84.57 387.96,-74.09 380.2,-81.3 386.39,-84.57"/>
</a>
</g>
</g>
<!-- Node16&#45;&gt;Node4 -->
<g id="edge21_Node000016_Node000004" class="edge">
<title>Node16&#45;&gt;Node4</title>
<g id="a_edge21_Node000016_Node000004"><a xlink:title=" ">
<path fill="none" stroke="#63b8ff" d="M380.93,-54.98C370.08,-47 353.62,-34.88 340.62,-25.31"/>
<polygon fill="#63b8ff" stroke="#63b8ff" points="342.41,-22.28 332.28,-19.17 338.26,-27.92 342.41,-22.28"/>
</a>
</g>
</g>
<!-- Node16&#45;&gt;Node9 -->
<g id="edge22_Node000016_Node000009" class="edge">
<title>Node16&#45;&gt;Node9</title>
<g id="a_edge22_Node000016_Node000009"><a xlink:title=" ">
<path fill="none" stroke="#63b8ff" d="M391.84,-54.75C391.32,-47.8 390.56,-37.85 389.91,-29.13"/>
<polygon fill="#63b8ff" stroke="#63b8ff" points="393.39,-28.8 389.15,-19.09 386.41,-29.32 393.39,-28.8"/>
</a>
</g>
</g>
<!-- Node17&#45;&gt;Node2 -->
<g id="edge28_Node000017_Node000002" class="edge">
<title>Node17&#45;&gt;Node2</title>
<g id="a_edge28_Node000017_Node000002"><a xlink:title=" ">
<path fill="none" stroke="#63b8ff" d="M236.92,-109.98C211.45,-101.16 171.46,-87.31 142.87,-77.41"/>
<polygon fill="#63b8ff" stroke="#63b8ff" points="143.87,-74.05 133.27,-74.08 141.58,-80.66 143.87,-74.05"/>
</a>
</g>
</g>
<!-- Node17&#45;&gt;Node4 -->
<g id="edge27_Node000017_Node000004" class="edge">
<title>Node17&#45;&gt;Node4</title>
<g id="a_edge27_Node000017_Node000004"><a xlink:title=" ">
<path fill="none" stroke="#63b8ff" d="M268.74,-109.69C275.66,-100.98 286.12,-87.1 293.5,-74 301.67,-59.48 308.93,-42 313.86,-29.06"/>
<polygon fill="#63b8ff" stroke="#63b8ff" points="317.24,-30.01 317.42,-19.42 310.67,-27.59 317.24,-30.01"/>
</a>
</g>
</g>
<!-- Node18 -->
<g id="Node000018" class="node">
<title>Node18</title>
<g id="a_Node000018"><a xlink:title=" ">
<polygon fill="#e0e0e0" stroke="#999999" points="219.5,-74 155.5,-74 155.5,-55 219.5,-55 219.5,-74"/>
<text text-anchor="middle" x="187.5" y="-62" font-family="Helvetica,sans-Serif" font-size="10.00">algorithm</text>
</a>
</g>
</g>
<!-- Node17&#45;&gt;Node18 -->
<g id="edge26_Node000017_Node000018" class="edge">
<title>Node17&#45;&gt;Node18</title>
<g id="a_edge26_Node000017_Node000018"><a xlink:title=" ">
<path fill="none" stroke="#63b8ff" d="M249.61,-109.98C238.35,-101.92 221.21,-89.65 207.79,-80.03"/>
<polygon fill="#63b8ff" stroke="#63b8ff" points="209.77,-77.15 199.61,-74.17 205.7,-82.84 209.77,-77.15"/>
</a>
</g>
</g>
<!-- Node19 -->
<g id="Node000019" class="node">
<title>Node19</title>
<g id="a_Node000019"><a xlink:title=" ">
<polygon fill="#e0e0e0" stroke="#999999" points="285,-74 238,-74 238,-55 285,-55 285,-74"/>
<text text-anchor="middle" x="261.5" y="-62" font-family="Helvetica,sans-Serif" font-size="10.00">vector</text>
</a>
</g>
</g>
<!-- Node17&#45;&gt;Node19 -->
<g id="edge29_Node000017_Node000019" class="edge">
<title>Node17&#45;&gt;Node19</title>
<g id="a_edge29_Node000017_Node000019"><a xlink:title=" ">
<path fill="none" stroke="#63b8ff" d="M261.5,-109.75C261.5,-102.8 261.5,-92.85 261.5,-84.13"/>
<polygon fill="#63b8ff" stroke="#63b8ff" points="265,-84.09 261.5,-74.09 258,-84.09 265,-84.09"/>
</a>
</g>
</g>
</g>
</svg>
