<?xml version="1.0" encoding="UTF-8" standalone="no"?>
<!DOCTYPE svg PUBLIC "-//W3C//DTD SVG 1.1//EN"
 "http://www.w3.org/Graphics/SVG/1.1/DTD/svg11.dtd">
<!-- Generated by graphviz version 2.43.0 (0)
 -->
<!-- Title: ellalgo/ell_core.hpp Pages: 1 -->
<svg width="512pt" height="192pt"
 viewBox="0.00 0.00 511.76 192.00" xmlns="http://www.w3.org/2000/svg" xmlns:xlink="http://www.w3.org/1999/xlink">
<g id="graph0" class="graph" transform="scale(1 1) rotate(0) translate(4 188)">
<title>ellalgo/ell_core.hpp</title>
<!-- Node1 -->
<g id="Node000001" class="node">
<title>Node1</title>
<g id="a_Node000001"><a xlink:title="Ellipsoid search space core with matrix update.">
<polygon fill="#999999" stroke="#666666" points="352.26,-184 240.26,-184 240.26,-165 352.26,-165 352.26,-184"/>
<text text-anchor="middle" x="296.26" y="-172" font-family="Helvetica,sans-Serif" font-size="10.00">ellalgo/ell_core.hpp</text>
</a>
</g>
</g>
<!-- Node2 -->
<g id="Node000002" class="node">
<title>Node2</title>
<g id="a_Node000002"><a xlink:title=" ">
<polygon fill="#e0e0e0" stroke="#999999" points="45.76,-19 4.76,-19 4.76,0 45.76,0 45.76,-19"/>
<text text-anchor="middle" x="25.26" y="-7" font-family="Helvetica,sans-Serif" font-size="10.00">tuple</text>
</a>
</g>
</g>
<!-- Node1&#45;&gt;Node2 -->
<g id="edge1_Node000001_Node000002" class="edge">
<title>Node1&#45;&gt;Node2</title>
<g id="a_edge1_Node000001_Node000002"><a xlink:title=" ">
<path fill="none" stroke="#63b8ff" d="M240.13,-173.54C170.32,-170.11 54.25,-152.17 4.26,-74 -4.88,-59.69 3.27,-41.01 11.95,-27.62"/>
<polygon fill="#63b8ff" stroke="#63b8ff" points="14.91,-29.49 17.83,-19.31 9.2,-25.45 14.91,-29.49"/>
</a>
</g>
</g>
<!-- Node3 -->
<g id="Node000003" class="node">
<title>Node3</title>
<g id="a_Node000003"><a xlink:title=" ">
<polygon fill="#e0e0e0" stroke="#999999" points="336.76,-19 291.76,-19 291.76,0 336.76,0 336.76,-19"/>
<text text-anchor="middle" x="314.26" y="-7" font-family="Helvetica,sans-Serif" font-size="10.00">utility</text>
</a>
</g>
</g>
<!-- Node1&#45;&gt;Node3 -->
<g id="edge2_Node000001_Node000003" class="edge">
<title>Node1&#45;&gt;Node3</title>
<g id="a_edge2_Node000001_Node000003"><a xlink:title=" ">
<path fill="none" stroke="#63b8ff" d="M297.23,-164.74C300.04,-139.31 308.24,-65.08 312.15,-29.69"/>
<polygon fill="#63b8ff" stroke="#63b8ff" points="315.67,-29.63 313.29,-19.31 308.72,-28.86 315.67,-29.63"/>
</a>
</g>
</g>
<!-- Node4 -->
<g id="Node000004" class="node">
<title>Node4</title>
<g id="a_Node000004"><a xlink:title=" ">
<polygon fill="#e0e0e0" stroke="#999999" points="503.76,-74 446.76,-74 446.76,-55 503.76,-55 503.76,-74"/>
<text text-anchor="middle" x="475.26" y="-62" font-family="Helvetica,sans-Serif" font-size="10.00">valarray</text>
</a>
</g>
</g>
<!-- Node1&#45;&gt;Node4 -->
<g id="edge3_Node000001_Node000004" class="edge">
<title>Node1&#45;&gt;Node4</title>
<g id="a_edge3_Node000001_Node000004"><a xlink:title=" ">
<path fill="none" stroke="#63b8ff" d="M352.54,-168.79C383.96,-163.51 421.96,-152.39 448.26,-129 461.26,-117.44 468.2,-98.57 471.77,-84.4"/>
<polygon fill="#63b8ff" stroke="#63b8ff" points="475.27,-84.78 473.97,-74.27 468.43,-83.3 475.27,-84.78"/>
</a>
</g>
</g>
<!-- Node5 -->
<g id="Node000005" class="node">
<title>Node5</title>
<g id="a_Node000005"><a xlink:href="ell__calc_8hpp.html" target="_top" xlink:title="Ellipsoid computation layer with cut dispatch.">
<polygon fill="white" stroke="#666666" points="206.26,-129 132.26,-129 132.26,-110 206.26,-110 206.26,-129"/>
<text text-anchor="middle" x="169.26" y="-117" font-family="Helvetica,sans-Serif" font-size="10.00">ell_calc.hpp</text>
</a>
</g>
</g>
<!-- Node1&#45;&gt;Node5 -->
<g id="edge4_Node000001_Node000005" class="edge">
<title>Node1&#45;&gt;Node5</title>
<g id="a_edge4_Node000001_Node000005"><a xlink:title=" ">
<path fill="none" stroke="#63b8ff" d="M275.86,-164.98C255.25,-156.38 223.16,-142.99 199.57,-133.15"/>
<polygon fill="#63b8ff" stroke="#63b8ff" points="200.62,-129.79 190.04,-129.17 197.92,-136.25 200.62,-129.79"/>
</a>
</g>
</g>
<!-- Node9 -->
<g id="Node000009" class="node">
<title>Node9</title>
<g id="a_Node000009"><a xlink:href="ell__config_8hpp.html" target="_top" xlink:title="Configuration types and constants for the ellipsoid algorithm.">
<polygon fill="white" stroke="#666666" points="287.26,-74 203.26,-74 203.26,-55 287.26,-55 287.26,-74"/>
<text text-anchor="middle" x="245.26" y="-62" font-family="Helvetica,sans-Serif" font-size="10.00">ell_config.hpp</text>
</a>
</g>
</g>
<!-- Node1&#45;&gt;Node9 -->
<g id="edge13_Node000001_Node000009" class="edge">
<title>Node1&#45;&gt;Node9</title>
<g id="a_edge13_Node000001_Node000009"><a xlink:title=" ">
<path fill="none" stroke="#63b8ff" d="M292.09,-164.66C283.72,-146.93 264.73,-106.73 253.68,-83.32"/>
<polygon fill="#63b8ff" stroke="#63b8ff" points="256.79,-81.71 249.35,-74.16 250.46,-84.7 256.79,-81.71"/>
</a>
</g>
</g>
<!-- Node11 -->
<g id="Node000011" class="node">
<title>Node11</title>
<g id="a_Node000011"><a xlink:href="ell__matrix_8hpp.html" target="_top" xlink:title="Square matrix with flat storage and strided views.">
<polygon fill="white" stroke="#666666" points="438.76,-129 351.76,-129 351.76,-110 438.76,-110 438.76,-129"/>
<text text-anchor="middle" x="395.26" y="-117" font-family="Helvetica,sans-Serif" font-size="10.00">ell_matrix.hpp</text>
</a>
</g>
</g>
<!-- Node1&#45;&gt;Node11 -->
<g id="edge14_Node000001_Node000011" class="edge">
<title>Node1&#45;&gt;Node11</title>
<g id="a_edge14_Node000001_Node000011"><a xlink:title=" ">
<path fill="none" stroke="#63b8ff" d="M312.17,-164.98C327.81,-156.61 351.92,-143.7 370.15,-133.95"/>
<polygon fill="#63b8ff" stroke="#63b8ff" points="371.91,-136.98 379.07,-129.17 368.6,-130.8 371.91,-136.98"/>
</a>
</g>
</g>
<!-- Node6 -->
<g id="Node000006" class="node">
<title>Node6</title>
<g id="a_Node000006"><a xlink:title=" ">
<polygon fill="#e0e0e0" stroke="#999999" points="185.26,-74 133.26,-74 133.26,-55 185.26,-55 185.26,-74"/>
<text text-anchor="middle" x="159.26" y="-62" font-family="Helvetica,sans-Serif" font-size="10.00">cassert</text>
</a>
</g>
</g>
<!-- Node5&#45;&gt;Node6 -->
<g id="edge5_Node000005_Node000006" class="edge">
<title>Node5&#45;&gt;Node6</title>
<g id="a_edge5_Node000005_Node000006"><a xlink:title=" ">
<path fill="none" stroke="#63b8ff" d="M167.61,-109.75C166.3,-102.8 164.42,-92.85 162.78,-84.13"/>
<polygon fill="#63b8ff" stroke="#63b8ff" points="166.18,-83.27 160.89,-74.09 159.3,-84.56 166.18,-83.27"/>
</a>
</g>
</g>
<!-- Node7 -->
<g id="Node000007" class="node">
<title>Node7</title>
<g id="a_Node000007"><a xlink:href="ell__calc__core_8hpp.html" target="_top" xlink:title="Core ellipsoid calculation routines.">
<polygon fill="white" stroke="#666666" points="114.76,-74 13.76,-74 13.76,-55 114.76,-55 114.76,-74"/>
<text text-anchor="middle" x="64.26" y="-62" font-family="Helvetica,sans-Serif" font-size="10.00">ell_calc_core.hpp</text>
</a>
</g>
</g>
<!-- Node5&#45;&gt;Node7 -->
<g id="edge6_Node000005_Node000007" class="edge">
<title>Node5&#45;&gt;Node7</title>
<g id="a_edge6_Node000005_Node000007"><a xlink:title=" ">
<path fill="none" stroke="#63b8ff" d="M152.39,-109.98C135.66,-101.54 109.77,-88.47 90.37,-78.68"/>
<polygon fill="#63b8ff" stroke="#63b8ff" points="91.95,-75.55 81.44,-74.17 88.79,-81.8 91.95,-75.55"/>
</a>
</g>
</g>
<!-- Node5&#45;&gt;Node9 -->
<g id="edge9_Node000005_Node000009" class="edge">
<title>Node5&#45;&gt;Node9</title>
<g id="a_edge9_Node000005_Node000009"><a xlink:title=" ">
<path fill="none" stroke="#63b8ff" d="M181.48,-109.98C193.04,-101.92 210.64,-89.65 224.43,-80.03"/>
<polygon fill="#63b8ff" stroke="#63b8ff" points="226.63,-82.76 232.83,-74.17 222.63,-77.02 226.63,-82.76"/>
</a>
</g>
</g>
<!-- Node7&#45;&gt;Node2 -->
<g id="edge8_Node000007_Node000002" class="edge">
<title>Node7&#45;&gt;Node2</title>
<g id="a_edge8_Node000007_Node000002"><a xlink:title=" ">
<path fill="none" stroke="#63b8ff" d="M57.82,-54.75C52.37,-47.34 44.4,-36.5 37.71,-27.41"/>
<polygon fill="#63b8ff" stroke="#63b8ff" points="40.33,-25.07 31.59,-19.09 34.69,-29.22 40.33,-25.07"/>
</a>
</g>
</g>
<!-- Node8 -->
<g id="Node000008" class="node">
<title>Node8</title>
<g id="a_Node000008"><a xlink:title=" ">
<polygon fill="#e0e0e0" stroke="#999999" points="198.76,-19 145.76,-19 145.76,0 198.76,0 198.76,-19"/>
<text text-anchor="middle" x="172.26" y="-7" font-family="Helvetica,sans-Serif" font-size="10.00">cstddef</text>
</a>
</g>
</g>
<!-- Node7&#45;&gt;Node8 -->
<g id="edge7_Node000007_Node000008" class="edge">
<title>Node7&#45;&gt;Node8</title>
<g id="a_edge7_Node000007_Node000008"><a xlink:title=" ">
<path fill="none" stroke="#63b8ff" d="M81.62,-54.98C98.83,-46.54 125.46,-33.47 145.41,-23.68"/>
<polygon fill="#63b8ff" stroke="#63b8ff" points="147.16,-26.72 154.6,-19.17 144.08,-20.43 147.16,-26.72"/>
</a>
</g>
</g>
<!-- Node9&#45;&gt;Node3 -->
<g id="edge12_Node000009_Node000003" class="edge">
<title>Node9&#45;&gt;Node3</title>
<g id="a_edge12_Node000009_Node000003"><a xlink:title=" ">
<path fill="none" stroke="#63b8ff" d="M256.35,-54.98C266.75,-47 282.53,-34.88 294.99,-25.31"/>
<polygon fill="#63b8ff" stroke="#63b8ff" points="297.18,-28.04 302.98,-19.17 292.91,-22.49 297.18,-28.04"/>
</a>
</g>
</g>
<!-- Node9&#45;&gt;Node8 -->
<g id="edge10_Node000009_Node000008" class="edge">
<title>Node9&#45;&gt;Node8</title>
<g id="a_edge10_Node000009_Node000008"><a xlink:title=" ">
<path fill="none" stroke="#63b8ff" d="M233.54,-54.98C222.53,-47 205.84,-34.88 192.66,-25.31"/>
<polygon fill="#63b8ff" stroke="#63b8ff" points="194.36,-22.21 184.21,-19.17 190.24,-27.88 194.36,-22.21"/>
</a>
</g>
</g>
<!-- Node10 -->
<g id="Node000010" class="node">
<title>Node10</title>
<g id="a_Node000010"><a xlink:title=" ">
<polygon fill="#e0e0e0" stroke="#999999" points="273.76,-19 216.76,-19 216.76,0 273.76,0 273.76,-19"/>
<text text-anchor="middle" x="245.26" y="-7" font-family="Helvetica,sans-Serif" font-size="10.00">ostream</text>
</a>
</g>
</g>
<!-- Node9&#45;&gt;Node10 -->
<g id="edge11_Node000009_Node000010" class="edge">
<title>Node9&#45;&gt;Node10</title>
<g id="a_edge11_Node000009_Node000010"><a xlink:title=" ">
<path fill="none" stroke="#63b8ff" d="M245.26,-54.75C245.26,-47.8 245.26,-37.85 245.26,-29.13"/>
<polygon fill="#63b8ff" stroke="#63b8ff" points="248.76,-29.09 245.26,-19.09 241.76,-29.09 248.76,-29.09"/>
</a>
</g>
</g>
<!-- Node11&#45;&gt;Node4 -->
<g id="edge16_Node000011_Node000004" class="edge">
<title>Node11&#45;&gt;Node4</title>
<g id="a_edge16_Node000011_Node000004"><a xlink:title=" ">
<path fill="none" stroke="#63b8ff" d="M408.12,-109.98C420.41,-101.84 439.17,-89.41 453.74,-79.76"/>
<polygon fill="#63b8ff" stroke="#63b8ff" points="455.77,-82.61 462.18,-74.17 451.91,-76.78 455.77,-82.61"/>
</a>
</g>
</g>
<!-- Node11&#45;&gt;Node8 -->
<g id="edge15_Node000011_Node000008" class="edge">
<title>Node11&#45;&gt;Node8</title>
<g id="a_edge15_Node000011_Node000008"><a xlink:title=" ">
<path fill="none" stroke="#63b8ff" d="M383.88,-109.98C365.97,-96.86 329.79,-71.5 296.26,-55 267.95,-41.06 234.13,-29.22 208.97,-21.26"/>
<polygon fill="#63b8ff" stroke="#63b8ff" points="209.69,-17.82 199.1,-18.2 207.61,-24.51 209.69,-17.82"/>
</a>
</g>
</g>
<!-- Node12 -->
<g id="Node000012" class="node">
<title>Node12</title>
<g id="a_Node000012"><a xlink:title=" ">
<polygon fill="#e0e0e0" stroke="#999999" points="428.76,-74 381.76,-74 381.76,-55 428.76,-55 428.76,-74"/>
<text text-anchor="middle" x="405.26" y="-62" font-family="Helvetica,sans-Serif" font-size="10.00">vector</text>
</a>
</g>
</g>
<!-- Node11&#45;&gt;Node12 -->
<g id="edge17_Node000011_Node000012" class="edge">
<title>Node11&#45;&gt;Node12</title>
<g id="a_edge17_Node000011_Node000012"><a xlink:title=" ">
<path fill="none" stroke="#63b8ff" d="M396.92,-109.75C398.23,-102.8 400.11,-92.85 401.75,-84.13"/>
<polygon fill="#63b8ff" stroke="#63b8ff" points="405.23,-84.56 403.64,-74.09 398.35,-83.27 405.23,-84.56"/>
</a>
</g>
</g>
</g>
</svg>
