<?xml version="1.0" encoding="UTF-8" standalone="no"?>
<!DOCTYPE svg PUBLIC "-//W3C//DTD SVG 1.1//EN"
 "http://www.w3.org/Graphics/SVG/1.1/DTD/svg11.dtd">
<!-- Generated by graphviz version 2.43.0 (0)
 -->
<!-- Title: ellalgo/oracles/ldlt_mgr.hpp Pages: 1 -->
<svg width="330pt" height="148pt"
 viewBox="0.00 0.00 329.50 148.00" xmlns="http://www.w3.org/2000/svg" xmlns:xlink="http://www.w3.org/1999/xlink">
<g id="graph0" class="graph" transform="scale(1 1) rotate(0) translate(4 144)">
<title>ellalgo/oracles/ldlt_mgr.hpp</title>
<!-- Node1 -->
<g id="Node000001" class="node">
<title>Node1</title>
<g id="a_Node000001"><a xlink:title="LDL^T factorization manager for symmetric matrices.">
<polygon fill="#999999" stroke="#666666" points="184.5,-140 77.5,-140 77.5,-110 184.5,-110 184.5,-140"/>
<text text-anchor="start" x="85.5" y="-128" font-family="Helvetica,sans-Serif" font-size="10.00">ellalgo/oracles/ldlt</text>
<text text-anchor="middle" x="131" y="-117" font-family="Helvetica,sans-Serif" font-size="10.00">_mgr.hpp</text>
</a>
</g>
</g>
<!-- Node2 -->
<g id="Node000002" class="node">
<title>Node2</title>
<g id="a_Node000002"><a xlink:title=" ">
<polygon fill="#e0e0e0" stroke="#999999" points="52,-74 0,-74 0,-55 52,-55 52,-74"/>
<text text-anchor="middle" x="26" y="-62" font-family="Helvetica,sans-Serif" font-size="10.00">cassert</text>
</a>
</g>
</g>
<!-- Node1&#45;&gt;Node2 -->
<g id="edge1_Node000001_Node000002" class="edge">
<title>Node1&#45;&gt;Node2</title>
<g id="a_edge1_Node000001_Node000002"><a xlink:title=" ">
<path fill="none" stroke="#63b8ff" d="M105.85,-109.99C89.11,-100.66 67.23,-88.47 50.61,-79.21"/>
<polygon fill="#63b8ff" stroke="#63b8ff" points="51.95,-75.95 41.51,-74.14 48.54,-82.06 51.95,-75.95"/>
</a>
</g>
</g>
<!-- Node3 -->
<g id="Node000003" class="node">
<title>Node3</title>
<g id="a_Node000003"><a xlink:title=" ">
<polygon fill="#e0e0e0" stroke="#999999" points="142.5,-19 89.5,-19 89.5,0 142.5,0 142.5,-19"/>
<text text-anchor="middle" x="116" y="-7" font-family="Helvetica,sans-Serif" font-size="10.00">cstddef</text>
</a>
</g>
</g>
<!-- Node1&#45;&gt;Node3 -->
<g id="edge2_Node000001_Node000003" class="edge">
<title>Node1&#45;&gt;Node3</title>
<g id="a_edge2_Node000001_Node000003"><a xlink:title=" ">
<path fill="none" stroke="#63b8ff" d="M118.77,-109.79C111.46,-100.33 102.88,-87.25 99,-74 94.5,-58.62 100.05,-41 105.99,-28.23"/>
<polygon fill="#63b8ff" stroke="#63b8ff" points="109.19,-29.66 110.64,-19.16 102.96,-26.46 109.19,-29.66"/>
</a>
</g>
</g>
<!-- Node4 -->
<g id="Node000004" class="node">
<title>Node4</title>
<g id="a_Node000004"><a xlink:title=" ">
<polygon fill="#e0e0e0" stroke="#999999" points="153.5,-74 108.5,-74 108.5,-55 153.5,-55 153.5,-74"/>
<text text-anchor="middle" x="131" y="-62" font-family="Helvetica,sans-Serif" font-size="10.00">utility</text>
</a>
</g>
</g>
<!-- Node1&#45;&gt;Node4 -->
<g id="edge3_Node000001_Node000004" class="edge">
<title>Node1&#45;&gt;Node4</title>
<g id="a_edge3_Node000001_Node000004"><a xlink:title=" ">
<path fill="none" stroke="#63b8ff" d="M131,-109.84C131,-102.21 131,-92.7 131,-84.45"/>
<polygon fill="#63b8ff" stroke="#63b8ff" points="134.5,-84.27 131,-74.27 127.5,-84.27 134.5,-84.27"/>
</a>
</g>
</g>
<!-- Node5 -->
<g id="Node000005" class="node">
<title>Node5</title>
<g id="a_Node000005"><a xlink:title=" ">
<polygon fill="#e0e0e0" stroke="#999999" points="321.5,-19 264.5,-19 264.5,0 321.5,0 321.5,-19"/>
<text text-anchor="middle" x="293" y="-7" font-family="Helvetica,sans-Serif" font-size="10.00">valarray</text>
</a>
</g>
</g>
<!-- Node1&#45;&gt;Node5 -->
<g id="edge4_Node000001_Node000005" class="edge">
<title>Node1&#45;&gt;Node5</title>
<g id="a_edge4_Node000001_Node000005"><a xlink:title=" ">
<path fill="none" stroke="#63b8ff" d="M184.79,-118.28C215.85,-112.22 253.33,-99.73 277,-74 288.07,-61.97 291.75,-43.43 292.85,-29.48"/>
<polygon fill="#63b8ff" stroke="#63b8ff" points="296.37,-29.23 293.28,-19.09 289.37,-28.94 296.37,-29.23"/>
</a>
</g>
</g>
<!-- Node6 -->
<g id="Node000006" class="node">
<title>Node6</title>
<g id="a_Node000006"><a xlink:href="ell__matrix_8hpp.html" target="_top" xlink:title="Square matrix with flat storage and strided views.">
<polygon fill="white" stroke="#666666" points="268,-74 172,-74 172,-55 268,-55 268,-74"/>
<text text-anchor="middle" x="220" y="-62" font-family="Helvetica,sans-Serif" font-size="10.00">../ell_matrix.hpp</text>
</a>
</g>
</g>
<!-- Node1&#45;&gt;Node6 -->
<g id="edge5_Node000001_Node000006" class="edge">
<title>Node1&#45;&gt;Node6</title>
<g id="a_edge5_Node000001_Node000006"><a xlink:title=" ">
<path fill="none" stroke="#63b8ff" d="M152.54,-109.84C166.47,-100.68 184.53,-88.82 198.45,-79.66"/>
<polygon fill="#63b8ff" stroke="#63b8ff" points="200.49,-82.51 206.92,-74.09 196.65,-76.66 200.49,-82.51"/>
</a>
</g>
</g>
<!-- Node6&#45;&gt;Node3 -->
<g id="edge6_Node000006_Node000003" class="edge">
<title>Node6&#45;&gt;Node3</title>
<g id="a_edge6_Node000006_Node000003"><a xlink:title=" ">
<path fill="none" stroke="#63b8ff" d="M203.29,-54.98C186.79,-46.57 161.3,-33.59 142.12,-23.81"/>
<polygon fill="#63b8ff" stroke="#63b8ff" points="143.51,-20.59 133.01,-19.17 140.33,-26.83 143.51,-20.59"/>
</a>
</g>
</g>
<!-- Node6&#45;&gt;Node5 -->
<g id="edge7_Node000006_Node000005" class="edge">
<title>Node6&#45;&gt;Node5</title>
<g id="a_edge7_Node000006_Node000005"><a xlink:title=" ">
<path fill="none" stroke="#63b8ff" d="M231.73,-54.98C242.73,-47 259.42,-34.88 272.6,-25.31"/>
<polygon fill="#63b8ff" stroke="#63b8ff" points="275.02,-27.88 281.06,-19.17 270.91,-22.21 275.02,-27.88"/>
</a>
</g>
</g>
<!-- Node7 -->
<g id="Node000007" class="node">
<title>Node7</title>
<g id="a_Node000007"><a xlink:title=" ">
<polygon fill="#e0e0e0" stroke="#999999" points="243.5,-19 196.5,-19 196.5,0 243.5,0 243.5,-19"/>
<text text-anchor="middle" x="220" y="-7" font-family="Helvetica,sans-Serif" font-size="10.00">vector</text>
</a>
</g>
</g>
<!-- Node6&#45;&gt;Node7 -->
<g id="edge8_Node000006_Node000007" class="edge">
<title>Node6&#45;&gt;Node7</title>
<g id="a_edge8_Node000006_Node000007"><a xlink:title=" ">
<path fill="none" stroke="#63b8ff" d="M220,-54.75C220,-47.8 220,-37.85 220,-29.13"/>
<polygon fill="#63b8ff" stroke="#63b8ff" points="223.5,-29.09 220,-19.09 216.5,-29.09 223.5,-29.09"/>
</a>
</g>
</g>
</g>
</svg>
