<?xml version="1.0" encoding="UTF-8" standalone="no"?>
<!DOCTYPE svg PUBLIC "-//W3C//DTD SVG 1.1//EN"
 "http://www.w3.org/Graphics/SVG/1.1/DTD/svg11.dtd">
<!-- Generated by graphviz version 2.43.0 (0)
 -->
<!-- Title: ellalgo/oracles/ldlt_mgr.hpp Pages: 1 -->
<svg width="320pt" height="148pt"
 viewBox="0.00 0.00 319.50 148.00" xmlns="http://www.w3.org/2000/svg" xmlns:xlink="http://www.w3.org/1999/xlink">
<g id="graph0" class="graph" transform="scale(1 1) rotate(0) translate(4 144)">
<title>ellalgo/oracles/ldlt_mgr.hpp</title>
<!-- Node1 -->
<g id="Node000001" class="node">
<title>Node1</title>
<g id="a_Node000001"><a xlink:title="LDL^T factorization manager for symmetric matrices.">
<polygon fill="#999999" stroke="#666666" points="171.5,-140 64.5,-140 64.5,-110 171.5,-110 171.5,-140"/>
<text text-anchor="start" x="72.5" y="-128" font-family="Helvetica,sans-Serif" font-size="10.00">ellalgo/oracles/ldlt</text>
<text text-anchor="middle" x="118" y="-117" font-family="Helvetica,sans-Serif" font-size="10.00">_mgr.hpp</text>
</a>
</g>
</g>
<!-- Node2 -->
<g id="Node000002" class="node">
<title>Node2</title>
<g id="a_Node000002"><a xlink:title=" ">
<polygon fill="#e0e0e0" stroke="#999999" points="52,-74 0,-74 0,-55 52,-55 52,-74"/>
<text text-anchor="middle" x="26" y="-62" font-family="Helvetica,sans-Serif" font-size="10.00">cassert</text>
</a>
</g>
</g>
<!-- Node1&#45;&gt;Node2 -->
<g id="edge1_Node000001_Node000002" class="edge">
<title>Node1&#45;&gt;Node2</title>
<g id="a_edge1_Node000001_Node000002"><a xlink:title=" ">
<path fill="none" stroke="#63b8ff" d="M95.73,-109.84C81.33,-100.68 62.67,-88.82 48.27,-79.66"/>
<polygon fill="#63b8ff" stroke="#63b8ff" points="49.83,-76.51 39.52,-74.09 46.08,-82.41 49.83,-76.51"/>
</a>
</g>
</g>
<!-- Node3 -->
<g id="Node000003" class="node">
<title>Node3</title>
<g id="a_Node000003"><a xlink:title=" ">
<polygon fill="#e0e0e0" stroke="#999999" points="88.5,-19 35.5,-19 35.5,0 88.5,0 88.5,-19"/>
<text text-anchor="middle" x="62" y="-7" font-family="Helvetica,sans-Serif" font-size="10.00">cstddef</text>
</a>
</g>
</g>
<!-- Node1&#45;&gt;Node3 -->
<g id="edge2_Node000001_Node000003" class="edge">
<title>Node1&#45;&gt;Node3</title>
<g id="a_edge2_Node000001_Node000003"><a xlink:title=" ">
<path fill="none" stroke="#63b8ff" d="M110.91,-109.63C100.7,-88.93 81.87,-50.78 70.79,-28.32"/>
<polygon fill="#63b8ff" stroke="#63b8ff" points="73.87,-26.65 66.31,-19.23 67.59,-29.75 73.87,-26.65"/>
</a>
</g>
</g>
<!-- Node4 -->
<g id="Node000004" class="node">
<title>Node4</title>
<g id="a_Node000004"><a xlink:title=" ">
<polygon fill="#e0e0e0" stroke="#999999" points="305.5,-74 260.5,-74 260.5,-55 305.5,-55 305.5,-74"/>
<text text-anchor="middle" x="283" y="-62" font-family="Helvetica,sans-Serif" font-size="10.00">utility</text>
</a>
</g>
</g>
<!-- Node1&#45;&gt;Node4 -->
<g id="edge3_Node000001_Node000004" class="edge">
<title>Node1&#45;&gt;Node4</title>
<g id="a_edge3_Node000001_Node000004"><a xlink:title=" ">
<path fill="none" stroke="#63b8ff" d="M157.52,-109.99C185.93,-99.92 223.76,-86.5 250.44,-77.05"/>
<polygon fill="#63b8ff" stroke="#63b8ff" points="251.81,-80.27 260.07,-73.63 249.47,-73.67 251.81,-80.27"/>
</a>
</g>
</g>
<!-- Node5 -->
<g id="Node000005" class="node">
<title>Node5</title>
<g id="a_Node000005"><a xlink:title=" ">
<polygon fill="#e0e0e0" stroke="#999999" points="163.5,-19 106.5,-19 106.5,0 163.5,0 163.5,-19"/>
<text text-anchor="middle" x="135" y="-7" font-family="Helvetica,sans-Serif" font-size="10.00">valarray</text>
</a>
</g>
</g>
<!-- Node1&#45;&gt;Node5 -->
<g id="edge4_Node000001_Node000005" class="edge">
<title>Node1&#45;&gt;Node5</title>
<g id="a_edge4_Node000001_Node000005"><a xlink:title=" ">
<path fill="none" stroke="#63b8ff" d="M120.15,-109.63C123.21,-89.21 128.81,-51.81 132.19,-29.24"/>
<polygon fill="#63b8ff" stroke="#63b8ff" points="135.67,-29.64 133.69,-19.23 128.75,-28.6 135.67,-29.64"/>
</a>
</g>
</g>
<!-- Node6 -->
<g id="Node000006" class="node">
<title>Node6</title>
<g id="a_Node000006"><a xlink:href="ell__matrix_8hpp.html" target="_top" xlink:title="Square matrix with flat storage and strided views.">
<polygon fill="white" stroke="#666666" points="242,-74 146,-74 146,-55 242,-55 242,-74"/>
<text text-anchor="middle" x="194" y="-62" font-family="Helvetica,sans-Serif" font-size="10.00">../ell_matrix.hpp</text>
</a>
</g>
</g>
<!-- Node1&#45;&gt;Node6 -->
<g id="edge5_Node000001_Node000006" class="edge">
<title>Node1&#45;&gt;Node6</title>
<g id="a_edge5_Node000001_Node000006"><a xlink:title=" ">
<path fill="none" stroke="#63b8ff" d="M136.4,-109.84C147.88,-101 162.65,-89.63 174.36,-80.62"/>
<polygon fill="#63b8ff" stroke="#63b8ff" points="176.82,-83.14 182.61,-74.27 172.55,-77.59 176.82,-83.14"/>
</a>
</g>
</g>
<!-- Node6&#45;&gt;Node3 -->
<g id="edge7_Node000006_Node000003" class="edge">
<title>Node6&#45;&gt;Node3</title>
<g id="a_edge7_Node000006_Node000003"><a xlink:title=" ">
<path fill="none" stroke="#63b8ff" d="M172.79,-54.98C151.27,-46.34 117.72,-32.87 93.17,-23.02"/>
<polygon fill="#63b8ff" stroke="#63b8ff" points="94.18,-19.65 83.59,-19.17 91.57,-26.14 94.18,-19.65"/>
</a>
</g>
</g>
<!-- Node6&#45;&gt;Node5 -->
<g id="edge8_Node000006_Node000005" class="edge">
<title>Node6&#45;&gt;Node5</title>
<g id="a_edge8_Node000006_Node000005"><a xlink:title=" ">
<path fill="none" stroke="#63b8ff" d="M184.52,-54.98C175.8,-47.15 162.66,-35.34 152.1,-25.86"/>
<polygon fill="#63b8ff" stroke="#63b8ff" points="154.43,-23.25 144.65,-19.17 149.75,-28.46 154.43,-23.25"/>
</a>
</g>
</g>
<!-- Node7 -->
<g id="Node000007" class="node">
<title>Node7</title>
<g id="a_Node000007"><a xlink:title=" ">
<polygon fill="#e0e0e0" stroke="#999999" points="246,-19 182,-19 182,0 246,0 246,-19"/>
<text text-anchor="middle" x="214" y="-7" font-family="Helvetica,sans-Serif" font-size="10.00">algorithm</text>
</a>
</g>
</g>
<!-- Node6&#45;&gt;Node7 -->
<g id="edge6_Node000006_Node000007" class="edge">
<title>Node6&#45;&gt;Node7</title>
<g id="a_edge6_Node000006_Node000007"><a xlink:title=" ">
<path fill="none" stroke="#63b8ff" d="M197.3,-54.75C199.98,-47.65 203.85,-37.4 207.19,-28.56"/>
<polygon fill="#63b8ff" stroke="#63b8ff" points="210.5,-29.68 210.76,-19.09 203.95,-27.21 210.5,-29.68"/>
</a>
</g>
</g>
<!-- Node8 -->
<g id="Node000008" class="node">
<title>Node8</title>
<g id="a_Node000008"><a xlink:title=" ">
<polygon fill="#e0e0e0" stroke="#999999" points="311.5,-19 264.5,-19 264.5,0 311.5,0 311.5,-19"/>
<text text-anchor="middle" x="288" y="-7" font-family="Helvetica,sans-Serif" font-size="10.00">vector</text>
</a>
</g>
</g>
<!-- Node6&#45;&gt;Node8 -->
<g id="edge9_Node000006_Node000008" class="edge">
<title>Node6&#45;&gt;Node8</title>
<g id="a_edge9_Node000006_Node000008"><a xlink:title=" ">
<path fill="none" stroke="#63b8ff" d="M209.1,-54.98C223.82,-46.69 246.42,-33.94 263.67,-24.22"/>
<polygon fill="#63b8ff" stroke="#63b8ff" points="265.63,-27.13 272.62,-19.17 262.19,-21.03 265.63,-27.13"/>
</a>
</g>
</g>
</g>
</svg>
