<?xml version="1.0" encoding="UTF-8" standalone="no"?>
<!DOCTYPE svg PUBLIC "-//W3C//DTD SVG 1.1//EN"
 "http://www.w3.org/Graphics/SVG/1.1/DTD/svg11.dtd">
<!-- Generated by graphviz version 2.43.0 (0)
 -->
<!-- Title: ellalgo/oracles/ldlt_mgr.hpp Pages: 1 -->
<svg width="371pt" height="104pt"
 viewBox="0.00 0.00 371.00 104.00" xmlns="http://www.w3.org/2000/svg" xmlns:xlink="http://www.w3.org/1999/xlink">
<g id="graph0" class="graph" transform="scale(1 1) rotate(0) translate(4 100)">
<title>ellalgo/oracles/ldlt_mgr.hpp</title>
<!-- Node1 -->
<g id="Node000001" class="node">
<title>Node1</title>
<g id="a_Node000001"><a xlink:title="LDL^T factorization manager for symmetric matrices.">
<polygon fill="#999999" stroke="#666666" points="238,-96 131,-96 131,-66 238,-66 238,-96"/>
<text text-anchor="start" x="139" y="-84" font-family="Helvetica,sans-Serif" font-size="10.00">ellalgo/oracles/ldlt</text>
<text text-anchor="middle" x="184.5" y="-73" font-family="Helvetica,sans-Serif" font-size="10.00">_mgr.hpp</text>
</a>
</g>
</g>
<!-- Node2 -->
<g id="Node000002" class="node">
<title>Node2</title>
<g id="a_Node000002"><a xlink:href="lmi0__oracle_8hpp.html" target="_top" xlink:title="Oracle for Linear Matrix Inequality (LMI) feasibility (compact form)">
<polygon fill="white" stroke="#666666" points="113,-30 0,-30 0,0 113,0 113,-30"/>
<text text-anchor="start" x="8" y="-18" font-family="Helvetica,sans-Serif" font-size="10.00">ellalgo/oracles/lmi0</text>
<text text-anchor="middle" x="56.5" y="-7" font-family="Helvetica,sans-Serif" font-size="10.00">_oracle.hpp</text>
</a>
</g>
</g>
<!-- Node1&#45;&gt;Node2 -->
<g id="edge1_Node000001_Node000002" class="edge">
<title>Node1&#45;&gt;Node2</title>
<g id="a_edge1_Node000001_Node000002"><a xlink:title=" ">
<path fill="none" stroke="#63b8ff" d="M147.26,-61.38C127.23,-51.36 102.93,-39.22 84.52,-30.01"/>
<polygon fill="#63b8ff" stroke="#63b8ff" points="145.9,-64.61 156.41,-65.95 149.03,-58.35 145.9,-64.61"/>
</a>
</g>
</g>
<!-- Node3 -->
<g id="Node000003" class="node">
<title>Node3</title>
<g id="a_Node000003"><a xlink:href="lmi__old__oracle_8hpp.html" target="_top" xlink:title="Oracle for Linear Matrix Inequality feasibility (explicit matrix form)">
<polygon fill="white" stroke="#666666" points="238,-30 131,-30 131,0 238,0 238,-30"/>
<text text-anchor="start" x="139" y="-18" font-family="Helvetica,sans-Serif" font-size="10.00">ellalgo/oracles/lmi</text>
<text text-anchor="middle" x="184.5" y="-7" font-family="Helvetica,sans-Serif" font-size="10.00">_old_oracle.hpp</text>
</a>
</g>
</g>
<!-- Node1&#45;&gt;Node3 -->
<g id="edge2_Node000001_Node000003" class="edge">
<title>Node1&#45;&gt;Node3</title>
<g id="a_edge2_Node000001_Node000003"><a xlink:title=" ">
<path fill="none" stroke="#63b8ff" d="M184.5,-55.54C184.5,-46.96 184.5,-37.61 184.5,-30.16"/>
<polygon fill="#63b8ff" stroke="#63b8ff" points="181,-55.8 184.5,-65.8 188,-55.8 181,-55.8"/>
</a>
</g>
</g>
<!-- Node4 -->
<g id="Node000004" class="node">
<title>Node4</title>
<g id="a_Node000004"><a xlink:href="lmi__oracle_8hpp.html" target="_top" xlink:title="Oracle for Linear Matrix Inequality feasibility (lazy matrix form)">
<polygon fill="white" stroke="#666666" points="363,-30 256,-30 256,0 363,0 363,-30"/>
<text text-anchor="start" x="264" y="-18" font-family="Helvetica,sans-Serif" font-size="10.00">ellalgo/oracles/lmi</text>
<text text-anchor="middle" x="309.5" y="-7" font-family="Helvetica,sans-Serif" font-size="10.00">_oracle.hpp</text>
</a>
</g>
</g>
<!-- Node1&#45;&gt;Node4 -->
<g id="edge3_Node000001_Node000004" class="edge">
<title>Node1&#45;&gt;Node4</title>
<g id="a_edge3_Node000001_Node000004"><a xlink:title=" ">
<path fill="none" stroke="#63b8ff" d="M220.87,-61.38C240.43,-51.36 264.15,-39.22 282.13,-30.01"/>
<polygon fill="#63b8ff" stroke="#63b8ff" points="219.24,-58.28 211.93,-65.95 222.43,-64.51 219.24,-58.28"/>
</a>
</g>
</g>
</g>
</svg>
