<?xml version="1.0" encoding="UTF-8" standalone="no"?>
<!DOCTYPE svg PUBLIC "-//W3C//DTD SVG 1.1//EN"
 "http://www.w3.org/Graphics/SVG/1.1/DTD/svg11.dtd">
<!-- Generated by graphviz version 2.43.0 (0)
 -->
<!-- Title: ellalgo/oracles/lmi0_oracle.hpp Pages: 1 -->
<svg width="428pt" height="203pt"
 viewBox="0.00 0.00 428.00 203.00" xmlns="http://www.w3.org/2000/svg" xmlns:xlink="http://www.w3.org/1999/xlink">
<g id="graph0" class="graph" transform="scale(1 1) rotate(0) translate(4 199)">
<title>ellalgo/oracles/lmi0_oracle.hpp</title>
<!-- Node1 -->
<g id="Node000001" class="node">
<title>Node1</title>
<g id="a_Node000001"><a xlink:title="Oracle for Linear Matrix Inequality (LMI) feasibility (compact form)">
<polygon fill="#999999" stroke="#666666" points="142.5,-195 29.5,-195 29.5,-165 142.5,-165 142.5,-195"/>
<text text-anchor="start" x="37.5" y="-183" font-family="Helvetica,sans-Serif" font-size="10.00">ellalgo/oracles/lmi0</text>
<text text-anchor="middle" x="86" y="-172" font-family="Helvetica,sans-Serif" font-size="10.00">_oracle.hpp</text>
</a>
</g>
</g>
<!-- Node2 -->
<g id="Node000002" class="node">
<title>Node2</title>
<g id="a_Node000002"><a xlink:title=" ">
<polygon fill="#e0e0e0" stroke="#999999" points="58,-129 0,-129 0,-110 58,-110 58,-129"/>
<text text-anchor="middle" x="29" y="-117" font-family="Helvetica,sans-Serif" font-size="10.00">memory</text>
</a>
</g>
</g>
<!-- Node1&#45;&gt;Node2 -->
<g id="edge1_Node000001_Node000002" class="edge">
<title>Node1&#45;&gt;Node2</title>
<g id="a_edge1_Node000001_Node000002"><a xlink:title=" ">
<path fill="none" stroke="#63b8ff" d="M72.2,-164.84C63.93,-156.35 53.38,-145.52 44.77,-136.69"/>
<polygon fill="#63b8ff" stroke="#63b8ff" points="47.03,-133.99 37.54,-129.27 42.01,-138.87 47.03,-133.99"/>
</a>
</g>
</g>
<!-- Node3 -->
<g id="Node000003" class="node">
<title>Node3</title>
<g id="a_Node000003"><a xlink:title=" ">
<polygon fill="#e0e0e0" stroke="#999999" points="154.5,-19 107.5,-19 107.5,0 154.5,0 154.5,-19"/>
<text text-anchor="middle" x="131" y="-7" font-family="Helvetica,sans-Serif" font-size="10.00">vector</text>
</a>
</g>
</g>
<!-- Node1&#45;&gt;Node3 -->
<g id="edge2_Node000001_Node000003" class="edge">
<title>Node1&#45;&gt;Node3</title>
<g id="a_edge2_Node000001_Node000003"><a xlink:title=" ">
<path fill="none" stroke="#63b8ff" d="M86.45,-164.82C87.57,-141.34 91.48,-93.18 105,-55 108.39,-45.42 113.89,-35.58 118.96,-27.6"/>
<polygon fill="#63b8ff" stroke="#63b8ff" points="121.92,-29.47 124.56,-19.21 116.1,-25.59 121.92,-29.47"/>
</a>
</g>
</g>
<!-- Node4 -->
<g id="Node000004" class="node">
<title>Node4</title>
<g id="a_Node000004"><a xlink:href="ldlt__mgr_8hpp.html" target="_top" xlink:title="LDL^T factorization manager for symmetric matrices.">
<polygon fill="white" stroke="#666666" points="302.5,-129 225.5,-129 225.5,-110 302.5,-110 302.5,-129"/>
<text text-anchor="middle" x="264" y="-117" font-family="Helvetica,sans-Serif" font-size="10.00">ldlt_mgr.hpp</text>
</a>
</g>
</g>
<!-- Node1&#45;&gt;Node4 -->
<g id="edge3_Node000001_Node000004" class="edge">
<title>Node1&#45;&gt;Node4</title>
<g id="a_edge3_Node000001_Node000004"><a xlink:title=" ">
<path fill="none" stroke="#63b8ff" d="M128.64,-164.99C159.09,-154.98 199.59,-141.67 228.33,-132.22"/>
<polygon fill="#63b8ff" stroke="#63b8ff" points="229.57,-135.5 237.97,-129.05 227.38,-128.85 229.57,-135.5"/>
</a>
</g>
</g>
<!-- Node5 -->
<g id="Node000005" class="node">
<title>Node5</title>
<g id="a_Node000005"><a xlink:title=" ">
<polygon fill="#e0e0e0" stroke="#999999" points="420,-74 368,-74 368,-55 420,-55 420,-74"/>
<text text-anchor="middle" x="394" y="-62" font-family="Helvetica,sans-Serif" font-size="10.00">cassert</text>
</a>
</g>
</g>
<!-- Node4&#45;&gt;Node5 -->
<g id="edge4_Node000004_Node000005" class="edge">
<title>Node4&#45;&gt;Node5</title>
<g id="a_edge4_Node000004_Node000005"><a xlink:title=" ">
<path fill="none" stroke="#63b8ff" d="M284.89,-109.98C306.08,-101.34 339.13,-87.87 363.3,-78.02"/>
<polygon fill="#63b8ff" stroke="#63b8ff" points="364.79,-81.19 372.73,-74.17 362.15,-74.7 364.79,-81.19"/>
</a>
</g>
</g>
<!-- Node6 -->
<g id="Node000006" class="node">
<title>Node6</title>
<g id="a_Node000006"><a xlink:title=" ">
<polygon fill="#e0e0e0" stroke="#999999" points="355.5,-19 302.5,-19 302.5,0 355.5,0 355.5,-19"/>
<text text-anchor="middle" x="329" y="-7" font-family="Helvetica,sans-Serif" font-size="10.00">cstddef</text>
</a>
</g>
</g>
<!-- Node4&#45;&gt;Node6 -->
<g id="edge5_Node000004_Node000006" class="edge">
<title>Node4&#45;&gt;Node6</title>
<g id="a_edge5_Node000004_Node000006"><a xlink:title=" ">
<path fill="none" stroke="#63b8ff" d="M271.58,-109.67C278.87,-100.96 289.93,-87.07 298,-74 307.05,-59.34 315.5,-41.65 321.29,-28.67"/>
<polygon fill="#63b8ff" stroke="#63b8ff" points="324.53,-29.98 325.32,-19.42 318.12,-27.19 324.53,-29.98"/>
</a>
</g>
</g>
<!-- Node7 -->
<g id="Node000007" class="node">
<title>Node7</title>
<g id="a_Node000007"><a xlink:title=" ">
<polygon fill="#e0e0e0" stroke="#999999" points="159.5,-74 114.5,-74 114.5,-55 159.5,-55 159.5,-74"/>
<text text-anchor="middle" x="137" y="-62" font-family="Helvetica,sans-Serif" font-size="10.00">utility</text>
</a>
</g>
</g>
<!-- Node4&#45;&gt;Node7 -->
<g id="edge6_Node000004_Node000007" class="edge">
<title>Node4&#45;&gt;Node7</title>
<g id="a_edge6_Node000004_Node000007"><a xlink:title=" ">
<path fill="none" stroke="#63b8ff" d="M243.6,-109.98C222.98,-101.38 190.89,-87.99 167.31,-78.15"/>
<polygon fill="#63b8ff" stroke="#63b8ff" points="168.35,-74.79 157.78,-74.17 165.66,-81.25 168.35,-74.79"/>
</a>
</g>
</g>
<!-- Node8 -->
<g id="Node000008" class="node">
<title>Node8</title>
<g id="a_Node000008"><a xlink:title=" ">
<polygon fill="#e0e0e0" stroke="#999999" points="264.5,-19 207.5,-19 207.5,0 264.5,0 264.5,-19"/>
<text text-anchor="middle" x="236" y="-7" font-family="Helvetica,sans-Serif" font-size="10.00">valarray</text>
</a>
</g>
</g>
<!-- Node4&#45;&gt;Node8 -->
<g id="edge7_Node000004_Node000008" class="edge">
<title>Node4&#45;&gt;Node8</title>
<g id="a_edge7_Node000004_Node000008"><a xlink:title=" ">
<path fill="none" stroke="#63b8ff" d="M270.47,-109.65C278.75,-97.16 291.1,-73.81 283,-55 277.85,-43.03 267.71,-32.76 258.17,-25.12"/>
<polygon fill="#63b8ff" stroke="#63b8ff" points="260.19,-22.26 250.07,-19.11 256.01,-27.88 260.19,-22.26"/>
</a>
</g>
</g>
<!-- Node9 -->
<g id="Node000009" class="node">
<title>Node9</title>
<g id="a_Node000009"><a xlink:href="ell__matrix_8hpp.html" target="_top" xlink:title="Square matrix with flat storage and strided views.">
<polygon fill="white" stroke="#666666" points="274,-74 178,-74 178,-55 274,-55 274,-74"/>
<text text-anchor="middle" x="226" y="-62" font-family="Helvetica,sans-Serif" font-size="10.00">../ell_matrix.hpp</text>
</a>
</g>
</g>
<!-- Node4&#45;&gt;Node9 -->
<g id="edge8_Node000004_Node000009" class="edge">
<title>Node4&#45;&gt;Node9</title>
<g id="a_edge8_Node000004_Node000009"><a xlink:title=" ">
<path fill="none" stroke="#63b8ff" d="M257.73,-109.75C252.41,-102.34 244.64,-91.5 238.12,-82.41"/>
<polygon fill="#63b8ff" stroke="#63b8ff" points="240.83,-80.18 232.16,-74.09 235.14,-84.26 240.83,-80.18"/>
</a>
</g>
</g>
<!-- Node9&#45;&gt;Node3 -->
<g id="edge11_Node000009_Node000003" class="edge">
<title>Node9&#45;&gt;Node3</title>
<g id="a_edge11_Node000009_Node000003"><a xlink:title=" ">
<path fill="none" stroke="#63b8ff" d="M210.74,-54.98C195.87,-46.69 173.02,-33.94 155.58,-24.22"/>
<polygon fill="#63b8ff" stroke="#63b8ff" points="156.98,-20.99 146.54,-19.17 153.57,-27.1 156.98,-20.99"/>
</a>
</g>
</g>
<!-- Node9&#45;&gt;Node6 -->
<g id="edge9_Node000009_Node000006" class="edge">
<title>Node9&#45;&gt;Node6</title>
<g id="a_edge9_Node000009_Node000006"><a xlink:title=" ">
<path fill="none" stroke="#63b8ff" d="M242.55,-54.98C258.89,-46.57 284.13,-33.59 303.13,-23.81"/>
<polygon fill="#63b8ff" stroke="#63b8ff" points="304.86,-26.86 312.15,-19.17 301.66,-20.63 304.86,-26.86"/>
</a>
</g>
</g>
<!-- Node9&#45;&gt;Node8 -->
<g id="edge10_Node000009_Node000008" class="edge">
<title>Node9&#45;&gt;Node8</title>
<g id="a_edge10_Node000009_Node000008"><a xlink:title=" ">
<path fill="none" stroke="#63b8ff" d="M227.65,-54.75C228.96,-47.8 230.84,-37.85 232.48,-29.13"/>
<polygon fill="#63b8ff" stroke="#63b8ff" points="235.96,-29.56 234.38,-19.09 229.09,-28.27 235.96,-29.56"/>
</a>
</g>
</g>
</g>
</svg>
