<?xml version="1.0" encoding="UTF-8" standalone="no"?>
<!DOCTYPE svg PUBLIC "-//W3C//DTD SVG 1.1//EN"
 "http://www.w3.org/Graphics/SVG/1.1/DTD/svg11.dtd">
<!-- Generated by graphviz version 2.43.0 (0)
 -->
<!-- Title: ellalgo/oracles/lmi_oracle_base.hpp Pages: 1 -->
<svg width="392pt" height="170pt"
 viewBox="0.00 0.00 392.00 170.00" xmlns="http://www.w3.org/2000/svg" xmlns:xlink="http://www.w3.org/1999/xlink">
<g id="graph0" class="graph" transform="scale(1 1) rotate(0) translate(4 166)">
<title>ellalgo/oracles/lmi_oracle_base.hpp</title>
<!-- Node1 -->
<g id="Node000001" class="node">
<title>Node1</title>
<g id="a_Node000001"><a xlink:title="Shared LMI oracle skeleton (Template Method)">
<polygon fill="#999999" stroke="#666666" points="238,-162 131,-162 131,-132 238,-132 238,-162"/>
<text text-anchor="start" x="139" y="-150" font-family="Helvetica,sans-Serif" font-size="10.00">ellalgo/oracles/lmi</text>
<text text-anchor="middle" x="184.5" y="-139" font-family="Helvetica,sans-Serif" font-size="10.00">_oracle_base.hpp</text>
</a>
</g>
</g>
<!-- Node2 -->
<g id="Node000002" class="node">
<title>Node2</title>
<g id="a_Node000002"><a xlink:href="lmi0__oracle_8hpp.html" target="_top" xlink:title="Oracle for Linear Matrix Inequality (LMI) feasibility (compact form)">
<polygon fill="white" stroke="#666666" points="113,-96 0,-96 0,-66 113,-66 113,-96"/>
<text text-anchor="start" x="8" y="-84" font-family="Helvetica,sans-Serif" font-size="10.00">ellalgo/oracles/lmi0</text>
<text text-anchor="middle" x="56.5" y="-73" font-family="Helvetica,sans-Serif" font-size="10.00">_oracle.hpp</text>
</a>
</g>
</g>
<!-- Node1&#45;&gt;Node2 -->
<g id="edge1_Node000001_Node000002" class="edge">
<title>Node1&#45;&gt;Node2</title>
<g id="a_edge1_Node000001_Node000002"><a xlink:title=" ">
<path fill="none" stroke="#63b8ff" d="M147.26,-127.38C127.23,-117.36 102.93,-105.22 84.52,-96.01"/>
<polygon fill="#63b8ff" stroke="#63b8ff" points="145.9,-130.61 156.41,-131.95 149.03,-124.35 145.9,-130.61"/>
</a>
</g>
</g>
<!-- Node4 -->
<g id="Node000004" class="node">
<title>Node4</title>
<g id="a_Node000004"><a xlink:href="lmi__old__oracle_8hpp.html" target="_top" xlink:title="Oracle for Linear Matrix Inequality feasibility (explicit matrix form)">
<polygon fill="white" stroke="#666666" points="238,-96 131,-96 131,-66 238,-66 238,-96"/>
<text text-anchor="start" x="139" y="-84" font-family="Helvetica,sans-Serif" font-size="10.00">ellalgo/oracles/lmi</text>
<text text-anchor="middle" x="184.5" y="-73" font-family="Helvetica,sans-Serif" font-size="10.00">_old_oracle.hpp</text>
</a>
</g>
</g>
<!-- Node1&#45;&gt;Node4 -->
<g id="edge3_Node000001_Node000004" class="edge">
<title>Node1&#45;&gt;Node4</title>
<g id="a_edge3_Node000001_Node000004"><a xlink:title=" ">
<path fill="none" stroke="#63b8ff" d="M184.5,-121.54C184.5,-112.96 184.5,-103.61 184.5,-96.16"/>
<polygon fill="#63b8ff" stroke="#63b8ff" points="181,-121.8 184.5,-131.8 188,-121.8 181,-121.8"/>
</a>
</g>
</g>
<!-- Node5 -->
<g id="Node000005" class="node">
<title>Node5</title>
<g id="a_Node000005"><a xlink:href="lmi__oracle_8hpp.html" target="_top" xlink:title="Oracle for Linear Matrix Inequality feasibility (lazy matrix form)">
<polygon fill="white" stroke="#666666" points="363,-96 256,-96 256,-66 363,-66 363,-96"/>
<text text-anchor="start" x="264" y="-84" font-family="Helvetica,sans-Serif" font-size="10.00">ellalgo/oracles/lmi</text>
<text text-anchor="middle" x="309.5" y="-73" font-family="Helvetica,sans-Serif" font-size="10.00">_oracle.hpp</text>
</a>
</g>
</g>
<!-- Node1&#45;&gt;Node5 -->
<g id="edge5_Node000001_Node000005" class="edge">
<title>Node1&#45;&gt;Node5</title>
<g id="a_edge5_Node000001_Node000005"><a xlink:title=" ">
<path fill="none" stroke="#63b8ff" d="M220.87,-127.38C240.43,-117.36 264.15,-105.22 282.13,-96.01"/>
<polygon fill="#63b8ff" stroke="#63b8ff" points="219.24,-124.28 211.93,-131.95 222.43,-130.51 219.24,-124.28"/>
</a>
</g>
</g>
<!-- Node3 -->
<g id="Node000003" class="node">
<title>Node3</title>
<g id="a_Node000003"><a xlink:href="lmi__factory_8hpp.html" target="_top" xlink:title="Factory functions for the LMI oracle family.">
<polygon fill="white" stroke="#666666" points="231,-30 124,-30 124,0 231,0 231,-30"/>
<text text-anchor="start" x="132" y="-18" font-family="Helvetica,sans-Serif" font-size="10.00">ellalgo/oracles/lmi</text>
<text text-anchor="middle" x="177.5" y="-7" font-family="Helvetica,sans-Serif" font-size="10.00">_factory.hpp</text>
</a>
</g>
</g>
<!-- Node2&#45;&gt;Node3 -->
<g id="edge2_Node000002_Node000003" class="edge">
<title>Node2&#45;&gt;Node3</title>
<g id="a_edge2_Node000002_Node000003"><a xlink:title=" ">
<path fill="none" stroke="#63b8ff" d="M91.97,-61.24C110.85,-51.25 133.68,-39.18 151.01,-30.01"/>
<polygon fill="#63b8ff" stroke="#63b8ff" points="90.26,-58.19 83.05,-65.95 93.53,-64.37 90.26,-58.19"/>
</a>
</g>
</g>
<!-- Node4&#45;&gt;Node3 -->
<g id="edge4_Node000004_Node000003" class="edge">
<title>Node4&#45;&gt;Node3</title>
<g id="a_edge4_Node000004_Node000003"><a xlink:title=" ">
<path fill="none" stroke="#63b8ff" d="M181.86,-55.83C180.91,-47.17 179.87,-37.7 179.05,-30.16"/>
<polygon fill="#63b8ff" stroke="#63b8ff" points="178.38,-56.24 182.95,-65.8 185.34,-55.48 178.38,-56.24"/>
</a>
</g>
</g>
<!-- Node5&#45;&gt;Node3 -->
<g id="edge7_Node000005_Node000003" class="edge">
<title>Node5&#45;&gt;Node3</title>
<g id="a_edge7_Node000005_Node000003"><a xlink:title=" ">
<path fill="none" stroke="#63b8ff" d="M271.37,-61.51C250.66,-51.47 225.47,-39.26 206.4,-30.01"/>
<polygon fill="#63b8ff" stroke="#63b8ff" points="270.01,-64.74 280.53,-65.95 273.06,-58.44 270.01,-64.74"/>
</a>
</g>
</g>
<!-- Node6 -->
<g id="Node000006" class="node">
<title>Node6</title>
<g id="a_Node000006"><a xlink:href="lmi__problem_8hpp.html" target="_top" xlink:title="LMI problem facade: owns data and drives the cutting&#45;plane loop.">
<polygon fill="white" stroke="#666666" points="384,-24.5 249,-24.5 249,-5.5 384,-5.5 384,-24.5"/>
<text text-anchor="middle" x="316.5" y="-12.5" font-family="Helvetica,sans-Serif" font-size="10.00">ellalgo/lmi_problem.hpp</text>
</a>
</g>
</g>
<!-- Node5&#45;&gt;Node6 -->
<g id="edge6_Node000005_Node000006" class="edge">
<title>Node5&#45;&gt;Node6</title>
<g id="a_edge6_Node000005_Node000006"><a xlink:title=" ">
<path fill="none" stroke="#63b8ff" d="M312.17,-55.6C313.35,-44.8 314.66,-32.78 315.53,-24.84"/>
<polygon fill="#63b8ff" stroke="#63b8ff" points="308.66,-55.48 311.05,-65.8 315.62,-56.24 308.66,-55.48"/>
</a>
</g>
</g>
</g>
</svg>
